{
	"asset":{
		"generator":"Khronos glTF Blender I/O v4.5.49",
		"version":"2.0"
	},
	"scene":0,
	"scenes":[
		{
			"name":"Scene",
			"nodes":[
				17,
				18
			]
		}
	],
	"nodes":[
		{
			"name":"Head",
			"rotation":[
				2.4526687525394664e-07,
				-1.725542504047599e-33,
				5.847617989872614e-14,
				1
			],
			"translation":[
				0,
				1.2150976657867432,
				0
			]
		},
		{
			"name":"L_Middle",
			"rotation":[
				0.0033043466974049807,
				0.00041505758417770267,
				0.031006023287773132,
				0.9995136857032776
			],
			"scale":[
				1,
				0.9999999403953552,
				1
			],
			"translation":[
				0.023951606824994087,
				1.2838327884674072,
				-0.009160728193819523
			]
		},
		{
			"name":"L_Pinky",
			"rotation":[
				-0.035932641476392746,
				0.007983009330928326,
				0.026332689449191093,
				0.9989753365516663
			],
			"scale":[
				0.9999999403953552,
				1,
				0.9999998807907104
			],
			"translation":[
				0.007292056456208229,
				1.154192566871643,
				-0.47512301802635193
			]
		},
		{
			"name":"L_Pointer",
			"rotation":[
				0.07730183005332947,
				0.0008436543866991997,
				0.029930634424090385,
				0.9965580105781555
			],
			"scale":[
				1,
				0.9999998807907104,
				1.0000001192092896
			],
			"translation":[
				0.034266047179698944,
				1.1983733177185059,
				0.4287821352481842
			]
		},
		{
			"name":"L_Thumb",
			"rotation":[
				0.649800181388855,
				0.02228824980556965,
				0.03899030387401581,
				0.7587772011756897
			],
			"scale":[
				0.9999999403953552,
				0.9999999403953552,
				0.9999999403953552
			],
			"translation":[
				0.03555978834629059,
				0.3608853220939636,
				0.7709488272666931
			]
		},
		{
			"children":[
				1,
				2,
				3,
				4
			],
			"name":"L_Hand",
			"rotation":[
				-0.00791301392018795,
				-0.007912672124803066,
				-0.7070624828338623,
				0.7070624828338623
			],
			"translation":[
				1.9658445119857788,
				0.5408655405044556,
				-0.037716347724199295
			]
		},
		{
			"name":"R_Middle",
			"rotation":[
				0.0033043462317436934,
				-0.0004150576132815331,
				-0.031006023287773132,
				0.9995136857032776
			],
			"scale":[
				1,
				0.9999999403953552,
				1
			],
			"translation":[
				-0.023951604962348938,
				1.2838327884674072,
				-0.009160726331174374
			]
		},
		{
			"name":"R_Pinky",
			"rotation":[
				-0.035932693630456924,
				-0.007983009330928326,
				-0.026332689449191093,
				0.9989753365516663
			],
			"scale":[
				0.9999999403953552,
				1,
				0.9999998807907104
			],
			"translation":[
				-0.007292056456208229,
				1.154192566871643,
				-0.47512301802635193
			]
		},
		{
			"name":"R_Pointer",
			"rotation":[
				0.07730183005332947,
				-0.0008436543866991997,
				-0.029930634424090385,
				0.9965580105781555
			],
			"scale":[
				1,
				0.9999998807907104,
				1.0000001192092896
			],
			"translation":[
				-0.034266047179698944,
				1.1983733177185059,
				0.4287821352481842
			]
		},
		{
			"name":"R_Thumb",
			"rotation":[
				0.649800181388855,
				-0.02228824980556965,
				-0.03899030387401581,
				0.7587772011756897
			],
			"scale":[
				0.9999999403953552,
				0.9999999403953552,
				0.9999999403953552
			],
			"translation":[
				-0.03555978834629059,
				0.3608853220939636,
				0.7709488272666931
			]
		},
		{
			"children":[
				6,
				7,
				8,
				9
			],
			"name":"R_Hand",
			"rotation":[
				-0.007913182489573956,
				0.00791250355541706,
				0.7070624828338623,
				0.7070624828338623
			],
			"translation":[
				-1.9658445119857788,
				0.5408655405044556,
				-0.03771728649735451
			]
		},
		{
			"children":[
				0,
				5,
				10
			],
			"name":"Chest",
			"rotation":[
				-2.4526687525394664e-07,
				1.1920928955078125e-07,
				-2.923808994936307e-14,
				1
			],
			"translation":[
				0,
				1,
				0
			]
		},
		{
			"name":"L_Foot",
			"rotation":[
				0.47380495071411133,
				-0.20808163285255432,
				0.4675729274749756,
				0.7166494727134705
			],
			"scale":[
				0.9999998807907104,
				1,
				1
			],
			"translation":[
				4.0978193283081055e-08,
				0.6404168605804443,
				4.470348358154297e-08
			]
		},
		{
			"children":[
				12
			],
			"name":"L_Hip",
			"rotation":[
				0.5295042991638184,
				0.18905556201934814,
				-0.8230681419372559,
				0.0802629292011261
			],
			"scale":[
				0.9999988079071045,
				0.9999997615814209,
				0.9999993443489075
			],
			"translation":[
				0.33774444460868835,
				1.231300711631775,
				-0.028348982334136963
			]
		},
		{
			"name":"R_Foot",
			"rotation":[
				0.47380495071411133,
				0.20808163285255432,
				-0.4675729274749756,
				0.7166494727134705
			],
			"scale":[
				0.9999998807907104,
				1,
				1
			],
			"translation":[
				-4.0978193283081055e-08,
				0.6404168605804443,
				4.470348358154297e-08
			]
		},
		{
			"children":[
				14
			],
			"name":"R_Hip",
			"rotation":[
				0.5295042991638184,
				-0.18905556201934814,
				0.8230681419372559,
				0.0802629292011261
			],
			"scale":[
				0.9999988079071045,
				0.9999997615814209,
				0.9999993443489075
			],
			"translation":[
				-0.33774444460868835,
				1.231300711631775,
				-0.028348982334136963
			]
		},
		{
			"children":[
				11,
				13,
				15
			],
			"name":"Core"
		},
		{
			"mesh":0,
			"name":"Body",
			"skin":0
		},
		{
			"children":[
				16
			],
			"name":"Armature"
		}
	],
	"materials":[
		{
			"alphaMode":"BLEND",
			"doubleSided":true,
			"name":"Material",
			"pbrMetallicRoughness":{
				"baseColorTexture":{
					"index":0
				},
				"metallicFactor":0
			}
		}
	],
	"meshes":[
		{
			"extras":{
				"targetNames":[
					"Eye_Open",
					"Eye_Closed",
					"Eye_Confused",
					"Eye_Squint"
				]
			},
			"name":"Cube",
			"primitives":[
				{
					"attributes":{
						"POSITION":0,
						"NORMAL":1,
						"TEXCOORD_0":2,
						"COLOR_0":3,
						"COLOR_1":4,
						"JOINTS_0":5,
						"WEIGHTS_0":6
					},
					"indices":7,
					"material":0,
					"targets":[
						{
							"POSITION":8,
							"NORMAL":9
						},
						{
							"POSITION":10,
							"NORMAL":11
						},
						{
							"POSITION":12,
							"NORMAL":13
						},
						{
							"POSITION":14,
							"NORMAL":15
						}
					]
				}
			],
			"weights":[
				0,
				0,
				0,
				0
			]
		}
	],
	"textures":[
		{
			"sampler":0,
			"source":0
		}
	],
	"images":[
		{
			"mimeType":"image/png",
			"name":"Dusk_Base",
			"uri":"Dusk_Base.png"
		}
	],
	"skins":[
		{
			"inverseBindMatrices":16,
			"joints":[
				16,
				11,
				0,
				5,
				1,
				2,
				3,
				4,
				10,
				6,
				7,
				8,
				9,
				13,
				12,
				15,
				14
			],
			"name":"Armature"
		}
	],
	"accessors":[
		{
			"bufferView":0,
			"componentType":5126,
			"count":592,
			"max":[
				3.843533992767334,
				4.276943683624268,
				1.320728063583374
			],
			"min":[
				-3.843533992767334,
				0,
				-1.0000005960464478
			],
			"type":"VEC3"
		},
		{
			"bufferView":1,
			"componentType":5126,
			"count":592,
			"type":"VEC3"
		},
		{
			"bufferView":2,
			"componentType":5126,
			"count":592,
			"type":"VEC2"
		},
		{
			"bufferView":3,
			"componentType":5121,
			"count":592,
			"normalized":true,
			"type":"VEC4"
		},
		{
			"bufferView":4,
			"componentType":5123,
			"count":592,
			"normalized":true,
			"type":"VEC4"
		},
		{
			"bufferView":5,
			"componentType":5121,
			"count":592,
			"type":"VEC4"
		},
		{
			"bufferView":6,
			"componentType":5126,
			"count":592,
			"type":"VEC4"
		},
		{
			"bufferView":7,
			"componentType":5123,
			"count":924,
			"type":"SCALAR"
		},
		{
			"componentType":5126,
			"count":592,
			"max":[
				2.384185791015625e-07,
				0,
				0.3754534125328064
			],
			"min":[
				0,
				0,
				0
			],
			"sparse":{
				"count":4,
				"indices":{
					"bufferView":8,
					"componentType":5123
				},
				"values":{
					"bufferView":9
				}
			},
			"type":"VEC3"
		},
		{
			"componentType":5126,
			"count":592,
			"sparse":{
				"count":56,
				"indices":{
					"bufferView":10,
					"componentType":5123
				},
				"values":{
					"bufferView":11
				}
			},
			"type":"VEC3"
		},
		{
			"componentType":5126,
			"count":592,
			"max":[
				0,
				0,
				0.3754526972770691
			],
			"min":[
				0,
				0,
				0
			],
			"sparse":{
				"count":4,
				"indices":{
					"bufferView":12,
					"componentType":5123
				},
				"values":{
					"bufferView":13
				}
			},
			"type":"VEC3"
		},
		{
			"componentType":5126,
			"count":592,
			"sparse":{
				"count":56,
				"indices":{
					"bufferView":14,
					"componentType":5123
				},
				"values":{
					"bufferView":15
				}
			},
			"type":"VEC3"
		},
		{
			"componentType":5126,
			"count":592,
			"max":[
				0,
				0,
				0.3754526972770691
			],
			"min":[
				0,
				-3.814697265625e-06,
				0
			],
			"sparse":{
				"count":4,
				"indices":{
					"bufferView":16,
					"componentType":5123
				},
				"values":{
					"bufferView":17
				}
			},
			"type":"VEC3"
		},
		{
			"componentType":5126,
			"count":592,
			"sparse":{
				"count":56,
				"indices":{
					"bufferView":18,
					"componentType":5123
				},
				"values":{
					"bufferView":19
				}
			},
			"type":"VEC3"
		},
		{
			"componentType":5126,
			"count":592,
			"max":[
				0,
				0,
				0.3754534125328064
			],
			"min":[
				0,
				0,
				0
			],
			"sparse":{
				"count":4,
				"indices":{
					"bufferView":20,
					"componentType":5123
				},
				"values":{
					"bufferView":21
				}
			},
			"type":"VEC3"
		},
		{
			"componentType":5126,
			"count":592,
			"sparse":{
				"count":56,
				"indices":{
					"bufferView":22,
					"componentType":5123
				},
				"values":{
					"bufferView":23
				}
			},
			"type":"VEC3"
		},
		{
			"bufferView":24,
			"componentType":5126,
			"count":17,
			"type":"MAT4"
		}
	],
	"bufferViews":[
		{
			"buffer":0,
			"byteLength":7104,
			"byteOffset":0,
			"target":34962
		},
		{
			"buffer":0,
			"byteLength":7104,
			"byteOffset":7104,
			"target":34962
		},
		{
			"buffer":0,
			"byteLength":4736,
			"byteOffset":14208,
			"target":34962
		},
		{
			"buffer":0,
			"byteLength":2368,
			"byteOffset":18944,
			"target":34962
		},
		{
			"buffer":0,
			"byteLength":4736,
			"byteOffset":21312,
			"target":34962
		},
		{
			"buffer":0,
			"byteLength":2368,
			"byteOffset":26048,
			"target":34962
		},
		{
			"buffer":0,
			"byteLength":9472,
			"byteOffset":28416,
			"target":34962
		},
		{
			"buffer":0,
			"byteLength":1848,
			"byteOffset":37888,
			"target":34963
		},
		{
			"buffer":0,
			"byteLength":8,
			"byteOffset":39736
		},
		{
			"buffer":0,
			"byteLength":48,
			"byteOffset":39744
		},
		{
			"buffer":0,
			"byteLength":112,
			"byteOffset":39792
		},
		{
			"buffer":0,
			"byteLength":672,
			"byteOffset":39904
		},
		{
			"buffer":0,
			"byteLength":8,
			"byteOffset":40576
		},
		{
			"buffer":0,
			"byteLength":48,
			"byteOffset":40584
		},
		{
			"buffer":0,
			"byteLength":112,
			"byteOffset":40632
		},
		{
			"buffer":0,
			"byteLength":672,
			"byteOffset":40744
		},
		{
			"buffer":0,
			"byteLength":8,
			"byteOffset":41416
		},
		{
			"buffer":0,
			"byteLength":48,
			"byteOffset":41424
		},
		{
			"buffer":0,
			"byteLength":112,
			"byteOffset":41472
		},
		{
			"buffer":0,
			"byteLength":672,
			"byteOffset":41584
		},
		{
			"buffer":0,
			"byteLength":8,
			"byteOffset":42256
		},
		{
			"buffer":0,
			"byteLength":48,
			"byteOffset":42264
		},
		{
			"buffer":0,
			"byteLength":112,
			"byteOffset":42312
		},
		{
			"buffer":0,
			"byteLength":672,
			"byteOffset":42424
		},
		{
			"buffer":0,
			"byteLength":1088,
			"byteOffset":43096
		}
	],
	"samplers":[
		{
			"magFilter":9728,
			"minFilter":9984
		}
	],
	"buffers":[
		{
			"byteLength":44184,
			"uri":"Cubiix_Base_MK4_Core.bin"
		}
	]
}
