{
	"asset":{
		"generator":"Khronos glTF Blender I/O v4.5.49",
		"version":"2.0"
	},
	"scene":0,
	"scenes":[
		{
			"name":"Scene",
			"nodes":[
				17,
				18
			]
		}
	],
	"nodes":[
		{
			"name":"Head",
			"rotation":[
				2.4526687525394664e-07,
				-1.725542504047599e-33,
				5.847617989872614e-14,
				1
			],
			"translation":[
				0,
				1.2150976657867432,
				0
			]
		},
		{
			"name":"L_Middle",
			"rotation":[
				0.0033043466974049807,
				0.00041505758417770267,
				0.031006023287773132,
				0.9995136857032776
			],
			"scale":[
				1,
				0.9999999403953552,
				1
			],
			"translation":[
				0.023951606824994087,
				1.2838327884674072,
				-0.009160728193819523
			]
		},
		{
			"name":"L_Pinky",
			"rotation":[
				-0.035932641476392746,
				0.007983009330928326,
				0.026332689449191093,
				0.9989753365516663
			],
			"scale":[
				0.9999999403953552,
				1,
				0.9999998807907104
			],
			"translation":[
				0.007292056456208229,
				1.154192566871643,
				-0.47512301802635193
			]
		},
		{
			"name":"L_Pointer",
			"rotation":[
				0.07730183005332947,
				0.0008436543866991997,
				0.029930634424090385,
				0.9965580105781555
			],
			"scale":[
				1,
				0.9999998807907104,
				1.0000001192092896
			],
			"translation":[
				0.034266047179698944,
				1.1983733177185059,
				0.4287821352481842
			]
		},
		{
			"name":"L_Thumb",
			"rotation":[
				0.649800181388855,
				0.02228824980556965,
				0.03899030387401581,
				0.7587772011756897
			],
			"scale":[
				0.9999999403953552,
				0.9999999403953552,
				0.9999999403953552
			],
			"translation":[
				0.03555978834629059,
				0.3608853220939636,
				0.7709488272666931
			]
		},
		{
			"children":[
				1,
				2,
				3,
				4
			],
			"name":"L_Hand",
			"rotation":[
				-0.00791301392018795,
				-0.007912672124803066,
				-0.7070624828338623,
				0.7070624828338623
			],
			"translation":[
				1.9658445119857788,
				0.5408655405044556,
				-0.037716347724199295
			]
		},
		{
			"name":"R_Middle",
			"rotation":[
				0.0033043462317436934,
				-0.0004150576132815331,
				-0.031006023287773132,
				0.9995136857032776
			],
			"scale":[
				1,
				0.9999999403953552,
				1
			],
			"translation":[
				-0.023951604962348938,
				1.2838327884674072,
				-0.009160726331174374
			]
		},
		{
			"name":"R_Pinky",
			"rotation":[
				-0.035932693630456924,
				-0.007983009330928326,
				-0.026332689449191093,
				0.9989753365516663
			],
			"scale":[
				0.9999999403953552,
				1,
				0.9999998807907104
			],
			"translation":[
				-0.007292056456208229,
				1.154192566871643,
				-0.47512301802635193
			]
		},
		{
			"name":"R_Pointer",
			"rotation":[
				0.07730183005332947,
				-0.0008436543866991997,
				-0.029930634424090385,
				0.9965580105781555
			],
			"scale":[
				1,
				0.9999998807907104,
				1.0000001192092896
			],
			"translation":[
				-0.034266047179698944,
				1.1983733177185059,
				0.4287821352481842
			]
		},
		{
			"name":"R_Thumb",
			"rotation":[
				0.649800181388855,
				-0.02228824980556965,
				-0.03899030387401581,
				0.7587772011756897
			],
			"scale":[
				0.9999999403953552,
				0.9999999403953552,
				0.9999999403953552
			],
			"translation":[
				-0.03555978834629059,
				0.3608853220939636,
				0.7709488272666931
			]
		},
		{
			"children":[
				6,
				7,
				8,
				9
			],
			"name":"R_Hand",
			"rotation":[
				-0.007913182489573956,
				0.00791250355541706,
				0.7070624828338623,
				0.7070624828338623
			],
			"translation":[
				-1.9658445119857788,
				0.5408655405044556,
				-0.03771728649735451
			]
		},
		{
			"children":[
				0,
				5,
				10
			],
			"name":"Chest",
			"rotation":[
				-2.4526687525394664e-07,
				1.1920928955078125e-07,
				-2.923808994936307e-14,
				1
			],
			"translation":[
				0,
				1,
				0
			]
		},
		{
			"name":"L_Foot",
			"rotation":[
				0.47380495071411133,
				-0.20808163285255432,
				0.4675729274749756,
				0.7166494727134705
			],
			"scale":[
				0.9999998807907104,
				1,
				1
			],
			"translation":[
				4.0978193283081055e-08,
				0.6404168605804443,
				4.470348358154297e-08
			]
		},
		{
			"children":[
				12
			],
			"name":"L_Hip",
			"rotation":[
				0.5295042991638184,
				0.18905556201934814,
				-0.8230681419372559,
				0.0802629292011261
			],
			"scale":[
				0.9999988079071045,
				0.9999997615814209,
				0.9999993443489075
			],
			"translation":[
				0.33774444460868835,
				1.231300711631775,
				-0.028348982334136963
			]
		},
		{
			"name":"R_Foot",
			"rotation":[
				0.47380495071411133,
				0.20808163285255432,
				-0.4675729274749756,
				0.7166494727134705
			],
			"scale":[
				0.9999998807907104,
				1,
				1
			],
			"translation":[
				-4.0978193283081055e-08,
				0.6404168605804443,
				4.470348358154297e-08
			]
		},
		{
			"children":[
				14
			],
			"name":"R_Hip",
			"rotation":[
				0.5295042991638184,
				-0.18905556201934814,
				0.8230681419372559,
				0.0802629292011261
			],
			"scale":[
				0.9999988079071045,
				0.9999997615814209,
				0.9999993443489075
			],
			"translation":[
				-0.33774444460868835,
				1.231300711631775,
				-0.028348982334136963
			]
		},
		{
			"children":[
				11,
				13,
				15
			],
			"name":"Core"
		},
		{
			"children":[
				16
			],
			"name":"Armature"
		},
		{
			"mesh":0,
			"name":"Extras_2",
			"skin":0
		}
	],
	"materials":[
		{
			"alphaMode":"BLEND",
			"doubleSided":true,
			"name":"BodyGrid",
			"pbrMetallicRoughness":{
				"baseColorFactor":[
					0.800000011920929,
					0.800000011920929,
					0.800000011920929,
					1
				],
				"metallicFactor":0
			}
		}
	],
	"meshes":[
		{
			"name":"Cube.005",
			"primitives":[
				{
					"attributes":{
						"POSITION":0,
						"NORMAL":1,
						"TEXCOORD_0":2,
						"JOINTS_0":3,
						"WEIGHTS_0":4
					},
					"indices":5,
					"material":0
				}
			]
		}
	],
	"skins":[
		{
			"inverseBindMatrices":6,
			"joints":[
				16,
				11,
				0,
				5,
				1,
				2,
				3,
				4,
				10,
				6,
				7,
				8,
				9,
				13,
				12,
				15,
				14
			],
			"name":"Armature"
		}
	],
	"accessors":[
		{
			"bufferView":0,
			"componentType":5126,
			"count":4,
			"max":[
				0,
				6.180539608001709,
				0.175650954246521
			],
			"min":[
				0,
				3.8411412239074707,
				-2.163747787475586
			],
			"type":"VEC3"
		},
		{
			"bufferView":1,
			"componentType":5126,
			"count":4,
			"type":"VEC3"
		},
		{
			"bufferView":2,
			"componentType":5126,
			"count":4,
			"type":"VEC2"
		},
		{
			"bufferView":3,
			"componentType":5121,
			"count":4,
			"type":"VEC4"
		},
		{
			"bufferView":4,
			"componentType":5126,
			"count":4,
			"type":"VEC4"
		},
		{
			"bufferView":5,
			"componentType":5123,
			"count":6,
			"type":"SCALAR"
		},
		{
			"bufferView":6,
			"componentType":5126,
			"count":17,
			"type":"MAT4"
		}
	],
	"bufferViews":[
		{
			"buffer":0,
			"byteLength":48,
			"byteOffset":0,
			"target":34962
		},
		{
			"buffer":0,
			"byteLength":48,
			"byteOffset":48,
			"target":34962
		},
		{
			"buffer":0,
			"byteLength":32,
			"byteOffset":96,
			"target":34962
		},
		{
			"buffer":0,
			"byteLength":16,
			"byteOffset":128,
			"target":34962
		},
		{
			"buffer":0,
			"byteLength":64,
			"byteOffset":144,
			"target":34962
		},
		{
			"buffer":0,
			"byteLength":12,
			"byteOffset":208,
			"target":34963
		},
		{
			"buffer":0,
			"byteLength":1088,
			"byteOffset":220
		}
	],
	"buffers":[
		{
			"byteLength":1308,
			"uri":"Cubiix_Base_MK4_Extras_2.bin"
		}
	]
}
