{
	"asset":{
		"generator":"Khronos glTF Blender I/O v4.0.43",
		"version":"2.0"
	},
	"scene":0,
	"scenes":[
		{
			"name":"Scene",
			"nodes":[
				0
			]
		}
	],
	"nodes":[
		{
			"mesh":0,
			"name":"Airboat"
		}
	],
	"materials":[
		{
			"doubleSided":true,
			"emissiveFactor":[
				1,
				1,
				1
			],
			"emissiveTexture":{
				"index":0
			},
			"name":"Material.005",
			"pbrMetallicRoughness":{
				"baseColorTexture":{
					"index":1
				},
				"metallicFactor":0
			}
		}
	],
	"meshes":[
		{
			"name":"Circle.007",
			"primitives":[
				{
					"attributes":{
						"POSITION":0,
						"NORMAL":1,
						"TEXCOORD_0":2
					},
					"indices":3,
					"material":0
				}
			]
		}
	],
	"textures":[
		{
			"sampler":0,
			"source":0
		},
		{
			"sampler":0,
			"source":0
		}
	],
	"images":[
		{
			"mimeType":"image/png",
			"name":"Color_Palette",
			"uri":"Color_Palette.png"
		}
	],
	"accessors":[
		{
			"bufferView":0,
			"componentType":5126,
			"count":1727,
			"max":[
				4.062978744506836,
				6.441529750823975,
				5.185981273651123
			],
			"min":[
				-4.062978744506836,
				-0.436225950717926,
				-4.860006332397461
			],
			"type":"VEC3"
		},
		{
			"bufferView":1,
			"componentType":5126,
			"count":1727,
			"type":"VEC3"
		},
		{
			"bufferView":2,
			"componentType":5126,
			"count":1727,
			"type":"VEC2"
		},
		{
			"bufferView":3,
			"componentType":5123,
			"count":3468,
			"type":"SCALAR"
		}
	],
	"bufferViews":[
		{
			"buffer":0,
			"byteLength":20724,
			"byteOffset":0,
			"target":34962
		},
		{
			"buffer":0,
			"byteLength":20724,
			"byteOffset":20724,
			"target":34962
		},
		{
			"buffer":0,
			"byteLength":13816,
			"byteOffset":41448,
			"target":34962
		},
		{
			"buffer":0,
			"byteLength":6936,
			"byteOffset":55264,
			"target":34963
		}
	],
	"samplers":[
		{
			"magFilter":9728,
			"minFilter":9984
		}
	],
	"buffers":[
		{
			"byteLength":62200,
			"uri":"Airboat2.bin"
		}
	]
}
