{
	"asset":{
		"generator":"Khronos glTF Blender I/O v4.0.43",
		"version":"2.0"
	},
	"scene":0,
	"scenes":[
		{
			"name":"Scene",
			"nodes":[
				0,
				1,
				2,
				3,
				4,
				5,
				6,
				7,
				8,
				9,
				10,
				11,
				12,
				13,
				14
			]
		}
	],
	"nodes":[
		{
			"mesh":0,
			"name":"Center",
			"translation":[
				54.86897277832031,
				-1.107712984085083,
				16.508777618408203
			]
		},
		{
			"mesh":1,
			"name":"Grass_Layer",
			"translation":[
				-7.3948869705200195,
				-2.6488492488861084,
				-11.501888275146484
			]
		},
		{
			"mesh":2,
			"name":"Icosphere.001",
			"translation":[
				-7.3948869705200195,
				-2.6488492488861084,
				-11.501888275146484
			]
		},
		{
			"mesh":3,
			"name":"Icosphere.002",
			"translation":[
				-7.3948869705200195,
				-2.6488492488861084,
				-11.501888275146484
			]
		},
		{
			"mesh":4,
			"name":"Palm_Trees"
		},
		{
			"mesh":5,
			"name":"Plane",
			"translation":[
				54.86897277832031,
				-1.107712984085083,
				16.508777618408203
			]
		},
		{
			"mesh":6,
			"name":"Board",
			"rotation":[
				0,
				0.23816464841365814,
				0,
				0.9712247848510742
			],
			"scale":[
				0.7512633800506592,
				0.7512633800506592,
				0.7512633800506592
			],
			"translation":[
				-9.36622428894043,
				5.026785850524902,
				7.680514812469482
			]
		},
		{
			"mesh":7,
			"name":"StonePath"
		},
		{
			"mesh":8,
			"name":"Big_Sand",
			"translation":[
				0,
				-2.622361183166504,
				-372.8140869140625
			]
		},
		{
			"mesh":9,
			"name":"Big_Grass",
			"translation":[
				0,
				-2.622361183166504,
				-372.8140869140625
			]
		},
		{
			"mesh":10,
			"name":"Big_Dirt",
			"translation":[
				0,
				-2.622361183166504,
				-372.8140869140625
			]
		},
		{
			"mesh":11,
			"name":"Grass_Layer_2",
			"translation":[
				0,
				-2.622361183166504,
				-372.8140869140625
			]
		},
		{
			"mesh":12,
			"name":"Pillar_1",
			"translation":[
				218.9294891357422,
				14.496567726135254,
				-90.27095794677734
			]
		},
		{
			"mesh":13,
			"name":"Pillar_2",
			"translation":[
				-204.46018981933594,
				17.54831886291504,
				-142.73294067382812
			]
		},
		{
			"mesh":14,
			"name":"Pillar_3",
			"scale":[
				1.2105156183242798,
				1.2105156183242798,
				1.2105156183242798
			],
			"translation":[
				101.70915222167969,
				11.839940071105957,
				-623.25244140625
			]
		}
	],
	"materials":[
		{
			"alphaCutoff":0.5,
			"alphaMode":"MASK",
			"doubleSided":true,
			"name":"Material",
			"pbrMetallicRoughness":{
				"baseColorTexture":{
					"index":0
				},
				"metallicFactor":0
			}
		},
		{
			"doubleSided":true,
			"name":"Material.002",
			"pbrMetallicRoughness":{
				"baseColorFactor":[
					0.038800038397312164,
					0.8000074625015259,
					0.04516932740807533,
					1
				],
				"metallicFactor":0,
				"roughnessFactor":0.5
			}
		},
		{
			"doubleSided":true,
			"name":"Material.001",
			"pbrMetallicRoughness":{
				"baseColorFactor":[
					0.7752482295036316,
					0.8001194596290588,
					0.24603521823883057,
					1
				],
				"metallicFactor":0,
				"roughnessFactor":0.5
			}
		},
		{
			"alphaCutoff":0.5,
			"alphaMode":"MASK",
			"doubleSided":true,
			"name":"Material.003",
			"pbrMetallicRoughness":{
				"baseColorTexture":{
					"index":1
				},
				"metallicFactor":0,
				"roughnessFactor":0.5
			}
		},
		{
			"doubleSided":true,
			"name":"Material.004",
			"pbrMetallicRoughness":{
				"baseColorFactor":[
					0.43832606077194214,
					0.43832606077194214,
					0.43832606077194214,
					1
				],
				"metallicFactor":0,
				"roughnessFactor":0.5
			}
		},
		{
			"doubleSided":true,
			"name":"Material.005",
			"pbrMetallicRoughness":{
				"baseColorFactor":[
					0.1743464469909668,
					0.05836869031190872,
					0.01992364227771759,
					1
				],
				"metallicFactor":0,
				"roughnessFactor":0.5
			}
		}
	],
	"meshes":[
		{
			"name":"Plane.002",
			"primitives":[
				{
					"attributes":{
						"POSITION":0,
						"NORMAL":1,
						"TEXCOORD_0":2
					},
					"indices":3,
					"material":0
				}
			]
		},
		{
			"name":"Icosphere.004",
			"primitives":[
				{
					"attributes":{
						"POSITION":4,
						"NORMAL":5,
						"TEXCOORD_0":6
					},
					"indices":7,
					"material":1
				}
			]
		},
		{
			"name":"Icosphere.001",
			"primitives":[
				{
					"attributes":{
						"POSITION":8,
						"NORMAL":9,
						"TEXCOORD_0":10
					},
					"indices":11,
					"material":2
				}
			]
		},
		{
			"name":"Icosphere.002",
			"primitives":[
				{
					"attributes":{
						"POSITION":12,
						"NORMAL":13,
						"TEXCOORD_0":14
					},
					"indices":15,
					"material":1
				}
			]
		},
		{
			"name":"Plane",
			"primitives":[
				{
					"attributes":{
						"POSITION":16,
						"NORMAL":17,
						"TEXCOORD_0":18
					},
					"indices":19,
					"material":3
				}
			]
		},
		{
			"name":"Plane.001",
			"primitives":[
				{
					"attributes":{
						"POSITION":20,
						"NORMAL":21,
						"TEXCOORD_0":22
					},
					"indices":23,
					"material":0
				}
			]
		},
		{
			"name":"Plane.003",
			"primitives":[
				{
					"attributes":{
						"POSITION":24,
						"NORMAL":25,
						"TEXCOORD_0":26
					},
					"indices":27,
					"material":0
				}
			]
		},
		{
			"name":"Cube",
			"primitives":[
				{
					"attributes":{
						"POSITION":28,
						"NORMAL":29,
						"TEXCOORD_0":30
					},
					"indices":31,
					"material":4
				}
			]
		},
		{
			"name":"Circle.005",
			"primitives":[
				{
					"attributes":{
						"POSITION":32,
						"NORMAL":33,
						"TEXCOORD_0":34
					},
					"indices":35,
					"material":2
				}
			]
		},
		{
			"name":"Circle.013",
			"primitives":[
				{
					"attributes":{
						"POSITION":36,
						"NORMAL":37,
						"TEXCOORD_0":38
					},
					"indices":39,
					"material":1
				}
			]
		},
		{
			"name":"Circle.014",
			"primitives":[
				{
					"attributes":{
						"POSITION":40,
						"NORMAL":41,
						"TEXCOORD_0":42
					},
					"indices":43,
					"material":5
				}
			]
		},
		{
			"name":"Circle.015",
			"primitives":[
				{
					"attributes":{
						"POSITION":44,
						"NORMAL":45,
						"TEXCOORD_0":46
					},
					"indices":47,
					"material":1
				}
			]
		},
		{
			"name":"Cube.001",
			"primitives":[
				{
					"attributes":{
						"POSITION":48,
						"NORMAL":49,
						"TEXCOORD_0":50
					},
					"indices":51,
					"material":4
				}
			]
		},
		{
			"name":"Cube.004",
			"primitives":[
				{
					"attributes":{
						"POSITION":52,
						"NORMAL":53,
						"TEXCOORD_0":54
					},
					"indices":55,
					"material":4
				}
			]
		},
		{
			"name":"Cube.005",
			"primitives":[
				{
					"attributes":{
						"POSITION":56,
						"NORMAL":57,
						"TEXCOORD_0":58
					},
					"indices":59,
					"material":4
				}
			]
		}
	],
	"textures":[
		{
			"sampler":0,
			"source":0
		},
		{
			"sampler":0,
			"source":1
		}
	],
	"images":[
		{
			"mimeType":"image/png",
			"name":"Hut_Test",
			"uri":"Hut_Test.png"
		},
		{
			"mimeType":"image/png",
			"name":"BackingObjects",
			"uri":"BackingObjects.png"
		}
	],
	"accessors":[
		{
			"bufferView":0,
			"componentType":5126,
			"count":64,
			"max":[
				-33.6828727722168,
				2.3754284381866455,
				29.310035705566406
			],
			"min":[
				-63.6828727722168,
				0.76285320520401,
				-0.6899628639221191
			],
			"type":"VEC3"
		},
		{
			"bufferView":1,
			"componentType":5126,
			"count":64,
			"type":"VEC3"
		},
		{
			"bufferView":2,
			"componentType":5126,
			"count":64,
			"type":"VEC2"
		},
		{
			"bufferView":3,
			"componentType":5123,
			"count":96,
			"type":"SCALAR"
		},
		{
			"bufferView":4,
			"componentType":5126,
			"count":219,
			"max":[
				117.26763153076172,
				9.675010681152344,
				101.02415466308594
			],
			"min":[
				-165.2709197998047,
				1.0476685762405396,
				-82.35497283935547
			],
			"type":"VEC3"
		},
		{
			"bufferView":5,
			"componentType":5126,
			"count":219,
			"type":"VEC3"
		},
		{
			"bufferView":6,
			"componentType":5126,
			"count":219,
			"type":"VEC2"
		},
		{
			"bufferView":7,
			"componentType":5123,
			"count":219,
			"type":"SCALAR"
		},
		{
			"bufferView":8,
			"componentType":5126,
			"count":219,
			"max":[
				136.36631774902344,
				8.482306480407715,
				139.42254638671875
			],
			"min":[
				-201.56454467773438,
				-16.457427978515625,
				-115.86001586914062
			],
			"type":"VEC3"
		},
		{
			"bufferView":9,
			"componentType":5126,
			"count":219,
			"type":"VEC3"
		},
		{
			"bufferView":10,
			"componentType":5126,
			"count":219,
			"type":"VEC2"
		},
		{
			"bufferView":11,
			"componentType":5123,
			"count":591,
			"type":"SCALAR"
		},
		{
			"bufferView":12,
			"componentType":5126,
			"count":125,
			"max":[
				119.80664825439453,
				10.27756404876709,
				105.9991455078125
			],
			"min":[
				-169.30548095703125,
				1.0476685762405396,
				-87.34169006347656
			],
			"type":"VEC3"
		},
		{
			"bufferView":13,
			"componentType":5126,
			"count":125,
			"type":"VEC3"
		},
		{
			"bufferView":14,
			"componentType":5126,
			"count":125,
			"type":"VEC2"
		},
		{
			"bufferView":15,
			"componentType":5123,
			"count":309,
			"type":"SCALAR"
		},
		{
			"bufferView":16,
			"componentType":5126,
			"count":930,
			"max":[
				63.08258819580078,
				21.82897186279297,
				82.45710754394531
			],
			"min":[
				-68.87559509277344,
				-3.432785987854004,
				-20.27558135986328
			],
			"type":"VEC3"
		},
		{
			"bufferView":17,
			"componentType":5126,
			"count":930,
			"type":"VEC3"
		},
		{
			"bufferView":18,
			"componentType":5126,
			"count":930,
			"type":"VEC2"
		},
		{
			"bufferView":19,
			"componentType":5123,
			"count":1512,
			"type":"SCALAR"
		},
		{
			"bufferView":20,
			"componentType":5126,
			"count":1312,
			"max":[
				68.41275024414062,
				16.949817657470703,
				51.099971771240234
			],
			"min":[
				-22.19446563720703,
				-10.853105545043945,
				-32.50861358642578
			],
			"type":"VEC3"
		},
		{
			"bufferView":21,
			"componentType":5126,
			"count":1312,
			"type":"VEC3"
		},
		{
			"bufferView":22,
			"componentType":5126,
			"count":1312,
			"type":"VEC2"
		},
		{
			"bufferView":23,
			"componentType":5123,
			"count":2313,
			"type":"SCALAR"
		},
		{
			"bufferView":24,
			"componentType":5126,
			"count":230,
			"max":[
				8.442259788513184,
				7.756222724914551,
				5.222026824951172
			],
			"min":[
				-8.442259788513184,
				-7.158603668212891,
				-5.222026824951172
			],
			"type":"VEC3"
		},
		{
			"bufferView":25,
			"componentType":5126,
			"count":230,
			"type":"VEC3"
		},
		{
			"bufferView":26,
			"componentType":5126,
			"count":230,
			"type":"VEC2"
		},
		{
			"bufferView":27,
			"componentType":5123,
			"count":414,
			"type":"SCALAR"
		},
		{
			"bufferView":28,
			"componentType":5126,
			"count":473,
			"max":[
				2.8586204051971436,
				-0.585326075553894,
				-104.41847229003906
			],
			"min":[
				-16.238618850708008,
				-15.033195495605469,
				-186.4761199951172
			],
			"type":"VEC3"
		},
		{
			"bufferView":29,
			"componentType":5126,
			"count":473,
			"type":"VEC3"
		},
		{
			"bufferView":30,
			"componentType":5126,
			"count":473,
			"type":"VEC2"
		},
		{
			"bufferView":31,
			"componentType":5123,
			"count":840,
			"type":"SCALAR"
		},
		{
			"bufferView":32,
			"componentType":5126,
			"count":168,
			"max":[
				152.16189575195312,
				2.6790521144866943,
				202.85150146484375
			],
			"min":[
				-219.25836181640625,
				-29.3080997467041,
				-246.27633666992188
			],
			"type":"VEC3"
		},
		{
			"bufferView":33,
			"componentType":5126,
			"count":168,
			"type":"VEC3"
		},
		{
			"bufferView":34,
			"componentType":5126,
			"count":168,
			"type":"VEC2"
		},
		{
			"bufferView":35,
			"componentType":5123,
			"count":360,
			"type":"SCALAR"
		},
		{
			"bufferView":36,
			"componentType":5126,
			"count":349,
			"max":[
				270.92669677734375,
				15.692523956298828,
				186.81512451171875
			],
			"min":[
				-165.773193359375,
				-1.965639591217041,
				-194.35980224609375
			],
			"type":"VEC3"
		},
		{
			"bufferView":37,
			"componentType":5126,
			"count":349,
			"type":"VEC3"
		},
		{
			"bufferView":38,
			"componentType":5126,
			"count":349,
			"type":"VEC2"
		},
		{
			"bufferView":39,
			"componentType":5123,
			"count":1134,
			"type":"SCALAR"
		},
		{
			"bufferView":40,
			"componentType":5126,
			"count":668,
			"max":[
				293.427978515625,
				15.692523956298828,
				217.40379333496094
			],
			"min":[
				-164.79617309570312,
				-25.737895965576172,
				-199.3975372314453
			],
			"type":"VEC3"
		},
		{
			"bufferView":41,
			"componentType":5126,
			"count":668,
			"type":"VEC3"
		},
		{
			"bufferView":42,
			"componentType":5126,
			"count":668,
			"type":"VEC2"
		},
		{
			"bufferView":43,
			"componentType":5123,
			"count":1260,
			"type":"SCALAR"
		},
		{
			"bufferView":44,
			"componentType":5126,
			"count":385,
			"max":[
				266.9223327636719,
				15.091650009155273,
				182.85072326660156
			],
			"min":[
				-161.73927307128906,
				-0.5877479314804077,
				-190.52268981933594
			],
			"type":"VEC3"
		},
		{
			"bufferView":45,
			"componentType":5126,
			"count":385,
			"type":"VEC3"
		},
		{
			"bufferView":46,
			"componentType":5126,
			"count":385,
			"type":"VEC2"
		},
		{
			"bufferView":47,
			"componentType":5123,
			"count":399,
			"type":"SCALAR"
		},
		{
			"bufferView":48,
			"componentType":5126,
			"count":272,
			"max":[
				9.298723220825195,
				60.604949951171875,
				16.291522979736328
			],
			"min":[
				-9.979148864746094,
				-39.105934143066406,
				-13.724616050720215
			],
			"type":"VEC3"
		},
		{
			"bufferView":49,
			"componentType":5126,
			"count":272,
			"type":"VEC3"
		},
		{
			"bufferView":50,
			"componentType":5126,
			"count":272,
			"type":"VEC2"
		},
		{
			"bufferView":51,
			"componentType":5123,
			"count":444,
			"type":"SCALAR"
		},
		{
			"bufferView":52,
			"componentType":5126,
			"count":272,
			"max":[
				12.07989501953125,
				73.36324310302734,
				16.613861083984375
			],
			"min":[
				-11.256271362304688,
				-47.338340759277344,
				-19.721145629882812
			],
			"type":"VEC3"
		},
		{
			"bufferView":53,
			"componentType":5126,
			"count":272,
			"type":"VEC3"
		},
		{
			"bufferView":54,
			"componentType":5126,
			"count":272,
			"type":"VEC2"
		},
		{
			"bufferView":55,
			"componentType":5123,
			"count":444,
			"type":"SCALAR"
		},
		{
			"bufferView":56,
			"componentType":5126,
			"count":504,
			"max":[
				31.03219223022461,
				65.32061004638672,
				30.19426155090332
			],
			"min":[
				-25.863876342773438,
				-74.79572296142578,
				-29.75626564025879
			],
			"type":"VEC3"
		},
		{
			"bufferView":57,
			"componentType":5126,
			"count":504,
			"type":"VEC3"
		},
		{
			"bufferView":58,
			"componentType":5126,
			"count":504,
			"type":"VEC2"
		},
		{
			"bufferView":59,
			"componentType":5123,
			"count":828,
			"type":"SCALAR"
		}
	],
	"bufferViews":[
		{
			"buffer":0,
			"byteLength":768,
			"byteOffset":0,
			"target":34962
		},
		{
			"buffer":0,
			"byteLength":768,
			"byteOffset":768,
			"target":34962
		},
		{
			"buffer":0,
			"byteLength":512,
			"byteOffset":1536,
			"target":34962
		},
		{
			"buffer":0,
			"byteLength":192,
			"byteOffset":2048,
			"target":34963
		},
		{
			"buffer":0,
			"byteLength":2628,
			"byteOffset":2240,
			"target":34962
		},
		{
			"buffer":0,
			"byteLength":2628,
			"byteOffset":4868,
			"target":34962
		},
		{
			"buffer":0,
			"byteLength":1752,
			"byteOffset":7496,
			"target":34962
		},
		{
			"buffer":0,
			"byteLength":438,
			"byteOffset":9248,
			"target":34963
		},
		{
			"buffer":0,
			"byteLength":2628,
			"byteOffset":9688,
			"target":34962
		},
		{
			"buffer":0,
			"byteLength":2628,
			"byteOffset":12316,
			"target":34962
		},
		{
			"buffer":0,
			"byteLength":1752,
			"byteOffset":14944,
			"target":34962
		},
		{
			"buffer":0,
			"byteLength":1182,
			"byteOffset":16696,
			"target":34963
		},
		{
			"buffer":0,
			"byteLength":1500,
			"byteOffset":17880,
			"target":34962
		},
		{
			"buffer":0,
			"byteLength":1500,
			"byteOffset":19380,
			"target":34962
		},
		{
			"buffer":0,
			"byteLength":1000,
			"byteOffset":20880,
			"target":34962
		},
		{
			"buffer":0,
			"byteLength":618,
			"byteOffset":21880,
			"target":34963
		},
		{
			"buffer":0,
			"byteLength":11160,
			"byteOffset":22500,
			"target":34962
		},
		{
			"buffer":0,
			"byteLength":11160,
			"byteOffset":33660,
			"target":34962
		},
		{
			"buffer":0,
			"byteLength":7440,
			"byteOffset":44820,
			"target":34962
		},
		{
			"buffer":0,
			"byteLength":3024,
			"byteOffset":52260,
			"target":34963
		},
		{
			"buffer":0,
			"byteLength":15744,
			"byteOffset":55284,
			"target":34962
		},
		{
			"buffer":0,
			"byteLength":15744,
			"byteOffset":71028,
			"target":34962
		},
		{
			"buffer":0,
			"byteLength":10496,
			"byteOffset":86772,
			"target":34962
		},
		{
			"buffer":0,
			"byteLength":4626,
			"byteOffset":97268,
			"target":34963
		},
		{
			"buffer":0,
			"byteLength":2760,
			"byteOffset":101896,
			"target":34962
		},
		{
			"buffer":0,
			"byteLength":2760,
			"byteOffset":104656,
			"target":34962
		},
		{
			"buffer":0,
			"byteLength":1840,
			"byteOffset":107416,
			"target":34962
		},
		{
			"buffer":0,
			"byteLength":828,
			"byteOffset":109256,
			"target":34963
		},
		{
			"buffer":0,
			"byteLength":5676,
			"byteOffset":110084,
			"target":34962
		},
		{
			"buffer":0,
			"byteLength":5676,
			"byteOffset":115760,
			"target":34962
		},
		{
			"buffer":0,
			"byteLength":3784,
			"byteOffset":121436,
			"target":34962
		},
		{
			"buffer":0,
			"byteLength":1680,
			"byteOffset":125220,
			"target":34963
		},
		{
			"buffer":0,
			"byteLength":2016,
			"byteOffset":126900,
			"target":34962
		},
		{
			"buffer":0,
			"byteLength":2016,
			"byteOffset":128916,
			"target":34962
		},
		{
			"buffer":0,
			"byteLength":1344,
			"byteOffset":130932,
			"target":34962
		},
		{
			"buffer":0,
			"byteLength":720,
			"byteOffset":132276,
			"target":34963
		},
		{
			"buffer":0,
			"byteLength":4188,
			"byteOffset":132996,
			"target":34962
		},
		{
			"buffer":0,
			"byteLength":4188,
			"byteOffset":137184,
			"target":34962
		},
		{
			"buffer":0,
			"byteLength":2792,
			"byteOffset":141372,
			"target":34962
		},
		{
			"buffer":0,
			"byteLength":2268,
			"byteOffset":144164,
			"target":34963
		},
		{
			"buffer":0,
			"byteLength":8016,
			"byteOffset":146432,
			"target":34962
		},
		{
			"buffer":0,
			"byteLength":8016,
			"byteOffset":154448,
			"target":34962
		},
		{
			"buffer":0,
			"byteLength":5344,
			"byteOffset":162464,
			"target":34962
		},
		{
			"buffer":0,
			"byteLength":2520,
			"byteOffset":167808,
			"target":34963
		},
		{
			"buffer":0,
			"byteLength":4620,
			"byteOffset":170328,
			"target":34962
		},
		{
			"buffer":0,
			"byteLength":4620,
			"byteOffset":174948,
			"target":34962
		},
		{
			"buffer":0,
			"byteLength":3080,
			"byteOffset":179568,
			"target":34962
		},
		{
			"buffer":0,
			"byteLength":798,
			"byteOffset":182648,
			"target":34963
		},
		{
			"buffer":0,
			"byteLength":3264,
			"byteOffset":183448,
			"target":34962
		},
		{
			"buffer":0,
			"byteLength":3264,
			"byteOffset":186712,
			"target":34962
		},
		{
			"buffer":0,
			"byteLength":2176,
			"byteOffset":189976,
			"target":34962
		},
		{
			"buffer":0,
			"byteLength":888,
			"byteOffset":192152,
			"target":34963
		},
		{
			"buffer":0,
			"byteLength":3264,
			"byteOffset":193040,
			"target":34962
		},
		{
			"buffer":0,
			"byteLength":3264,
			"byteOffset":196304,
			"target":34962
		},
		{
			"buffer":0,
			"byteLength":2176,
			"byteOffset":199568,
			"target":34962
		},
		{
			"buffer":0,
			"byteLength":888,
			"byteOffset":201744,
			"target":34963
		},
		{
			"buffer":0,
			"byteLength":6048,
			"byteOffset":202632,
			"target":34962
		},
		{
			"buffer":0,
			"byteLength":6048,
			"byteOffset":208680,
			"target":34962
		},
		{
			"buffer":0,
			"byteLength":4032,
			"byteOffset":214728,
			"target":34962
		},
		{
			"buffer":0,
			"byteLength":1656,
			"byteOffset":218760,
			"target":34963
		}
	],
	"samplers":[
		{
			"magFilter":9728,
			"minFilter":9984
		}
	],
	"buffers":[
		{
			"byteLength":220416,
			"uri":"HexstariaV2.bin"
		}
	]
}
