{
	"asset":{
		"generator":"Khronos glTF Blender I/O v4.0.43",
		"version":"2.0"
	},
	"scene":0,
	"scenes":[
		{
			"name":"Scene",
			"nodes":[
				0,
				1,
				2,
				3,
				4,
				5
			]
		}
	],
	"nodes":[
		{
			"mesh":0,
			"name":"Center",
			"translation":[
				54.86897277832031,
				-1.107712984085083,
				16.508777618408203
			]
		},
		{
			"mesh":1,
			"name":"Grass_Layer",
			"translation":[
				-7.3948869705200195,
				-2.6488492488861084,
				-11.501888275146484
			]
		},
		{
			"mesh":2,
			"name":"Icosphere.001",
			"translation":[
				-7.3948869705200195,
				-2.6488492488861084,
				-11.501888275146484
			]
		},
		{
			"mesh":3,
			"name":"Icosphere.002",
			"translation":[
				-7.3948869705200195,
				-2.6488492488861084,
				-11.501888275146484
			]
		},
		{
			"mesh":4,
			"name":"Palm_Trees"
		},
		{
			"mesh":5,
			"name":"Plane",
			"translation":[
				54.86897277832031,
				-1.107712984085083,
				16.508777618408203
			]
		}
	],
	"materials":[
		{
			"alphaCutoff":0.5,
			"alphaMode":"MASK",
			"doubleSided":true,
			"name":"Material",
			"pbrMetallicRoughness":{
				"baseColorTexture":{
					"index":0
				},
				"metallicFactor":0
			}
		},
		{
			"doubleSided":true,
			"name":"Material.002",
			"pbrMetallicRoughness":{
				"baseColorFactor":[
					0.038800038397312164,
					0.8000074625015259,
					0.04516932740807533,
					1
				],
				"metallicFactor":0,
				"roughnessFactor":0.5
			}
		},
		{
			"doubleSided":true,
			"name":"Material.001",
			"pbrMetallicRoughness":{
				"baseColorFactor":[
					0.7752482295036316,
					0.8001194596290588,
					0.24603521823883057,
					1
				],
				"metallicFactor":0,
				"roughnessFactor":0.5
			}
		},
		{
			"alphaCutoff":0.5,
			"alphaMode":"MASK",
			"doubleSided":true,
			"name":"Material.003",
			"pbrMetallicRoughness":{
				"baseColorTexture":{
					"index":1
				},
				"metallicFactor":0,
				"roughnessFactor":0.5
			}
		}
	],
	"meshes":[
		{
			"name":"Plane.002",
			"primitives":[
				{
					"attributes":{
						"POSITION":0,
						"NORMAL":1,
						"TEXCOORD_0":2
					},
					"indices":3,
					"material":0
				}
			]
		},
		{
			"name":"Icosphere.004",
			"primitives":[
				{
					"attributes":{
						"POSITION":4,
						"NORMAL":5,
						"TEXCOORD_0":6
					},
					"indices":7,
					"material":1
				}
			]
		},
		{
			"name":"Icosphere.001",
			"primitives":[
				{
					"attributes":{
						"POSITION":8,
						"NORMAL":9,
						"TEXCOORD_0":10
					},
					"indices":11,
					"material":2
				}
			]
		},
		{
			"name":"Icosphere.002",
			"primitives":[
				{
					"attributes":{
						"POSITION":12,
						"NORMAL":13,
						"TEXCOORD_0":14
					},
					"indices":15,
					"material":1
				}
			]
		},
		{
			"name":"Plane",
			"primitives":[
				{
					"attributes":{
						"POSITION":16,
						"NORMAL":17,
						"TEXCOORD_0":18
					},
					"indices":19,
					"material":3
				}
			]
		},
		{
			"name":"Plane.001",
			"primitives":[
				{
					"attributes":{
						"POSITION":20,
						"NORMAL":21,
						"TEXCOORD_0":22
					},
					"indices":23,
					"material":0
				}
			]
		}
	],
	"textures":[
		{
			"sampler":0,
			"source":0
		},
		{
			"sampler":0,
			"source":1
		}
	],
	"images":[
		{
			"mimeType":"image/png",
			"name":"Hut_Test",
			"uri":"Hut_Test.png"
		},
		{
			"mimeType":"image/png",
			"name":"BackingObjects",
			"uri":"BackingObjects.png"
		}
	],
	"accessors":[
		{
			"bufferView":0,
			"componentType":5126,
			"count":64,
			"max":[
				-33.6828727722168,
				2.3754284381866455,
				29.310035705566406
			],
			"min":[
				-63.6828727722168,
				0.76285320520401,
				-0.6899628639221191
			],
			"type":"VEC3"
		},
		{
			"bufferView":1,
			"componentType":5126,
			"count":64,
			"type":"VEC3"
		},
		{
			"bufferView":2,
			"componentType":5126,
			"count":64,
			"type":"VEC2"
		},
		{
			"bufferView":3,
			"componentType":5123,
			"count":96,
			"type":"SCALAR"
		},
		{
			"bufferView":4,
			"componentType":5126,
			"count":219,
			"max":[
				117.26763153076172,
				9.675010681152344,
				101.02415466308594
			],
			"min":[
				-165.2709197998047,
				1.0476685762405396,
				-82.35497283935547
			],
			"type":"VEC3"
		},
		{
			"bufferView":5,
			"componentType":5126,
			"count":219,
			"type":"VEC3"
		},
		{
			"bufferView":6,
			"componentType":5126,
			"count":219,
			"type":"VEC2"
		},
		{
			"bufferView":7,
			"componentType":5123,
			"count":219,
			"type":"SCALAR"
		},
		{
			"bufferView":8,
			"componentType":5126,
			"count":219,
			"max":[
				136.36631774902344,
				8.482306480407715,
				139.42254638671875
			],
			"min":[
				-201.56454467773438,
				-16.457427978515625,
				-115.86001586914062
			],
			"type":"VEC3"
		},
		{
			"bufferView":9,
			"componentType":5126,
			"count":219,
			"type":"VEC3"
		},
		{
			"bufferView":10,
			"componentType":5126,
			"count":219,
			"type":"VEC2"
		},
		{
			"bufferView":11,
			"componentType":5123,
			"count":591,
			"type":"SCALAR"
		},
		{
			"bufferView":12,
			"componentType":5126,
			"count":125,
			"max":[
				119.80664825439453,
				10.27756404876709,
				105.9991455078125
			],
			"min":[
				-169.30548095703125,
				1.0476685762405396,
				-87.34169006347656
			],
			"type":"VEC3"
		},
		{
			"bufferView":13,
			"componentType":5126,
			"count":125,
			"type":"VEC3"
		},
		{
			"bufferView":14,
			"componentType":5126,
			"count":125,
			"type":"VEC2"
		},
		{
			"bufferView":15,
			"componentType":5123,
			"count":309,
			"type":"SCALAR"
		},
		{
			"bufferView":16,
			"componentType":5126,
			"count":930,
			"max":[
				63.08258819580078,
				21.82897186279297,
				82.45710754394531
			],
			"min":[
				-68.87559509277344,
				-3.432785987854004,
				-20.27558135986328
			],
			"type":"VEC3"
		},
		{
			"bufferView":17,
			"componentType":5126,
			"count":930,
			"type":"VEC3"
		},
		{
			"bufferView":18,
			"componentType":5126,
			"count":930,
			"type":"VEC2"
		},
		{
			"bufferView":19,
			"componentType":5123,
			"count":1512,
			"type":"SCALAR"
		},
		{
			"bufferView":20,
			"componentType":5126,
			"count":1312,
			"max":[
				68.41275024414062,
				16.949817657470703,
				51.099971771240234
			],
			"min":[
				-22.19446563720703,
				-10.853105545043945,
				-32.50861358642578
			],
			"type":"VEC3"
		},
		{
			"bufferView":21,
			"componentType":5126,
			"count":1312,
			"type":"VEC3"
		},
		{
			"bufferView":22,
			"componentType":5126,
			"count":1312,
			"type":"VEC2"
		},
		{
			"bufferView":23,
			"componentType":5123,
			"count":2313,
			"type":"SCALAR"
		}
	],
	"bufferViews":[
		{
			"buffer":0,
			"byteLength":768,
			"byteOffset":0,
			"target":34962
		},
		{
			"buffer":0,
			"byteLength":768,
			"byteOffset":768,
			"target":34962
		},
		{
			"buffer":0,
			"byteLength":512,
			"byteOffset":1536,
			"target":34962
		},
		{
			"buffer":0,
			"byteLength":192,
			"byteOffset":2048,
			"target":34963
		},
		{
			"buffer":0,
			"byteLength":2628,
			"byteOffset":2240,
			"target":34962
		},
		{
			"buffer":0,
			"byteLength":2628,
			"byteOffset":4868,
			"target":34962
		},
		{
			"buffer":0,
			"byteLength":1752,
			"byteOffset":7496,
			"target":34962
		},
		{
			"buffer":0,
			"byteLength":438,
			"byteOffset":9248,
			"target":34963
		},
		{
			"buffer":0,
			"byteLength":2628,
			"byteOffset":9688,
			"target":34962
		},
		{
			"buffer":0,
			"byteLength":2628,
			"byteOffset":12316,
			"target":34962
		},
		{
			"buffer":0,
			"byteLength":1752,
			"byteOffset":14944,
			"target":34962
		},
		{
			"buffer":0,
			"byteLength":1182,
			"byteOffset":16696,
			"target":34963
		},
		{
			"buffer":0,
			"byteLength":1500,
			"byteOffset":17880,
			"target":34962
		},
		{
			"buffer":0,
			"byteLength":1500,
			"byteOffset":19380,
			"target":34962
		},
		{
			"buffer":0,
			"byteLength":1000,
			"byteOffset":20880,
			"target":34962
		},
		{
			"buffer":0,
			"byteLength":618,
			"byteOffset":21880,
			"target":34963
		},
		{
			"buffer":0,
			"byteLength":11160,
			"byteOffset":22500,
			"target":34962
		},
		{
			"buffer":0,
			"byteLength":11160,
			"byteOffset":33660,
			"target":34962
		},
		{
			"buffer":0,
			"byteLength":7440,
			"byteOffset":44820,
			"target":34962
		},
		{
			"buffer":0,
			"byteLength":3024,
			"byteOffset":52260,
			"target":34963
		},
		{
			"buffer":0,
			"byteLength":15744,
			"byteOffset":55284,
			"target":34962
		},
		{
			"buffer":0,
			"byteLength":15744,
			"byteOffset":71028,
			"target":34962
		},
		{
			"buffer":0,
			"byteLength":10496,
			"byteOffset":86772,
			"target":34962
		},
		{
			"buffer":0,
			"byteLength":4626,
			"byteOffset":97268,
			"target":34963
		}
	],
	"samplers":[
		{
			"magFilter":9728,
			"minFilter":9984
		}
	],
	"buffers":[
		{
			"byteLength":101896,
			"uri":"HexstariaV2.bin"
		}
	]
}
