{
	"asset":{
		"generator":"Khronos glTF Blender I/O v4.0.43",
		"version":"2.0"
	},
	"scene":0,
	"scenes":[
		{
			"name":"Scene",
			"nodes":[
				0
			]
		}
	],
	"nodes":[
		{
			"mesh":0,
			"name":"Cube",
			"translation":[
				130.7430877685547,
				-1.368765115737915,
				29.163227081298828
			]
		}
	],
	"meshes":[
		{
			"name":"Cube.003",
			"primitives":[
				{
					"attributes":{
						"POSITION":0,
						"NORMAL":1,
						"TEXCOORD_0":2
					},
					"indices":3
				}
			]
		}
	],
	"accessors":[
		{
			"bufferView":0,
			"componentType":5126,
			"count":371,
			"max":[
				5.882473945617676,
				6.474225997924805,
				15.136940956115723
			],
			"min":[
				-5.793617248535156,
				-5.058790683746338,
				-13.20423412322998
			],
			"type":"VEC3"
		},
		{
			"bufferView":1,
			"componentType":5126,
			"count":371,
			"type":"VEC3"
		},
		{
			"bufferView":2,
			"componentType":5126,
			"count":371,
			"type":"VEC2"
		},
		{
			"bufferView":3,
			"componentType":5123,
			"count":708,
			"type":"SCALAR"
		}
	],
	"bufferViews":[
		{
			"buffer":0,
			"byteLength":4452,
			"byteOffset":0,
			"target":34962
		},
		{
			"buffer":0,
			"byteLength":4452,
			"byteOffset":4452,
			"target":34962
		},
		{
			"buffer":0,
			"byteLength":2968,
			"byteOffset":8904,
			"target":34962
		},
		{
			"buffer":0,
			"byteLength":1416,
			"byteOffset":11872,
			"target":34963
		}
	],
	"buffers":[
		{
			"byteLength":13288,
			"uri":"Skim_Boat.bin"
		}
	]
}
