{
	"asset":{
		"generator":"Khronos glTF Blender I/O v4.0.43",
		"version":"2.0"
	},
	"scene":0,
	"scenes":[
		{
			"name":"Scene",
			"nodes":[
				31,
				32
			]
		}
	],
	"nodes":[
		{
			"name":"Jaw",
			"rotation":[
				0.20752845704555511,
				3.994959406144159e-14,
				-1.4843591600310901e-07,
				0.9782289862632751
			],
			"translation":[
				2.3739910659514862e-07,
				1.5294848680496216,
				0.3319074511528015
			]
		},
		{
			"children":[
				0
			],
			"name":"Head",
			"rotation":[
				0.1773289144039154,
				-1.326647396538566e-13,
				-1.2683551631198497e-07,
				0.9841516613960266
			],
			"scale":[
				1,
				0.9999999403953552,
				0.9999999403953552
			],
			"translation":[
				3.3314209680820883e-13,
				0.43892109394073486,
				1.1920928955078125e-07
			]
		},
		{
			"children":[
				1
			],
			"name":"Neck.002",
			"rotation":[
				0.0809551551938057,
				1.188183063050019e-07,
				-6.755423953563877e-08,
				0.9967178106307983
			],
			"scale":[
				1,
				0.9999999403953552,
				1
			],
			"translation":[
				-2.0410489433558138e-13,
				0.4127357006072998,
				0
			]
		},
		{
			"children":[
				2
			],
			"name":"Neck.001",
			"rotation":[
				-0.04517781361937523,
				-2.3817531769054767e-07,
				3.231371792367099e-08,
				0.9989789128303528
			],
			"translation":[
				-8.455272614872611e-14,
				0.6202782392501831,
				0
			]
		},
		{
			"children":[
				3
			],
			"name":"Neck",
			"rotation":[
				-0.007441026158630848,
				1.192057794696666e-07,
				4.4352073125253355e-09,
				0.9999723434448242
			],
			"translation":[
				-1.3809064297858747e-13,
				1.1404718160629272,
				-2.384185791015625e-07
			]
		},
		{
			"name":"Hand_L",
			"rotation":[
				0.012555721215903759,
				-0.04609457403421402,
				-0.06807492673397064,
				0.9965357184410095
			],
			"scale":[
				1,
				0.9999999403953552,
				0.9999999403953552
			],
			"translation":[
				1.7881393432617188e-07,
				1.1024342775344849,
				-1.1920928955078125e-07
			]
		},
		{
			"children":[
				5
			],
			"name":"ForeArm_L",
			"rotation":[
				0.6779014468193054,
				-0.012761875987052917,
				0.2289351373910904,
				0.6984809041023254
			],
			"translation":[
				-1.043081283569336e-07,
				0.9722635746002197,
				0
			]
		},
		{
			"children":[
				6
			],
			"name":"Arm_L",
			"rotation":[
				0.22148384153842926,
				0.09838751703500748,
				-0.21391472220420837,
				0.9463114142417908
			],
			"scale":[
				0.9999998807907104,
				1.0000001192092896,
				0.9999999403953552
			],
			"translation":[
				-1.1920928955078125e-07,
				1.2468637228012085,
				-2.9802322387695312e-08
			]
		},
		{
			"children":[
				7
			],
			"name":"Shoulder_L",
			"rotation":[
				0.03140663728117943,
				-0.113639697432518,
				-0.8885145783424377,
				0.4434428811073303
			],
			"scale":[
				0.9999997019767761,
				0.9999999403953552,
				1
			],
			"translation":[
				-1.3809064297858747e-13,
				1.1404718160629272,
				-2.384185791015625e-07
			]
		},
		{
			"name":"Hand_R",
			"rotation":[
				0.012555732391774654,
				0.04609459266066551,
				0.06807494163513184,
				0.9965357184410095
			],
			"scale":[
				0.9999999403953552,
				0.9999998211860657,
				0.9999999403953552
			],
			"translation":[
				0,
				1.1024335622787476,
				5.960464477539063e-08
			]
		},
		{
			"children":[
				9
			],
			"name":"ForeArm_R",
			"rotation":[
				0.6779014468193054,
				0.012761831283569336,
				-0.2289350926876068,
				0.6984809041023254
			],
			"scale":[
				1,
				0.9999999403953552,
				0.9999999403953552
			],
			"translation":[
				1.7136335372924805e-07,
				0.9722635746002197,
				-1.1920928955078125e-07
			]
		},
		{
			"children":[
				10
			],
			"name":"Arm_R",
			"rotation":[
				0.2214837670326233,
				-0.0983874574303627,
				0.21391478180885315,
				0.9463114142417908
			],
			"scale":[
				0.9999999403953552,
				0.9999999403953552,
				0.9999999403953552
			],
			"translation":[
				1.7881393432617188e-07,
				1.246863842010498,
				1.341104507446289e-07
			]
		},
		{
			"children":[
				11
			],
			"name":"Shoulder_R",
			"rotation":[
				0.031407300382852554,
				0.11364001780748367,
				0.888514518737793,
				0.44344279170036316
			],
			"scale":[
				0.9999998211860657,
				0.9999999403953552,
				1
			],
			"translation":[
				-1.3814155982311283e-13,
				1.1404718160629272,
				-2.384185791015625e-07
			]
		},
		{
			"children":[
				4,
				8,
				12
			],
			"name":"Chest",
			"rotation":[
				-0.21056579053401947,
				-3.4960959283125703e-07,
				7.530415047085626e-08,
				0.977579653263092
			],
			"scale":[
				1,
				0.9999998807907104,
				1
			],
			"translation":[
				-1.6543612251060553e-24,
				1.6024184226989746,
				-7.450580596923828e-09
			]
		},
		{
			"name":"Foot_L",
			"rotation":[
				0.07747045904397964,
				0.004409962799400091,
				0.1465204507112503,
				0.9861595630645752
			],
			"scale":[
				1,
				0.9999999403953552,
				0.9999999403953552
			],
			"translation":[
				1.4901161193847656e-08,
				1.6095671653747559,
				-2.9802322387695312e-08
			]
		},
		{
			"children":[
				14
			],
			"name":"Lower_Leg_L",
			"rotation":[
				0.44030439853668213,
				0.01835452765226364,
				0.7909018397331238,
				0.4245814383029938
			],
			"scale":[
				0.9999998807907104,
				0.9999999403953552,
				0.9999998211860657
			],
			"translation":[
				1.4901161193847656e-08,
				0.7162436842918396,
				-1.4901161193847656e-07
			]
		},
		{
			"children":[
				15
			],
			"name":"Mid_Leg_L",
			"rotation":[
				0.10437502712011337,
				2.484591732354602e-08,
				-0.04912414774298668,
				0.9933240413665771
			],
			"scale":[
				0.9999998807907104,
				0.9999998211860657,
				0.9999998807907104
			],
			"translation":[
				1.1175870895385742e-07,
				1.5891060829162598,
				1.4901161193847656e-08
			]
		},
		{
			"children":[
				16
			],
			"name":"Upper_Leg_L",
			"rotation":[
				-0.5326077938079834,
				0.031015852466225624,
				0.8419779539108276,
				0.08024972677230835
			],
			"scale":[
				1.0000001192092896,
				1,
				1
			],
			"translation":[
				1.3495852947235107,
				0.8351970314979553,
				0.963533878326416
			]
		},
		{
			"name":"Foot_R",
			"rotation":[
				0.07747045904397964,
				-0.004409962799400091,
				-0.1465204507112503,
				0.9861595630645752
			],
			"scale":[
				1,
				0.9999999403953552,
				0.9999999403953552
			],
			"translation":[
				-1.4901161193847656e-08,
				1.6095671653747559,
				-2.9802322387695312e-08
			]
		},
		{
			"children":[
				18
			],
			"name":"Lower_Leg_R",
			"rotation":[
				0.44030439853668213,
				-0.01835452765226364,
				-0.7909018397331238,
				0.4245814383029938
			],
			"scale":[
				0.9999998807907104,
				0.9999999403953552,
				0.9999998211860657
			],
			"translation":[
				-1.4901161193847656e-08,
				0.7162436842918396,
				-1.4901161193847656e-07
			]
		},
		{
			"children":[
				19
			],
			"name":"Mid_Leg_R",
			"rotation":[
				0.10437502712011337,
				-2.484591732354602e-08,
				0.04912414774298668,
				0.9933240413665771
			],
			"scale":[
				0.9999998807907104,
				0.9999998211860657,
				0.9999998807907104
			],
			"translation":[
				-1.1175870895385742e-07,
				1.5891060829162598,
				1.4901161193847656e-08
			]
		},
		{
			"children":[
				20
			],
			"name":"Upper_Leg_R",
			"rotation":[
				-0.5326077938079834,
				-0.031015852466225624,
				-0.8419779539108276,
				0.08024972677230835
			],
			"scale":[
				1.0000001192092896,
				1,
				1
			],
			"translation":[
				-1.3495852947235107,
				0.8351970314979553,
				0.963533878326416
			]
		},
		{
			"children":[
				13,
				17,
				21
			],
			"name":"Hips",
			"rotation":[
				0.6950775980949402,
				0,
				0,
				0.7189347147941589
			],
			"translation":[
				0,
				2.9759764671325684,
				0
			]
		},
		{
			"name":"Tail.006",
			"rotation":[
				0.08893618732690811,
				-1.1246774949373699e-31,
				-1.5083261723028116e-31,
				0.9960373044013977
			],
			"translation":[
				2.6500796034768365e-31,
				0.45133692026138306,
				1.1920928955078125e-07
			]
		},
		{
			"children":[
				23
			],
			"name":"Tail.005",
			"rotation":[
				0.0686693862080574,
				8.401466262140797e-25,
				-7.729007502726708e-24,
				0.9976394772529602
			],
			"scale":[
				1,
				0.9999999403953552,
				0.9999999403953552
			],
			"translation":[
				4.365579915320236e-25,
				0.43233931064605713,
				1.1920928955078125e-07
			]
		},
		{
			"children":[
				24
			],
			"name":"Tail.004",
			"rotation":[
				-0.07993362098932266,
				-7.527915715325586e-25,
				7.738003672489849e-24,
				0.9968001842498779
			],
			"translation":[
				1.6543612251060553e-24,
				0.503125011920929,
				-2.980232238769531e-07
			]
		},
		{
			"children":[
				25
			],
			"name":"Tail.003",
			"rotation":[
				-0.09682771563529968,
				1.1934936672588722e-32,
				-1.2268035037413295e-31,
				0.9953011870384216
			],
			"scale":[
				1,
				0.9999999403953552,
				1
			],
			"translation":[
				7.118237074455224e-31,
				0.6259297132492065,
				0
			]
		},
		{
			"children":[
				26
			],
			"name":"Tail.002",
			"rotation":[
				-0.11902185529470444,
				-4.220826876797013e-31,
				4.963378314866266e-24,
				0.9928916692733765
			],
			"scale":[
				1,
				1.0000001192092896,
				1
			],
			"translation":[
				-1.809405130709551e-24,
				0.6713998317718506,
				1.7881393432617188e-07
			]
		},
		{
			"children":[
				27
			],
			"name":"Tail.001",
			"rotation":[
				-0.05218362435698509,
				-9.057570751698296e-25,
				-5.379786826726682e-24,
				0.9986374974250793
			],
			"scale":[
				1,
				0.9999999403953552,
				0.9999999403953552
			],
			"translation":[
				5.005361886672581e-25,
				1.703753113746643,
				-1.7881393432617188e-07
			]
		},
		{
			"children":[
				28
			],
			"name":"Tail",
			"rotation":[
				-0.5760484933853149,
				3.4841590018612483e-25,
				3.484159248380281e-25,
				0.8174155354499817
			],
			"translation":[
				0,
				2.9759764671325684,
				0
			]
		},
		{
			"children":[
				22,
				29
			],
			"name":"Bone",
			"translation":[
				2.54572261595095e-17,
				0,
				0
			]
		},
		{
			"mesh":0,
			"name":"Plane",
			"skin":0
		},
		{
			"children":[
				30
			],
			"name":"Armature"
		}
	],
	"materials":[
		{
			"name":"Material",
			"pbrMetallicRoughness":{
				"metallicFactor":0
			}
		}
	],
	"meshes":[
		{
			"name":"Plane",
			"primitives":[
				{
					"attributes":{
						"POSITION":0,
						"NORMAL":1,
						"TEXCOORD_0":2,
						"JOINTS_0":3,
						"WEIGHTS_0":4
					},
					"indices":5,
					"material":0
				}
			]
		}
	],
	"skins":[
		{
			"inverseBindMatrices":6,
			"joints":[
				30,
				22,
				13,
				4,
				3,
				2,
				1,
				0,
				8,
				7,
				6,
				5,
				12,
				11,
				10,
				9,
				17,
				16,
				15,
				14,
				21,
				20,
				19,
				18,
				29,
				28,
				27,
				26,
				25,
				24,
				23
			],
			"name":"Armature"
		}
	],
	"accessors":[
		{
			"bufferView":0,
			"componentType":5126,
			"count":6099,
			"max":[
				1.9513704776763916,
				5.889902591705322,
				7.428781032562256
			],
			"min":[
				-1.9513704776763916,
				0.00755232572555542,
				-5.509509563446045
			],
			"type":"VEC3"
		},
		{
			"bufferView":1,
			"componentType":5126,
			"count":6099,
			"type":"VEC3"
		},
		{
			"bufferView":2,
			"componentType":5126,
			"count":6099,
			"type":"VEC2"
		},
		{
			"bufferView":3,
			"componentType":5121,
			"count":6099,
			"type":"VEC4"
		},
		{
			"bufferView":4,
			"componentType":5126,
			"count":6099,
			"type":"VEC4"
		},
		{
			"bufferView":5,
			"componentType":5123,
			"count":23424,
			"type":"SCALAR"
		},
		{
			"bufferView":6,
			"componentType":5126,
			"count":31,
			"type":"MAT4"
		}
	],
	"bufferViews":[
		{
			"buffer":0,
			"byteLength":73188,
			"byteOffset":0,
			"target":34962
		},
		{
			"buffer":0,
			"byteLength":73188,
			"byteOffset":73188,
			"target":34962
		},
		{
			"buffer":0,
			"byteLength":48792,
			"byteOffset":146376,
			"target":34962
		},
		{
			"buffer":0,
			"byteLength":24396,
			"byteOffset":195168,
			"target":34962
		},
		{
			"buffer":0,
			"byteLength":97584,
			"byteOffset":219564,
			"target":34962
		},
		{
			"buffer":0,
			"byteLength":46848,
			"byteOffset":317148,
			"target":34963
		},
		{
			"buffer":0,
			"byteLength":1984,
			"byteOffset":363996
		}
	],
	"buffers":[
		{
			"byteLength":365980,
			"uri":"Goo_Dino.bin"
		}
	]
}
