{
	"asset":{
		"generator":"Khronos glTF Blender I/O v4.5.49",
		"version":"2.0"
	},
	"scene":0,
	"scenes":[
		{
			"name":"Scene",
			"nodes":[
				0
			]
		}
	],
	"nodes":[
		{
			"mesh":0,
			"name":"Hexstaria_Map_Mesh"
		}
	],
	"materials":[
		{
			"doubleSided":true,
			"name":"Material.002"
		}
	],
	"meshes":[
		{
			"name":"Circle.001",
			"primitives":[
				{
					"attributes":{
						"POSITION":0,
						"NORMAL":1,
						"TEXCOORD_0":2
					},
					"indices":3,
					"material":0
				}
			]
		}
	],
	"images":[
		{
			"mimeType":"image/png",
			"name":"Dirt",
			"uri":"Dirt.png"
		},
		{
			"mimeType":"image/png",
			"name":"Grass",
			"uri":"Grass.png"
		},
		{
			"mimeType":"image/png",
			"name":"Hexstaria_Heightmap",
			"uri":"Hexstaria_Heightmap.png"
		},
		{
			"mimeType":"image/png",
			"name":"Sand",
			"uri":"Sand.png"
		},
		{
			"mimeType":"image/png",
			"name":"Stone",
			"uri":"Stone.png"
		},
		{
			"mimeType":"image/png",
			"name":"TerrainMask",
			"uri":"TerrainMask.png"
		}
	],
	"accessors":[
		{
			"bufferView":0,
			"componentType":5126,
			"count":2289,
			"max":[
				60,
				4.346170902252197,
				60
			],
			"min":[
				-60,
				-7.152557373046875e-06,
				-60
			],
			"type":"VEC3"
		},
		{
			"bufferView":1,
			"componentType":5126,
			"count":2289,
			"type":"VEC3"
		},
		{
			"bufferView":2,
			"componentType":5126,
			"count":2289,
			"type":"VEC2"
		},
		{
			"bufferView":3,
			"componentType":5123,
			"count":6180,
			"type":"SCALAR"
		}
	],
	"bufferViews":[
		{
			"buffer":0,
			"byteLength":27468,
			"byteOffset":0,
			"target":34962
		},
		{
			"buffer":0,
			"byteLength":27468,
			"byteOffset":27468,
			"target":34962
		},
		{
			"buffer":0,
			"byteLength":18312,
			"byteOffset":54936,
			"target":34962
		},
		{
			"buffer":0,
			"byteLength":12360,
			"byteOffset":73248,
			"target":34963
		}
	],
	"buffers":[
		{
			"byteLength":85608,
			"uri":"Hexstaria_Map.bin"
		}
	]
}
