{
	"asset":{
		"generator":"Khronos glTF Blender I/O v4.5.49",
		"version":"2.0"
	},
	"scene":0,
	"scenes":[
		{
			"name":"Scene",
			"nodes":[
				0,
				1,
				2,
				3,
				4
			]
		}
	],
	"nodes":[
		{
			"mesh":0,
			"name":"Hexstaria_Map_Mesh",
			"scale":[
				30,
				30,
				30
			]
		},
		{
			"mesh":1,
			"name":"Mangrove_Model"
		},
		{
			"mesh":2,
			"name":"Mangrove_MultimeshArea",
			"rotation":[
				0,
				0.20460909605026245,
				0,
				0.9788438677787781
			],
			"translation":[
				2.75241756439209,
				28.016056060791016,
				330.2718505859375
			]
		},
		{
			"mesh":3,
			"name":"Grass_Model"
		},
		{
			"mesh":4,
			"name":"Grass_Hill_1_MultimeshArea",
			"scale":[
				38.923194885253906,
				38.923194885253906,
				38.923194885253906
			],
			"translation":[
				120.91727447509766,
				23.63471031188965,
				411.656494140625
			]
		}
	],
	"materials":[
		{
			"doubleSided":true,
			"name":"Material.002"
		},
		{
			"alphaMode":"BLEND",
			"doubleSided":true,
			"name":"Mangrove Mat",
			"pbrMetallicRoughness":{
				"baseColorTexture":{
					"index":0
				},
				"metallicFactor":0
			}
		}
	],
	"meshes":[
		{
			"name":"Circle.001",
			"primitives":[
				{
					"attributes":{
						"POSITION":0,
						"NORMAL":1,
						"TEXCOORD_0":2
					},
					"indices":3,
					"material":0
				}
			]
		},
		{
			"name":"Plane.001",
			"primitives":[
				{
					"attributes":{
						"POSITION":4,
						"NORMAL":5,
						"TEXCOORD_0":6
					},
					"indices":7,
					"material":1
				}
			]
		},
		{
			"name":"Plane.041",
			"primitives":[
				{
					"attributes":{
						"POSITION":8,
						"NORMAL":9,
						"TEXCOORD_0":10
					},
					"indices":11
				}
			]
		},
		{
			"name":"Plane.042",
			"primitives":[
				{
					"attributes":{
						"POSITION":12,
						"NORMAL":13,
						"TEXCOORD_0":14
					},
					"indices":15,
					"material":1
				}
			]
		},
		{
			"name":"Plane.043",
			"primitives":[
				{
					"attributes":{
						"POSITION":16,
						"NORMAL":17,
						"TEXCOORD_0":18
					},
					"indices":19
				}
			]
		}
	],
	"textures":[
		{
			"sampler":0,
			"source":0
		}
	],
	"images":[
		{
			"mimeType":"image/png",
			"name":"Mangrove",
			"uri":"Mangrove.png"
		},
		{
			"mimeType":"image/png",
			"name":"Dirt",
			"uri":"Dirt.png"
		},
		{
			"mimeType":"image/png",
			"name":"Grass",
			"uri":"Grass.png"
		},
		{
			"mimeType":"image/png",
			"name":"Hexstaria_Heightmap",
			"uri":"Hexstaria_Heightmap.png"
		},
		{
			"mimeType":"image/png",
			"name":"Sand",
			"uri":"Sand.png"
		},
		{
			"mimeType":"image/png",
			"name":"Stone",
			"uri":"Stone.png"
		},
		{
			"mimeType":"image/png",
			"name":"TerrainMask",
			"uri":"TerrainMask.png"
		}
	],
	"accessors":[
		{
			"bufferView":0,
			"componentType":5126,
			"count":2292,
			"max":[
				60,
				4.346170902252197,
				60
			],
			"min":[
				-60,
				-7.152557373046875e-06,
				-60
			],
			"type":"VEC3"
		},
		{
			"bufferView":1,
			"componentType":5126,
			"count":2292,
			"type":"VEC3"
		},
		{
			"bufferView":2,
			"componentType":5126,
			"count":2292,
			"type":"VEC2"
		},
		{
			"bufferView":3,
			"componentType":5123,
			"count":6183,
			"type":"SCALAR"
		},
		{
			"bufferView":4,
			"componentType":5126,
			"count":16,
			"max":[
				9.175201416015625,
				43.887115478515625,
				9.175202369689941
			],
			"min":[
				-9.175203323364258,
				-1.9073486328125e-06,
				-9.175200462341309
			],
			"type":"VEC3"
		},
		{
			"bufferView":5,
			"componentType":5126,
			"count":16,
			"type":"VEC3"
		},
		{
			"bufferView":6,
			"componentType":5126,
			"count":16,
			"type":"VEC2"
		},
		{
			"bufferView":7,
			"componentType":5123,
			"count":24,
			"type":"SCALAR"
		},
		{
			"bufferView":8,
			"componentType":5126,
			"count":273,
			"max":[
				173.26002502441406,
				-22.179222106933594,
				63.80908203125
			],
			"min":[
				-173.26011657714844,
				-25.607250213623047,
				-226.83010864257812
			],
			"type":"VEC3"
		},
		{
			"bufferView":9,
			"componentType":5126,
			"count":273,
			"type":"VEC3"
		},
		{
			"bufferView":10,
			"componentType":5126,
			"count":273,
			"type":"VEC2"
		},
		{
			"bufferView":11,
			"componentType":5123,
			"count":1176,
			"type":"SCALAR"
		},
		{
			"bufferView":12,
			"componentType":5126,
			"count":8,
			"max":[
				2.6181528568267822,
				4.025764465332031,
				2.6181533336639404
			],
			"min":[
				-2.6181528568267822,
				0,
				-2.6181533336639404
			],
			"type":"VEC3"
		},
		{
			"bufferView":13,
			"componentType":5126,
			"count":8,
			"type":"VEC3"
		},
		{
			"bufferView":14,
			"componentType":5126,
			"count":8,
			"type":"VEC2"
		},
		{
			"bufferView":15,
			"componentType":5123,
			"count":12,
			"type":"SCALAR"
		},
		{
			"bufferView":16,
			"componentType":5126,
			"count":32,
			"max":[
				1.000000238418579,
				0.014295991510152817,
				0.9893379211425781
			],
			"min":[
				-0.9999997615814209,
				-0.1084810197353363,
				-1
			],
			"type":"VEC3"
		},
		{
			"bufferView":17,
			"componentType":5126,
			"count":32,
			"type":"VEC3"
		},
		{
			"bufferView":18,
			"componentType":5126,
			"count":32,
			"type":"VEC2"
		},
		{
			"bufferView":19,
			"componentType":5123,
			"count":54,
			"type":"SCALAR"
		}
	],
	"bufferViews":[
		{
			"buffer":0,
			"byteLength":27504,
			"byteOffset":0,
			"target":34962
		},
		{
			"buffer":0,
			"byteLength":27504,
			"byteOffset":27504,
			"target":34962
		},
		{
			"buffer":0,
			"byteLength":18336,
			"byteOffset":55008,
			"target":34962
		},
		{
			"buffer":0,
			"byteLength":12366,
			"byteOffset":73344,
			"target":34963
		},
		{
			"buffer":0,
			"byteLength":192,
			"byteOffset":85712,
			"target":34962
		},
		{
			"buffer":0,
			"byteLength":192,
			"byteOffset":85904,
			"target":34962
		},
		{
			"buffer":0,
			"byteLength":128,
			"byteOffset":86096,
			"target":34962
		},
		{
			"buffer":0,
			"byteLength":48,
			"byteOffset":86224,
			"target":34963
		},
		{
			"buffer":0,
			"byteLength":3276,
			"byteOffset":86272,
			"target":34962
		},
		{
			"buffer":0,
			"byteLength":3276,
			"byteOffset":89548,
			"target":34962
		},
		{
			"buffer":0,
			"byteLength":2184,
			"byteOffset":92824,
			"target":34962
		},
		{
			"buffer":0,
			"byteLength":2352,
			"byteOffset":95008,
			"target":34963
		},
		{
			"buffer":0,
			"byteLength":96,
			"byteOffset":97360,
			"target":34962
		},
		{
			"buffer":0,
			"byteLength":96,
			"byteOffset":97456,
			"target":34962
		},
		{
			"buffer":0,
			"byteLength":64,
			"byteOffset":97552,
			"target":34962
		},
		{
			"buffer":0,
			"byteLength":24,
			"byteOffset":97616,
			"target":34963
		},
		{
			"buffer":0,
			"byteLength":384,
			"byteOffset":97640,
			"target":34962
		},
		{
			"buffer":0,
			"byteLength":384,
			"byteOffset":98024,
			"target":34962
		},
		{
			"buffer":0,
			"byteLength":256,
			"byteOffset":98408,
			"target":34962
		},
		{
			"buffer":0,
			"byteLength":108,
			"byteOffset":98664,
			"target":34963
		}
	],
	"samplers":[
		{
			"magFilter":9728,
			"minFilter":9984
		}
	],
	"buffers":[
		{
			"byteLength":98772,
			"uri":"Hexstaria_Map.bin"
		}
	]
}
