{
	"asset":{
		"generator":"Khronos glTF Blender I/O v4.0.43",
		"version":"2.0"
	},
	"scene":0,
	"scenes":[
		{
			"name":"Scene",
			"nodes":[
				5,
				6
			]
		}
	],
	"nodes":[
		{
			"name":"Bone.004",
			"rotation":[
				3.5527119847346064e-15,
				0,
				2.0194839173657902e-28,
				1
			],
			"translation":[
				0,
				0.7660918235778809,
				0
			]
		},
		{
			"children":[
				0
			],
			"name":"Bone.003",
			"rotation":[
				3.5527119847346064e-15,
				0,
				2.0194839173657902e-28,
				1
			],
			"translation":[
				0,
				0.7898783683776855,
				0
			]
		},
		{
			"children":[
				1
			],
			"name":"Bone.002",
			"rotation":[
				3.5527119847346064e-15,
				1.7763568394002505e-14,
				2.0194839173657902e-28,
				1
			],
			"translation":[
				0,
				0.9924618601799011,
				0
			]
		},
		{
			"children":[
				2
			],
			"name":"Bone.001",
			"rotation":[
				-0.7071067094802856,
				8.429368136830817e-08,
				-8.429368136830817e-08,
				0.7071068286895752
			],
			"scale":[
				1,
				0.9999999403953552,
				0.9999999403953552
			],
			"translation":[
				0,
				4.551488876342773,
				0
			]
		},
		{
			"children":[
				3
			],
			"name":"Bone",
			"rotation":[
				-0.7071067690849304,
				0,
				0,
				0.7071067690849304
			],
			"translation":[
				0,
				0,
				4.551488876342773
			]
		},
		{
			"mesh":0,
			"name":"Sphere",
			"skin":0
		},
		{
			"children":[
				4
			],
			"name":"Armature"
		}
	],
	"materials":[
		{
			"doubleSided":true,
			"name":"Material",
			"pbrMetallicRoughness":{
				"baseColorTexture":{
					"index":0
				},
				"metallicFactor":0,
				"roughnessFactor":0.5
			}
		}
	],
	"meshes":[
		{
			"name":"Sphere",
			"primitives":[
				{
					"attributes":{
						"POSITION":0,
						"NORMAL":1,
						"TEXCOORD_0":2,
						"JOINTS_0":3,
						"WEIGHTS_0":4
					},
					"indices":5,
					"material":0
				}
			]
		}
	],
	"textures":[
		{
			"sampler":0,
			"source":0
		}
	],
	"images":[
		{
			"mimeType":"image/png",
			"name":"Color_Palette",
			"uri":"Color_Palette.png"
		}
	],
	"skins":[
		{
			"inverseBindMatrices":6,
			"joints":[
				4,
				3,
				2,
				1,
				0
			],
			"name":"Armature"
		}
	],
	"accessors":[
		{
			"bufferView":0,
			"componentType":5126,
			"count":3391,
			"max":[
				1.7349374294281006,
				0.19569706916809082,
				8.223402976989746
			],
			"min":[
				-1.7349374294281006,
				-3.245824098587036,
				-1.7349374294281006
			],
			"type":"VEC3"
		},
		{
			"bufferView":1,
			"componentType":5126,
			"count":3391,
			"type":"VEC3"
		},
		{
			"bufferView":2,
			"componentType":5126,
			"count":3391,
			"type":"VEC2"
		},
		{
			"bufferView":3,
			"componentType":5121,
			"count":3391,
			"type":"VEC4"
		},
		{
			"bufferView":4,
			"componentType":5126,
			"count":3391,
			"type":"VEC4"
		},
		{
			"bufferView":5,
			"componentType":5123,
			"count":6384,
			"type":"SCALAR"
		},
		{
			"bufferView":6,
			"componentType":5126,
			"count":5,
			"type":"MAT4"
		}
	],
	"bufferViews":[
		{
			"buffer":0,
			"byteLength":40692,
			"byteOffset":0,
			"target":34962
		},
		{
			"buffer":0,
			"byteLength":40692,
			"byteOffset":40692,
			"target":34962
		},
		{
			"buffer":0,
			"byteLength":27128,
			"byteOffset":81384,
			"target":34962
		},
		{
			"buffer":0,
			"byteLength":13564,
			"byteOffset":108512,
			"target":34962
		},
		{
			"buffer":0,
			"byteLength":54256,
			"byteOffset":122076,
			"target":34962
		},
		{
			"buffer":0,
			"byteLength":12768,
			"byteOffset":176332,
			"target":34963
		},
		{
			"buffer":0,
			"byteLength":320,
			"byteOffset":189100
		}
	],
	"samplers":[
		{
			"magFilter":9729,
			"minFilter":9987
		}
	],
	"buffers":[
		{
			"byteLength":189420,
			"uri":"Net.bin"
		}
	]
}
