{
	"asset":{
		"generator":"Khronos glTF Blender I/O v4.0.43",
		"version":"2.0"
	},
	"scene":0,
	"scenes":[
		{
			"name":"Scene",
			"nodes":[
				0,
				1,
				2
			]
		}
	],
	"nodes":[
		{
			"mesh":0,
			"name":"Icosphere.001",
			"translation":[
				-7.3948869705200195,
				-2.6488492488861084,
				-11.501888275146484
			]
		},
		{
			"mesh":1,
			"name":"Icosphere.002",
			"translation":[
				-7.3948869705200195,
				-2.6488492488861084,
				-11.501888275146484
			]
		},
		{
			"mesh":2,
			"name":"Plane",
			"translation":[
				54.86897277832031,
				-1.107712984085083,
				16.508777618408203
			]
		}
	],
	"materials":[
		{
			"doubleSided":true,
			"name":"Material.001",
			"pbrMetallicRoughness":{
				"baseColorFactor":[
					0.7752482295036316,
					0.8001194596290588,
					0.24603521823883057,
					1
				],
				"metallicFactor":0,
				"roughnessFactor":0.5
			}
		},
		{
			"doubleSided":true,
			"name":"Material.002",
			"pbrMetallicRoughness":{
				"baseColorFactor":[
					0.038800038397312164,
					0.8000074625015259,
					0.04516932740807533,
					1
				],
				"metallicFactor":0,
				"roughnessFactor":0.5
			}
		},
		{
			"alphaCutoff":0.5,
			"alphaMode":"MASK",
			"doubleSided":true,
			"name":"Material",
			"pbrMetallicRoughness":{
				"baseColorTexture":{
					"index":0
				},
				"metallicFactor":0
			}
		}
	],
	"meshes":[
		{
			"name":"Icosphere.001",
			"primitives":[
				{
					"attributes":{
						"POSITION":0,
						"NORMAL":1,
						"TEXCOORD_0":2
					},
					"indices":3,
					"material":0
				}
			]
		},
		{
			"name":"Icosphere.002",
			"primitives":[
				{
					"attributes":{
						"POSITION":4,
						"NORMAL":5,
						"TEXCOORD_0":6
					},
					"indices":7,
					"material":1
				}
			]
		},
		{
			"name":"Plane.001",
			"primitives":[
				{
					"attributes":{
						"POSITION":8,
						"NORMAL":9,
						"TEXCOORD_0":10
					},
					"indices":11,
					"material":2
				}
			]
		}
	],
	"textures":[
		{
			"sampler":0,
			"source":0
		}
	],
	"images":[
		{
			"mimeType":"image/png",
			"name":"Hut_Test",
			"uri":"Hut_Test.png"
		}
	],
	"accessors":[
		{
			"bufferView":0,
			"componentType":5126,
			"count":219,
			"max":[
				136.36631774902344,
				8.482306480407715,
				139.42254638671875
			],
			"min":[
				-201.56454467773438,
				-16.457427978515625,
				-115.86001586914062
			],
			"type":"VEC3"
		},
		{
			"bufferView":1,
			"componentType":5126,
			"count":219,
			"type":"VEC3"
		},
		{
			"bufferView":2,
			"componentType":5126,
			"count":219,
			"type":"VEC2"
		},
		{
			"bufferView":3,
			"componentType":5123,
			"count":591,
			"type":"SCALAR"
		},
		{
			"bufferView":4,
			"componentType":5126,
			"count":125,
			"max":[
				119.80664825439453,
				10.27756404876709,
				105.9991455078125
			],
			"min":[
				-169.30548095703125,
				1.0476685762405396,
				-87.34169006347656
			],
			"type":"VEC3"
		},
		{
			"bufferView":5,
			"componentType":5126,
			"count":125,
			"type":"VEC3"
		},
		{
			"bufferView":6,
			"componentType":5126,
			"count":125,
			"type":"VEC2"
		},
		{
			"bufferView":7,
			"componentType":5123,
			"count":309,
			"type":"SCALAR"
		},
		{
			"bufferView":8,
			"componentType":5126,
			"count":1312,
			"max":[
				68.41275024414062,
				16.949817657470703,
				51.099971771240234
			],
			"min":[
				-22.19446563720703,
				-10.853105545043945,
				-32.50861358642578
			],
			"type":"VEC3"
		},
		{
			"bufferView":9,
			"componentType":5126,
			"count":1312,
			"type":"VEC3"
		},
		{
			"bufferView":10,
			"componentType":5126,
			"count":1312,
			"type":"VEC2"
		},
		{
			"bufferView":11,
			"componentType":5123,
			"count":2313,
			"type":"SCALAR"
		}
	],
	"bufferViews":[
		{
			"buffer":0,
			"byteLength":2628,
			"byteOffset":0,
			"target":34962
		},
		{
			"buffer":0,
			"byteLength":2628,
			"byteOffset":2628,
			"target":34962
		},
		{
			"buffer":0,
			"byteLength":1752,
			"byteOffset":5256,
			"target":34962
		},
		{
			"buffer":0,
			"byteLength":1182,
			"byteOffset":7008,
			"target":34963
		},
		{
			"buffer":0,
			"byteLength":1500,
			"byteOffset":8192,
			"target":34962
		},
		{
			"buffer":0,
			"byteLength":1500,
			"byteOffset":9692,
			"target":34962
		},
		{
			"buffer":0,
			"byteLength":1000,
			"byteOffset":11192,
			"target":34962
		},
		{
			"buffer":0,
			"byteLength":618,
			"byteOffset":12192,
			"target":34963
		},
		{
			"buffer":0,
			"byteLength":15744,
			"byteOffset":12812,
			"target":34962
		},
		{
			"buffer":0,
			"byteLength":15744,
			"byteOffset":28556,
			"target":34962
		},
		{
			"buffer":0,
			"byteLength":10496,
			"byteOffset":44300,
			"target":34962
		},
		{
			"buffer":0,
			"byteLength":4626,
			"byteOffset":54796,
			"target":34963
		}
	],
	"samplers":[
		{
			"magFilter":9728,
			"minFilter":9984
		}
	],
	"buffers":[
		{
			"byteLength":59424,
			"uri":"HexstariaV2.bin"
		}
	]
}
