{
	"asset":{
		"generator":"Khronos glTF Blender I/O v4.0.43",
		"version":"2.0"
	},
	"scene":0,
	"scenes":[
		{
			"name":"Scene",
			"nodes":[
				0
			]
		}
	],
	"nodes":[
		{
			"mesh":0,
			"name":"Cube.001"
		}
	],
	"meshes":[
		{
			"name":"Cube.002",
			"primitives":[
				{
					"attributes":{
						"POSITION":0,
						"NORMAL":1,
						"TEXCOORD_0":2
					},
					"indices":3
				}
			]
		}
	],
	"accessors":[
		{
			"bufferView":0,
			"componentType":5126,
			"count":1078,
			"max":[
				281.3877868652344,
				76.18485260009766,
				98.03854370117188
			],
			"min":[
				-781.842041015625,
				-23.500537872314453,
				-698.0753173828125
			],
			"type":"VEC3"
		},
		{
			"bufferView":1,
			"componentType":5126,
			"count":1078,
			"type":"VEC3"
		},
		{
			"bufferView":2,
			"componentType":5126,
			"count":1078,
			"type":"VEC2"
		},
		{
			"bufferView":3,
			"componentType":5123,
			"count":2130,
			"type":"SCALAR"
		}
	],
	"bufferViews":[
		{
			"buffer":0,
			"byteLength":12936,
			"byteOffset":0,
			"target":34962
		},
		{
			"buffer":0,
			"byteLength":12936,
			"byteOffset":12936,
			"target":34962
		},
		{
			"buffer":0,
			"byteLength":8624,
			"byteOffset":25872,
			"target":34962
		},
		{
			"buffer":0,
			"byteLength":4260,
			"byteOffset":34496,
			"target":34963
		}
	],
	"buffers":[
		{
			"byteLength":38756,
			"uri":"HexstariaV2.bin"
		}
	]
}
