{
	"asset":{
		"generator":"Khronos glTF Blender I/O v4.3.47",
		"version":"2.0"
	},
	"scene":0,
	"scenes":[
		{
			"name":"Scene",
			"nodes":[
				20,
				21
			]
		}
	],
	"nodes":[
		{
			"name":"Head",
			"translation":[
				0,
				1.274259328842163,
				0
			]
		},
		{
			"name":"Middle_R",
			"translation":[
				0,
				1.1180546283721924,
				0
			]
		},
		{
			"name":"Pinky_R",
			"translation":[
				-0.01807691901922226,
				1.001213550567627,
				-0.38912299275398254
			]
		},
		{
			"name":"Index_R",
			"translation":[
				0.01812131144106388,
				1.001213550567627,
				0.3900785744190216
			]
		},
		{
			"name":"Thumb_R",
			"rotation":[
				0.5348745584487915,
				0.07596100866794586,
				0.03971333056688309,
				0.8405724167823792
			],
			"scale":[
				1,
				1,
				0.9999999403953552
			],
			"translation":[
				0.043949924409389496,
				0.5568463802337646,
				0.6140896081924438
			]
		},
		{
			"children":[
				1,
				2,
				3,
				4
			],
			"name":"Palm_R",
			"rotation":[
				0.01641123928129673,
				-0.01641123928129673,
				0.7069162726402283,
				0.706916332244873
			],
			"translation":[
				-1.6366299390792847,
				0.6716718673706055,
				0
			]
		},
		{
			"name":"Middle_L",
			"translation":[
				0,
				1.1180546283721924,
				0
			]
		},
		{
			"name":"Pinky_L",
			"translation":[
				0.01807691901922226,
				1.001213550567627,
				-0.38912299275398254
			]
		},
		{
			"name":"Index_L",
			"translation":[
				-0.01812131144106388,
				1.001213550567627,
				0.3900785744190216
			]
		},
		{
			"name":"Thumb_L",
			"rotation":[
				0.5348745584487915,
				-0.07596100866794586,
				-0.03971333056688309,
				0.8405724167823792
			],
			"scale":[
				1,
				1,
				0.9999999403953552
			],
			"translation":[
				-0.043949924409389496,
				0.5568463802337646,
				0.6140896081924438
			]
		},
		{
			"children":[
				6,
				7,
				8,
				9
			],
			"name":"Palm_L",
			"rotation":[
				0.01641123928129673,
				0.01641123928129673,
				-0.7069162726402283,
				0.706916332244873
			],
			"translation":[
				1.6366299390792847,
				0.6716718673706055,
				0
			]
		},
		{
			"name":"Tail.001",
			"translation":[
				0,
				0.20340818166732788,
				0
			]
		},
		{
			"children":[
				11
			],
			"name":"Tail",
			"rotation":[
				-0.7071067690849304,
				8.429369557916289e-08,
				-8.429369557916289e-08,
				0.7071067690849304
			],
			"translation":[
				0,
				0.029429912567138672,
				-0.7154229879379272
			]
		},
		{
			"children":[
				0,
				5,
				10,
				12
			],
			"name":"Chest",
			"translation":[
				0,
				1.2000000476837158,
				0
			]
		},
		{
			"name":"Bone.002",
			"translation":[
				0,
				1.2000000476837158,
				0
			]
		},
		{
			"name":"Foot_R",
			"rotation":[
				4.21607770917376e-09,
				-5.760115939779098e-08,
				0.7071067690849304,
				0.7071067690849304
			],
			"translation":[
				0,
				0.6360995173454285,
				0
			]
		},
		{
			"children":[
				15
			],
			"name":"Leg_R",
			"rotation":[
				-2.6692537957728746e-08,
				2.6692537957728746e-08,
				0.7071067690849304,
				0.7071067690849304
			],
			"translation":[
				0,
				1.2000000476837158,
				0
			]
		},
		{
			"name":"Foot_L",
			"rotation":[
				4.21607770917376e-09,
				5.760115939779098e-08,
				-0.7071067690849304,
				0.7071067690849304
			],
			"translation":[
				0,
				0.6360995173454285,
				0
			]
		},
		{
			"children":[
				17
			],
			"name":"Leg_L",
			"rotation":[
				-2.6692537957728746e-08,
				-2.6692537957728746e-08,
				-0.7071067690849304,
				0.7071067690849304
			],
			"translation":[
				0,
				1.2000000476837158,
				0
			]
		},
		{
			"children":[
				13,
				14,
				16,
				18
			],
			"name":"Hips"
		},
		{
			"children":[
				19
			],
			"name":"Bunny_Tail_Armature"
		},
		{
			"mesh":0,
			"name":"Bunny_Tail",
			"skin":0
		}
	],
	"materials":[
		{
			"doubleSided":true,
			"emissiveFactor":[
				1,
				1,
				1
			],
			"emissiveTexture":{
				"index":0
			},
			"name":"Material",
			"pbrMetallicRoughness":{
				"baseColorTexture":{
					"index":1
				},
				"metallicFactor":0
			}
		}
	],
	"meshes":[
		{
			"name":"Plane.029",
			"primitives":[
				{
					"attributes":{
						"POSITION":0,
						"NORMAL":1,
						"TEXCOORD_0":2,
						"JOINTS_0":3,
						"WEIGHTS_0":4
					},
					"indices":5,
					"material":0
				}
			]
		}
	],
	"textures":[
		{
			"sampler":0,
			"source":0
		},
		{
			"sampler":0,
			"source":0
		}
	],
	"images":[
		{
			"mimeType":"image/png",
			"name":"Shader_TestStrip",
			"uri":"Shader_TestStrip.png"
		}
	],
	"skins":[
		{
			"inverseBindMatrices":6,
			"joints":[
				19,
				13,
				0,
				5,
				1,
				2,
				3,
				4,
				10,
				6,
				7,
				8,
				9,
				12,
				11,
				14,
				16,
				15,
				18,
				17
			],
			"name":"Bunny_Tail_Armature"
		}
	],
	"accessors":[
		{
			"bufferView":0,
			"componentType":5126,
			"count":300,
			"max":[
				0.5533256530761719,
				1.8213207721710205,
				-0.5099585056304932
			],
			"min":[
				-0.5533256530761719,
				0.6577202677726746,
				-2.0743014812469482
			],
			"type":"VEC3"
		},
		{
			"bufferView":1,
			"componentType":5126,
			"count":300,
			"type":"VEC3"
		},
		{
			"bufferView":2,
			"componentType":5126,
			"count":300,
			"type":"VEC2"
		},
		{
			"bufferView":3,
			"componentType":5121,
			"count":300,
			"type":"VEC4"
		},
		{
			"bufferView":4,
			"componentType":5126,
			"count":300,
			"type":"VEC4"
		},
		{
			"bufferView":5,
			"componentType":5123,
			"count":300,
			"type":"SCALAR"
		},
		{
			"bufferView":6,
			"componentType":5126,
			"count":20,
			"type":"MAT4"
		}
	],
	"bufferViews":[
		{
			"buffer":0,
			"byteLength":3600,
			"byteOffset":0,
			"target":34962
		},
		{
			"buffer":0,
			"byteLength":3600,
			"byteOffset":3600,
			"target":34962
		},
		{
			"buffer":0,
			"byteLength":2400,
			"byteOffset":7200,
			"target":34962
		},
		{
			"buffer":0,
			"byteLength":1200,
			"byteOffset":9600,
			"target":34962
		},
		{
			"buffer":0,
			"byteLength":4800,
			"byteOffset":10800,
			"target":34962
		},
		{
			"buffer":0,
			"byteLength":600,
			"byteOffset":15600,
			"target":34963
		},
		{
			"buffer":0,
			"byteLength":1280,
			"byteOffset":16200
		}
	],
	"samplers":[
		{
			"magFilter":9728,
			"minFilter":9984
		}
	],
	"buffers":[
		{
			"byteLength":17480,
			"uri":"Bunny_Tail.bin"
		}
	]
}
