{
	"asset":{
		"generator":"Khronos glTF Blender I/O v4.3.47",
		"version":"2.0"
	},
	"scene":0,
	"scenes":[
		{
			"name":"Scene",
			"nodes":[
				25,
				26
			]
		}
	],
	"nodes":[
		{
			"name":"Head",
			"translation":[
				0,
				1.274259328842163,
				0
			]
		},
		{
			"name":"Middle_R",
			"translation":[
				0,
				1.1180546283721924,
				0
			]
		},
		{
			"name":"Pinky_R",
			"translation":[
				-0.01807691901922226,
				1.001213550567627,
				-0.38912299275398254
			]
		},
		{
			"name":"Index_R",
			"translation":[
				0.01812131144106388,
				1.001213550567627,
				0.3900785744190216
			]
		},
		{
			"name":"Thumb_R",
			"rotation":[
				0.5348745584487915,
				0.07596100866794586,
				0.03971333056688309,
				0.8405724167823792
			],
			"scale":[
				1,
				1,
				0.9999999403953552
			],
			"translation":[
				0.043949924409389496,
				0.5568463802337646,
				0.6140896081924438
			]
		},
		{
			"children":[
				1,
				2,
				3,
				4
			],
			"name":"Palm_R",
			"rotation":[
				0.01641123928129673,
				-0.01641123928129673,
				0.7069162726402283,
				0.706916332244873
			],
			"translation":[
				-1.6366299390792847,
				0.6716718673706055,
				0
			]
		},
		{
			"name":"Middle_L",
			"translation":[
				0,
				1.1180546283721924,
				0
			]
		},
		{
			"name":"Pinky_L",
			"translation":[
				0.01807691901922226,
				1.001213550567627,
				-0.38912299275398254
			]
		},
		{
			"name":"Index_L",
			"translation":[
				-0.01812131144106388,
				1.001213550567627,
				0.3900785744190216
			]
		},
		{
			"name":"Thumb_L",
			"rotation":[
				0.5348745584487915,
				-0.07596100866794586,
				-0.03971333056688309,
				0.8405724167823792
			],
			"scale":[
				1,
				1,
				0.9999999403953552
			],
			"translation":[
				-0.043949924409389496,
				0.5568463802337646,
				0.6140896081924438
			]
		},
		{
			"children":[
				6,
				7,
				8,
				9
			],
			"name":"Palm_L",
			"rotation":[
				0.01641123928129673,
				0.01641123928129673,
				-0.7069162726402283,
				0.706916332244873
			],
			"translation":[
				1.6366299390792847,
				0.6716718673706055,
				0
			]
		},
		{
			"name":"Tail.006",
			"rotation":[
				0.1194496750831604,
				1.1027069035662862e-08,
				-0.030234219506382942,
				0.9923797845840454
			],
			"scale":[
				1,
				1,
				0.9999999403953552
			],
			"translation":[
				3.3105322927440284e-08,
				0.2942383885383606,
				-8.379382521184198e-09
			]
		},
		{
			"children":[
				11
			],
			"name":"Tail.005",
			"rotation":[
				0.3240726888179779,
				1.3933235720742232e-07,
				-0.08202710002660751,
				0.9424693584442139
			],
			"translation":[
				-1.5848616641278568e-08,
				0.38739338517189026,
				1.1190574156216826e-07
			]
		},
		{
			"children":[
				12
			],
			"name":"Tail.004",
			"rotation":[
				0.2872775197029114,
				-0.11834190785884857,
				-0.035792309790849686,
				0.9498346447944641
			],
			"translation":[
				3.253420346712235e-14,
				0.35949933528900146,
				8.940698137394065e-08
			]
		},
		{
			"children":[
				13
			],
			"name":"Tail.003",
			"rotation":[
				0.28404924273490906,
				-7.765039018682238e-15,
				3.298096252482216e-14,
				0.9588097333908081
			],
			"scale":[
				1,
				1.0000001192092896,
				1
			],
			"translation":[
				1.7763568394002505e-15,
				0.3105601370334625,
				2.980232594040899e-08
			]
		},
		{
			"children":[
				14
			],
			"name":"Tail.002",
			"rotation":[
				0.15052607655525208,
				1.437463869994899e-14,
				-1.1041685389973012e-15,
				0.9886060357093811
			],
			"scale":[
				1,
				1,
				0.9999999403953552
			],
			"translation":[
				0,
				0.1872449517250061,
				0
			]
		},
		{
			"children":[
				15
			],
			"name":"Tail.001",
			"translation":[
				0,
				0.16776365041732788,
				0
			]
		},
		{
			"children":[
				16
			],
			"name":"Tail",
			"rotation":[
				-0.7071067690849304,
				8.429369557916289e-08,
				-8.429369557916289e-08,
				0.7071067690849304
			],
			"translation":[
				0,
				0.029429912567138672,
				-0.7154229879379272
			]
		},
		{
			"children":[
				0,
				5,
				10,
				17
			],
			"name":"Chest",
			"translation":[
				0,
				1.2000000476837158,
				0
			]
		},
		{
			"name":"Bone.002",
			"translation":[
				0,
				1.2000000476837158,
				0
			]
		},
		{
			"name":"Foot_R",
			"rotation":[
				4.21607770917376e-09,
				-5.760115939779098e-08,
				0.7071067690849304,
				0.7071067690849304
			],
			"translation":[
				0,
				0.6360995173454285,
				0
			]
		},
		{
			"children":[
				20
			],
			"name":"Leg_R",
			"rotation":[
				-2.6692537957728746e-08,
				2.6692537957728746e-08,
				0.7071067690849304,
				0.7071067690849304
			],
			"translation":[
				0,
				1.2000000476837158,
				0
			]
		},
		{
			"name":"Foot_L",
			"rotation":[
				4.21607770917376e-09,
				5.760115939779098e-08,
				-0.7071067690849304,
				0.7071067690849304
			],
			"translation":[
				0,
				0.6360995173454285,
				0
			]
		},
		{
			"children":[
				22
			],
			"name":"Leg_L",
			"rotation":[
				-2.6692537957728746e-08,
				-2.6692537957728746e-08,
				-0.7071067690849304,
				0.7071067690849304
			],
			"translation":[
				0,
				1.2000000476837158,
				0
			]
		},
		{
			"children":[
				18,
				19,
				21,
				23
			],
			"name":"Hips"
		},
		{
			"children":[
				24
			],
			"name":"Dog_Tail_Armature"
		},
		{
			"mesh":0,
			"name":"Dog_Tail",
			"skin":0
		}
	],
	"materials":[
		{
			"doubleSided":true,
			"emissiveFactor":[
				1,
				1,
				1
			],
			"emissiveTexture":{
				"index":0
			},
			"name":"Material",
			"pbrMetallicRoughness":{
				"baseColorTexture":{
					"index":1
				},
				"metallicFactor":0
			}
		}
	],
	"meshes":[
		{
			"name":"Plane.033",
			"primitives":[
				{
					"attributes":{
						"POSITION":0,
						"NORMAL":1,
						"TEXCOORD_0":2,
						"JOINTS_0":3,
						"WEIGHTS_0":4
					},
					"indices":5,
					"material":0
				}
			]
		}
	],
	"textures":[
		{
			"sampler":0,
			"source":0
		},
		{
			"sampler":0,
			"source":0
		}
	],
	"images":[
		{
			"mimeType":"image/png",
			"name":"Shader_TestStrip",
			"uri":"Shader_TestStrip.png"
		}
	],
	"skins":[
		{
			"inverseBindMatrices":6,
			"joints":[
				24,
				18,
				0,
				5,
				1,
				2,
				3,
				4,
				10,
				6,
				7,
				8,
				9,
				17,
				16,
				15,
				14,
				13,
				12,
				11,
				19,
				21,
				20,
				23,
				22
			],
			"name":"Dog_Tail_Armature"
		}
	],
	"accessors":[
		{
			"bufferView":0,
			"componentType":5126,
			"count":456,
			"max":[
				0.4725456237792969,
				2.5599660873413086,
				-0.4727739095687866
			],
			"min":[
				-0.4725456237792969,
				0.7856720089912415,
				-2.048966407775879
			],
			"type":"VEC3"
		},
		{
			"bufferView":1,
			"componentType":5126,
			"count":456,
			"type":"VEC3"
		},
		{
			"bufferView":2,
			"componentType":5126,
			"count":456,
			"type":"VEC2"
		},
		{
			"bufferView":3,
			"componentType":5121,
			"count":456,
			"type":"VEC4"
		},
		{
			"bufferView":4,
			"componentType":5126,
			"count":456,
			"type":"VEC4"
		},
		{
			"bufferView":5,
			"componentType":5123,
			"count":648,
			"type":"SCALAR"
		},
		{
			"bufferView":6,
			"componentType":5126,
			"count":25,
			"type":"MAT4"
		}
	],
	"bufferViews":[
		{
			"buffer":0,
			"byteLength":5472,
			"byteOffset":0,
			"target":34962
		},
		{
			"buffer":0,
			"byteLength":5472,
			"byteOffset":5472,
			"target":34962
		},
		{
			"buffer":0,
			"byteLength":3648,
			"byteOffset":10944,
			"target":34962
		},
		{
			"buffer":0,
			"byteLength":1824,
			"byteOffset":14592,
			"target":34962
		},
		{
			"buffer":0,
			"byteLength":7296,
			"byteOffset":16416,
			"target":34962
		},
		{
			"buffer":0,
			"byteLength":1296,
			"byteOffset":23712,
			"target":34963
		},
		{
			"buffer":0,
			"byteLength":1600,
			"byteOffset":25008
		}
	],
	"samplers":[
		{
			"magFilter":9728,
			"minFilter":9984
		}
	],
	"buffers":[
		{
			"byteLength":26608,
			"uri":"Dog_Tail.bin"
		}
	]
}
