{
	"asset":{
		"generator":"Khronos glTF Blender I/O v4.3.47",
		"version":"2.0"
	},
	"scene":0,
	"scenes":[
		{
			"name":"Scene",
			"nodes":[
				24,
				25
			]
		}
	],
	"nodes":[
		{
			"name":"Head",
			"translation":[
				0,
				1.274259328842163,
				0
			]
		},
		{
			"name":"Middle_R",
			"translation":[
				0,
				1.1180546283721924,
				0
			]
		},
		{
			"name":"Pinky_R",
			"translation":[
				-0.01807691901922226,
				1.001213550567627,
				-0.38912299275398254
			]
		},
		{
			"name":"Index_R",
			"translation":[
				0.01812131144106388,
				1.001213550567627,
				0.3900785744190216
			]
		},
		{
			"name":"Thumb_R",
			"rotation":[
				0.5348745584487915,
				0.07596100866794586,
				0.03971333056688309,
				0.8405724167823792
			],
			"scale":[
				1,
				1,
				0.9999999403953552
			],
			"translation":[
				0.043949924409389496,
				0.5568463802337646,
				0.6140896081924438
			]
		},
		{
			"children":[
				1,
				2,
				3,
				4
			],
			"name":"Palm_R",
			"rotation":[
				0.01641123928129673,
				-0.01641123928129673,
				0.7069162726402283,
				0.706916332244873
			],
			"translation":[
				-1.6366299390792847,
				0.6716718673706055,
				0
			]
		},
		{
			"name":"Middle_L",
			"translation":[
				0,
				1.1180546283721924,
				0
			]
		},
		{
			"name":"Pinky_L",
			"translation":[
				0.01807691901922226,
				1.001213550567627,
				-0.38912299275398254
			]
		},
		{
			"name":"Index_L",
			"translation":[
				-0.01812131144106388,
				1.001213550567627,
				0.3900785744190216
			]
		},
		{
			"name":"Thumb_L",
			"rotation":[
				0.5348745584487915,
				-0.07596100866794586,
				-0.03971333056688309,
				0.8405724167823792
			],
			"scale":[
				1,
				1,
				0.9999999403953552
			],
			"translation":[
				-0.043949924409389496,
				0.5568463802337646,
				0.6140896081924438
			]
		},
		{
			"children":[
				6,
				7,
				8,
				9
			],
			"name":"Palm_L",
			"rotation":[
				0.01641123928129673,
				0.01641123928129673,
				-0.7069162726402283,
				0.706916332244873
			],
			"translation":[
				1.6366299390792847,
				0.6716718673706055,
				0
			]
		},
		{
			"name":"Tail.005",
			"rotation":[
				0.11940202116966248,
				-6.0093288851981175e-12,
				2.8363698945099713e-08,
				0.9928460121154785
			],
			"translation":[
				1.4210854715202004e-14,
				0.7197840213775635,
				0
			]
		},
		{
			"children":[
				11
			],
			"name":"Tail.004",
			"rotation":[
				0.022636927664279938,
				1.0605347166865037e-14,
				5.397064128942475e-09,
				0.9997437596321106
			],
			"translation":[
				0,
				0.7167595624923706,
				0
			]
		},
		{
			"children":[
				12
			],
			"name":"Tail.003",
			"rotation":[
				0.044326428323984146,
				2.7782882502010514e-17,
				1.0568244057651555e-08,
				0.9990171194076538
			],
			"translation":[
				1.5987211554602254e-14,
				0.7586320638656616,
				-6.705522537231445e-08
			]
		},
		{
			"children":[
				13
			],
			"name":"Tail.002",
			"rotation":[
				0.07823801040649414,
				-6.904547564929014e-15,
				1.8653397049206433e-08,
				0.996934711933136
			],
			"scale":[
				1,
				0.9999999403953552,
				0.9999999403953552
			],
			"translation":[
				0,
				0.6819469332695007,
				-2.9802322387695312e-08
			]
		},
		{
			"children":[
				14
			],
			"name":"Tail.001",
			"rotation":[
				-0.08751292526721954,
				1.0699188253025446e-14,
				-2.086470907158855e-08,
				0.9961634278297424
			],
			"translation":[
				0,
				0.21419018507003784,
				0
			]
		},
		{
			"children":[
				15
			],
			"name":"Tail",
			"rotation":[
				-0.7071067690849304,
				8.429369557916289e-08,
				-8.429369557916289e-08,
				0.7071067690849304
			],
			"translation":[
				0,
				0.029429912567138672,
				-0.7154229879379272
			]
		},
		{
			"children":[
				0,
				5,
				10,
				16
			],
			"name":"Chest",
			"translation":[
				0,
				1.2000000476837158,
				0
			]
		},
		{
			"name":"Bone.002",
			"translation":[
				0,
				1.2000000476837158,
				0
			]
		},
		{
			"name":"Foot_R",
			"rotation":[
				4.21607770917376e-09,
				-5.760115939779098e-08,
				0.7071067690849304,
				0.7071067690849304
			],
			"translation":[
				0,
				0.6360995173454285,
				0
			]
		},
		{
			"children":[
				19
			],
			"name":"Leg_R",
			"rotation":[
				-2.6692537957728746e-08,
				2.6692537957728746e-08,
				0.7071067690849304,
				0.7071067690849304
			],
			"translation":[
				0,
				1.2000000476837158,
				0
			]
		},
		{
			"name":"Foot_L",
			"rotation":[
				4.21607770917376e-09,
				5.760115939779098e-08,
				-0.7071067690849304,
				0.7071067690849304
			],
			"translation":[
				0,
				0.6360995173454285,
				0
			]
		},
		{
			"children":[
				21
			],
			"name":"Leg_L",
			"rotation":[
				-2.6692537957728746e-08,
				-2.6692537957728746e-08,
				-0.7071067690849304,
				0.7071067690849304
			],
			"translation":[
				0,
				1.2000000476837158,
				0
			]
		},
		{
			"children":[
				17,
				18,
				20,
				22
			],
			"name":"Hips"
		},
		{
			"children":[
				23
			],
			"name":"Dragon_Tail_Armature"
		},
		{
			"mesh":0,
			"name":"Dragon_Tail",
			"skin":0
		}
	],
	"materials":[
		{
			"doubleSided":true,
			"emissiveFactor":[
				1,
				1,
				1
			],
			"emissiveTexture":{
				"index":0
			},
			"name":"Material",
			"pbrMetallicRoughness":{
				"baseColorTexture":{
					"index":1
				},
				"metallicFactor":0
			}
		}
	],
	"meshes":[
		{
			"name":"Plane.031",
			"primitives":[
				{
					"attributes":{
						"POSITION":0,
						"NORMAL":1,
						"TEXCOORD_0":2,
						"JOINTS_0":3,
						"WEIGHTS_0":4
					},
					"indices":5,
					"material":0
				}
			]
		}
	],
	"textures":[
		{
			"sampler":0,
			"source":0
		},
		{
			"sampler":0,
			"source":0
		}
	],
	"images":[
		{
			"mimeType":"image/png",
			"name":"Shader_TestStrip",
			"uri":"Shader_TestStrip.png"
		}
	],
	"skins":[
		{
			"inverseBindMatrices":6,
			"joints":[
				23,
				17,
				0,
				5,
				1,
				2,
				3,
				4,
				10,
				6,
				7,
				8,
				9,
				16,
				15,
				14,
				13,
				12,
				11,
				18,
				20,
				19,
				22,
				21
			],
			"name":"Dragon_Tail_Armature"
		}
	],
	"accessors":[
		{
			"bufferView":0,
			"componentType":5126,
			"count":537,
			"max":[
				0.5253164768218994,
				1.8265326023101807,
				-0.2966686189174652
			],
			"min":[
				-0.5253164768218994,
				0.6449814438819885,
				-4.5046186447143555
			],
			"type":"VEC3"
		},
		{
			"bufferView":1,
			"componentType":5126,
			"count":537,
			"type":"VEC3"
		},
		{
			"bufferView":2,
			"componentType":5126,
			"count":537,
			"type":"VEC2"
		},
		{
			"bufferView":3,
			"componentType":5121,
			"count":537,
			"type":"VEC4"
		},
		{
			"bufferView":4,
			"componentType":5126,
			"count":537,
			"type":"VEC4"
		},
		{
			"bufferView":5,
			"componentType":5123,
			"count":870,
			"type":"SCALAR"
		},
		{
			"bufferView":6,
			"componentType":5126,
			"count":24,
			"type":"MAT4"
		}
	],
	"bufferViews":[
		{
			"buffer":0,
			"byteLength":6444,
			"byteOffset":0,
			"target":34962
		},
		{
			"buffer":0,
			"byteLength":6444,
			"byteOffset":6444,
			"target":34962
		},
		{
			"buffer":0,
			"byteLength":4296,
			"byteOffset":12888,
			"target":34962
		},
		{
			"buffer":0,
			"byteLength":2148,
			"byteOffset":17184,
			"target":34962
		},
		{
			"buffer":0,
			"byteLength":8592,
			"byteOffset":19332,
			"target":34962
		},
		{
			"buffer":0,
			"byteLength":1740,
			"byteOffset":27924,
			"target":34963
		},
		{
			"buffer":0,
			"byteLength":1536,
			"byteOffset":29664
		}
	],
	"samplers":[
		{
			"magFilter":9728,
			"minFilter":9984
		}
	],
	"buffers":[
		{
			"byteLength":31200,
			"uri":"Dragon_Tail.bin"
		}
	]
}
