{
	"asset":{
		"generator":"Khronos glTF Blender I/O v4.3.47",
		"version":"2.0"
	},
	"scene":0,
	"scenes":[
		{
			"name":"Scene",
			"nodes":[
				24,
				25
			]
		}
	],
	"nodes":[
		{
			"name":"Head",
			"translation":[
				0,
				1.274259328842163,
				0
			]
		},
		{
			"name":"Middle_R",
			"translation":[
				0,
				1.1180546283721924,
				0
			]
		},
		{
			"name":"Pinky_R",
			"translation":[
				-0.01807691901922226,
				1.001213550567627,
				-0.38912299275398254
			]
		},
		{
			"name":"Index_R",
			"translation":[
				0.01812131144106388,
				1.001213550567627,
				0.3900785744190216
			]
		},
		{
			"name":"Thumb_R",
			"rotation":[
				0.5348745584487915,
				0.07596100866794586,
				0.03971333056688309,
				0.8405724167823792
			],
			"scale":[
				1,
				1,
				0.9999999403953552
			],
			"translation":[
				0.043949924409389496,
				0.5568463802337646,
				0.6140896081924438
			]
		},
		{
			"children":[
				1,
				2,
				3,
				4
			],
			"name":"Palm_R",
			"rotation":[
				0.01641123928129673,
				-0.01641123928129673,
				0.7069162726402283,
				0.706916332244873
			],
			"translation":[
				-1.6366299390792847,
				0.6716718673706055,
				0
			]
		},
		{
			"name":"Middle_L",
			"translation":[
				0,
				1.1180546283721924,
				0
			]
		},
		{
			"name":"Pinky_L",
			"translation":[
				0.01807691901922226,
				1.001213550567627,
				-0.38912299275398254
			]
		},
		{
			"name":"Index_L",
			"translation":[
				-0.01812131144106388,
				1.001213550567627,
				0.3900785744190216
			]
		},
		{
			"name":"Thumb_L",
			"rotation":[
				0.5348745584487915,
				-0.07596100866794586,
				-0.03971333056688309,
				0.8405724167823792
			],
			"scale":[
				1,
				1,
				0.9999999403953552
			],
			"translation":[
				-0.043949924409389496,
				0.5568463802337646,
				0.6140896081924438
			]
		},
		{
			"children":[
				6,
				7,
				8,
				9
			],
			"name":"Palm_L",
			"rotation":[
				0.01641123928129673,
				0.01641123928129673,
				-0.7069162726402283,
				0.706916332244873
			],
			"translation":[
				1.6366299390792847,
				0.6716718673706055,
				0
			]
		},
		{
			"name":"Tail.005",
			"rotation":[
				0.11816023290157318,
				4.069375947324261e-08,
				-1.0368678886152338e-05,
				0.9929945468902588
			],
			"scale":[
				1,
				0.9999998807907104,
				0.9999999403953552
			],
			"translation":[
				7.105427357601002e-13,
				0.6408407688140869,
				-5.9609341462874e-08
			]
		},
		{
			"children":[
				11
			],
			"name":"Tail.004",
			"rotation":[
				0.07480203360319138,
				-8.467695806757547e-07,
				-1.1261439794907346e-05,
				0.9971984028816223
			],
			"translation":[
				1.9042545318370685e-12,
				0.8710238337516785,
				5.2964246322062536e-08
			]
		},
		{
			"children":[
				12
			],
			"name":"Tail.003",
			"rotation":[
				0.07691095769405365,
				-8.692583719493996e-07,
				1.1295900549157523e-05,
				0.997037947177887
			],
			"scale":[
				1,
				0.9999999403953552,
				1
			],
			"translation":[
				-2.5922355760413587e-14,
				0.7035055756568909,
				1.1920928955078125e-07
			]
		},
		{
			"children":[
				13
			],
			"name":"Tail.002",
			"rotation":[
				-0.07685071974992752,
				0,
				-1.8322639405710106e-08,
				0.9970426559448242
			],
			"scale":[
				1,
				1.0000001192092896,
				1
			],
			"translation":[
				-2.842170943040401e-14,
				0.24005278944969177,
				1.1920928955078125e-07
			]
		},
		{
			"children":[
				14
			],
			"name":"Tail.001",
			"rotation":[
				3.5527119847346064e-15,
				1.0658141036401503e-14,
				4.23516574601346e-22,
				1
			],
			"translation":[
				0,
				0.24250724911689758,
				1.1920928955078125e-07
			]
		},
		{
			"children":[
				15
			],
			"name":"Tail",
			"rotation":[
				-0.7071067094802856,
				8.429368847373553e-08,
				-8.429368136830817e-08,
				0.7071068286895752
			],
			"scale":[
				1,
				0.9999999403953552,
				0.9999999403953552
			],
			"translation":[
				0,
				0.02943253517150879,
				-0.7154229879379272
			]
		},
		{
			"children":[
				0,
				5,
				10,
				16
			],
			"name":"Chest",
			"translation":[
				0,
				1.2000000476837158,
				0
			]
		},
		{
			"name":"Bone.002",
			"translation":[
				0,
				1.2000000476837158,
				0
			]
		},
		{
			"name":"Foot_R",
			"rotation":[
				4.21607770917376e-09,
				-5.760115939779098e-08,
				0.7071067690849304,
				0.7071067690849304
			],
			"translation":[
				0,
				0.6360995173454285,
				0
			]
		},
		{
			"children":[
				19
			],
			"name":"Leg_R",
			"rotation":[
				-2.6692537957728746e-08,
				2.6692537957728746e-08,
				0.7071067690849304,
				0.7071067690849304
			],
			"translation":[
				0,
				1.2000000476837158,
				0
			]
		},
		{
			"name":"Foot_L",
			"rotation":[
				4.21607770917376e-09,
				5.760115939779098e-08,
				-0.7071067690849304,
				0.7071067690849304
			],
			"translation":[
				0,
				0.6360995173454285,
				0
			]
		},
		{
			"children":[
				21
			],
			"name":"Leg_L",
			"rotation":[
				-2.6692537957728746e-08,
				-2.6692537957728746e-08,
				-0.7071067690849304,
				0.7071067690849304
			],
			"translation":[
				0,
				1.2000000476837158,
				0
			]
		},
		{
			"children":[
				17,
				18,
				20,
				22
			],
			"name":"Hips"
		},
		{
			"children":[
				23
			],
			"name":"Fox_Tail_Armature"
		},
		{
			"mesh":0,
			"name":"Fox_Tail",
			"skin":0
		}
	],
	"materials":[
		{
			"doubleSided":true,
			"emissiveFactor":[
				1,
				1,
				1
			],
			"emissiveTexture":{
				"index":0
			},
			"name":"Material",
			"pbrMetallicRoughness":{
				"baseColorTexture":{
					"index":1
				},
				"metallicFactor":0
			}
		}
	],
	"meshes":[
		{
			"name":"Plane.024",
			"primitives":[
				{
					"attributes":{
						"POSITION":0,
						"NORMAL":1,
						"TEXCOORD_0":2,
						"JOINTS_0":3,
						"WEIGHTS_0":4
					},
					"indices":5,
					"material":0
				}
			]
		}
	],
	"textures":[
		{
			"sampler":0,
			"source":0
		},
		{
			"sampler":0,
			"source":0
		}
	],
	"images":[
		{
			"mimeType":"image/png",
			"name":"Shader_TestStrip",
			"uri":"Shader_TestStrip.png"
		}
	],
	"skins":[
		{
			"inverseBindMatrices":6,
			"joints":[
				23,
				17,
				0,
				5,
				1,
				2,
				3,
				4,
				10,
				6,
				7,
				8,
				9,
				16,
				15,
				14,
				13,
				12,
				11,
				18,
				20,
				19,
				22,
				21
			],
			"name":"Fox_Tail_Armature"
		}
	],
	"accessors":[
		{
			"bufferView":0,
			"componentType":5126,
			"count":264,
			"max":[
				0.5900577306747437,
				1.8582842350006104,
				-0.47291600704193115
			],
			"min":[
				-0.5900577306747437,
				0.49560433626174927,
				-4.28126335144043
			],
			"type":"VEC3"
		},
		{
			"bufferView":1,
			"componentType":5126,
			"count":264,
			"type":"VEC3"
		},
		{
			"bufferView":2,
			"componentType":5126,
			"count":264,
			"type":"VEC2"
		},
		{
			"bufferView":3,
			"componentType":5121,
			"count":264,
			"type":"VEC4"
		},
		{
			"bufferView":4,
			"componentType":5126,
			"count":264,
			"type":"VEC4"
		},
		{
			"bufferView":5,
			"componentType":5123,
			"count":402,
			"type":"SCALAR"
		},
		{
			"bufferView":6,
			"componentType":5126,
			"count":24,
			"type":"MAT4"
		}
	],
	"bufferViews":[
		{
			"buffer":0,
			"byteLength":3168,
			"byteOffset":0,
			"target":34962
		},
		{
			"buffer":0,
			"byteLength":3168,
			"byteOffset":3168,
			"target":34962
		},
		{
			"buffer":0,
			"byteLength":2112,
			"byteOffset":6336,
			"target":34962
		},
		{
			"buffer":0,
			"byteLength":1056,
			"byteOffset":8448,
			"target":34962
		},
		{
			"buffer":0,
			"byteLength":4224,
			"byteOffset":9504,
			"target":34962
		},
		{
			"buffer":0,
			"byteLength":804,
			"byteOffset":13728,
			"target":34963
		},
		{
			"buffer":0,
			"byteLength":1536,
			"byteOffset":14532
		}
	],
	"samplers":[
		{
			"magFilter":9728,
			"minFilter":9984
		}
	],
	"buffers":[
		{
			"byteLength":16068,
			"uri":"Fox_Tail.bin"
		}
	]
}
