{
	"asset":{
		"generator":"Khronos glTF Blender I/O v4.3.47",
		"version":"2.0"
	},
	"scene":0,
	"scenes":[
		{
			"name":"Scene",
			"nodes":[
				25,
				26
			]
		}
	],
	"nodes":[
		{
			"name":"Head",
			"translation":[
				0,
				1.274259328842163,
				0
			]
		},
		{
			"name":"Middle_R",
			"translation":[
				0,
				1.1180546283721924,
				0
			]
		},
		{
			"name":"Pinky_R",
			"translation":[
				-0.01807691901922226,
				1.001213550567627,
				-0.38912299275398254
			]
		},
		{
			"name":"Index_R",
			"translation":[
				0.01812131144106388,
				1.001213550567627,
				0.3900785744190216
			]
		},
		{
			"name":"Thumb_R",
			"rotation":[
				0.5348745584487915,
				0.07596100866794586,
				0.03971333056688309,
				0.8405724167823792
			],
			"scale":[
				1,
				1,
				0.9999999403953552
			],
			"translation":[
				0.043949924409389496,
				0.5568463802337646,
				0.6140896081924438
			]
		},
		{
			"children":[
				1,
				2,
				3,
				4
			],
			"name":"Palm_R",
			"rotation":[
				0.01641123928129673,
				-0.01641123928129673,
				0.7069162726402283,
				0.706916332244873
			],
			"translation":[
				-1.6366299390792847,
				0.6716718673706055,
				0
			]
		},
		{
			"name":"Middle_L",
			"translation":[
				0,
				1.1180546283721924,
				0
			]
		},
		{
			"name":"Pinky_L",
			"translation":[
				0.01807691901922226,
				1.001213550567627,
				-0.38912299275398254
			]
		},
		{
			"name":"Index_L",
			"translation":[
				-0.01812131144106388,
				1.001213550567627,
				0.3900785744190216
			]
		},
		{
			"name":"Thumb_L",
			"rotation":[
				0.5348745584487915,
				-0.07596100866794586,
				-0.03971333056688309,
				0.8405724167823792
			],
			"scale":[
				1,
				1,
				0.9999999403953552
			],
			"translation":[
				-0.043949924409389496,
				0.5568463802337646,
				0.6140896081924438
			]
		},
		{
			"children":[
				6,
				7,
				8,
				9
			],
			"name":"Palm_L",
			"rotation":[
				0.01641123928129673,
				0.01641123928129673,
				-0.7069162726402283,
				0.706916332244873
			],
			"translation":[
				1.6366299390792847,
				0.6716718673706055,
				0
			]
		},
		{
			"name":"Tail.006",
			"rotation":[
				8.598640104063405e-27,
				0,
				-3.6065310583033555e-20,
				1
			],
			"translation":[
				1.9322939109238726e-19,
				0.3086400032043457,
				1.5365486660812167e-13
			]
		},
		{
			"children":[
				11
			],
			"name":"Tail.005",
			"rotation":[
				-1.5126887643965997e-13,
				0,
				6.344676535263716e-07,
				1
			],
			"translation":[
				8.526512829121202e-14,
				0.5082526206970215,
				-5.633271626948044e-13
			]
		},
		{
			"children":[
				12
			],
			"name":"Tail.004",
			"rotation":[
				1.5126887643965997e-13,
				0,
				-6.344676535263716e-07,
				1
			],
			"translation":[
				0,
				0.5172550678253174,
				0
			]
		},
		{
			"children":[
				13
			],
			"name":"Tail.003",
			"rotation":[
				0,
				0,
				1.4396710015650696e-29,
				1
			],
			"translation":[
				0,
				0.40336745977401733,
				0
			]
		},
		{
			"children":[
				14
			],
			"name":"Tail.002",
			"rotation":[
				0,
				0,
				1.4396710015650696e-29,
				1
			],
			"translation":[
				0,
				0.035658419132232666,
				0
			]
		},
		{
			"children":[
				15
			],
			"name":"Tail.001",
			"rotation":[
				-0.05503513664007187,
				-2.7797705578587464e-17,
				-1.3121399078386276e-08,
				0.9984844326972961
			],
			"scale":[
				1,
				1.0000001192092896,
				1
			],
			"translation":[
				-1.4210854715202004e-14,
				0.19130483269691467,
				5.960464477539063e-08
			]
		},
		{
			"children":[
				16
			],
			"name":"Tail",
			"rotation":[
				-0.6671194434165955,
				8.880506641162356e-08,
				-7.952683489520496e-08,
				0.7449507713317871
			],
			"translation":[
				0,
				0.029429912567138672,
				-0.7154229879379272
			]
		},
		{
			"children":[
				0,
				5,
				10,
				17
			],
			"name":"Chest",
			"translation":[
				0,
				1.2000000476837158,
				0
			]
		},
		{
			"name":"Bone.002",
			"translation":[
				0,
				1.2000000476837158,
				0
			]
		},
		{
			"name":"Foot_R",
			"rotation":[
				4.21607770917376e-09,
				-5.760115939779098e-08,
				0.7071067690849304,
				0.7071067690849304
			],
			"translation":[
				0,
				0.6360995173454285,
				0
			]
		},
		{
			"children":[
				20
			],
			"name":"Leg_R",
			"rotation":[
				-2.6692537957728746e-08,
				2.6692537957728746e-08,
				0.7071067690849304,
				0.7071067690849304
			],
			"translation":[
				0,
				1.2000000476837158,
				0
			]
		},
		{
			"name":"Foot_L",
			"rotation":[
				4.21607770917376e-09,
				5.760115939779098e-08,
				-0.7071067690849304,
				0.7071067690849304
			],
			"translation":[
				0,
				0.6360995173454285,
				0
			]
		},
		{
			"children":[
				22
			],
			"name":"Leg_L",
			"rotation":[
				-2.6692537957728746e-08,
				-2.6692537957728746e-08,
				-0.7071067690849304,
				0.7071067690849304
			],
			"translation":[
				0,
				1.2000000476837158,
				0
			]
		},
		{
			"children":[
				18,
				19,
				21,
				23
			],
			"name":"Hips"
		},
		{
			"children":[
				24
			],
			"name":"Moth_Tail_Armature"
		},
		{
			"mesh":0,
			"name":"Moth_Tail",
			"skin":0
		}
	],
	"materials":[
		{
			"doubleSided":true,
			"emissiveFactor":[
				1,
				1,
				1
			],
			"emissiveTexture":{
				"index":0
			},
			"name":"Material",
			"pbrMetallicRoughness":{
				"baseColorTexture":{
					"index":1
				},
				"metallicFactor":0
			}
		}
	],
	"meshes":[
		{
			"name":"Plane.028",
			"primitives":[
				{
					"attributes":{
						"POSITION":0,
						"NORMAL":1,
						"TEXCOORD_0":2,
						"JOINTS_0":3,
						"WEIGHTS_0":4
					},
					"indices":5,
					"material":0
				}
			]
		}
	],
	"textures":[
		{
			"sampler":0,
			"source":0
		},
		{
			"sampler":0,
			"source":0
		}
	],
	"images":[
		{
			"mimeType":"image/png",
			"name":"Shader_TestStrip",
			"uri":"Shader_TestStrip.png"
		}
	],
	"skins":[
		{
			"inverseBindMatrices":6,
			"joints":[
				24,
				18,
				0,
				5,
				1,
				2,
				3,
				4,
				10,
				6,
				7,
				8,
				9,
				17,
				16,
				15,
				14,
				13,
				12,
				11,
				19,
				21,
				20,
				23,
				22
			],
			"name":"Moth_Tail_Armature"
		}
	],
	"accessors":[
		{
			"bufferView":0,
			"componentType":5126,
			"count":324,
			"max":[
				0.5858157277107239,
				1.927075743675232,
				-0.4727739095687866
			],
			"min":[
				-0.5858157277107239,
				0.5511268973350525,
				-2.8383097648620605
			],
			"type":"VEC3"
		},
		{
			"bufferView":1,
			"componentType":5126,
			"count":324,
			"type":"VEC3"
		},
		{
			"bufferView":2,
			"componentType":5126,
			"count":324,
			"type":"VEC2"
		},
		{
			"bufferView":3,
			"componentType":5121,
			"count":324,
			"type":"VEC4"
		},
		{
			"bufferView":4,
			"componentType":5126,
			"count":324,
			"type":"VEC4"
		},
		{
			"bufferView":5,
			"componentType":5123,
			"count":492,
			"type":"SCALAR"
		},
		{
			"bufferView":6,
			"componentType":5126,
			"count":25,
			"type":"MAT4"
		}
	],
	"bufferViews":[
		{
			"buffer":0,
			"byteLength":3888,
			"byteOffset":0,
			"target":34962
		},
		{
			"buffer":0,
			"byteLength":3888,
			"byteOffset":3888,
			"target":34962
		},
		{
			"buffer":0,
			"byteLength":2592,
			"byteOffset":7776,
			"target":34962
		},
		{
			"buffer":0,
			"byteLength":1296,
			"byteOffset":10368,
			"target":34962
		},
		{
			"buffer":0,
			"byteLength":5184,
			"byteOffset":11664,
			"target":34962
		},
		{
			"buffer":0,
			"byteLength":984,
			"byteOffset":16848,
			"target":34963
		},
		{
			"buffer":0,
			"byteLength":1600,
			"byteOffset":17832
		}
	],
	"samplers":[
		{
			"magFilter":9728,
			"minFilter":9984
		}
	],
	"buffers":[
		{
			"byteLength":19432,
			"uri":"Moth_Tail.bin"
		}
	]
}
