{
	"asset":{
		"generator":"Khronos glTF Blender I/O v4.3.47",
		"version":"2.0"
	},
	"scene":0,
	"scenes":[
		{
			"name":"Scene",
			"nodes":[
				24,
				25
			]
		}
	],
	"nodes":[
		{
			"name":"Head",
			"translation":[
				0,
				1.274259328842163,
				0
			]
		},
		{
			"name":"Middle_R",
			"translation":[
				0,
				1.1180546283721924,
				0
			]
		},
		{
			"name":"Pinky_R",
			"translation":[
				-0.01807691901922226,
				1.001213550567627,
				-0.38912299275398254
			]
		},
		{
			"name":"Index_R",
			"translation":[
				0.01812131144106388,
				1.001213550567627,
				0.3900785744190216
			]
		},
		{
			"name":"Thumb_R",
			"rotation":[
				0.5348745584487915,
				0.07596100866794586,
				0.03971333056688309,
				0.8405724167823792
			],
			"scale":[
				1,
				1,
				0.9999999403953552
			],
			"translation":[
				0.043949924409389496,
				0.5568463802337646,
				0.6140896081924438
			]
		},
		{
			"children":[
				1,
				2,
				3,
				4
			],
			"name":"Palm_R",
			"rotation":[
				0.01641123928129673,
				-0.01641123928129673,
				0.7069162726402283,
				0.706916332244873
			],
			"translation":[
				-1.6366299390792847,
				0.6716718673706055,
				0
			]
		},
		{
			"name":"Middle_L",
			"translation":[
				0,
				1.1180546283721924,
				0
			]
		},
		{
			"name":"Pinky_L",
			"translation":[
				0.01807691901922226,
				1.001213550567627,
				-0.38912299275398254
			]
		},
		{
			"name":"Index_L",
			"translation":[
				-0.01812131144106388,
				1.001213550567627,
				0.3900785744190216
			]
		},
		{
			"name":"Thumb_L",
			"rotation":[
				0.5348745584487915,
				-0.07596100866794586,
				-0.03971333056688309,
				0.8405724167823792
			],
			"scale":[
				1,
				1,
				0.9999999403953552
			],
			"translation":[
				-0.043949924409389496,
				0.5568463802337646,
				0.6140896081924438
			]
		},
		{
			"children":[
				6,
				7,
				8,
				9
			],
			"name":"Palm_L",
			"rotation":[
				0.01641123928129673,
				0.01641123928129673,
				-0.7069162726402283,
				0.706916332244873
			],
			"translation":[
				1.6366299390792847,
				0.6716718673706055,
				0
			]
		},
		{
			"name":"Tail.005",
			"rotation":[
				0.11315444111824036,
				5.58699840338679e-15,
				2.6978119294085445e-08,
				0.9935774207115173
			],
			"scale":[
				1,
				1,
				0.9999999403953552
			],
			"translation":[
				3.968733233218093e-14,
				0.6732163429260254,
				-1.4901161193847656e-07
			]
		},
		{
			"children":[
				11
			],
			"name":"Tail.004",
			"rotation":[
				0.10529062151908875,
				-3.460928976877788e-15,
				2.510323682258786e-08,
				0.9944415092468262
			],
			"scale":[
				1,
				1,
				0.9999999403953552
			],
			"translation":[
				1.8371050259377922e-14,
				0.8722032308578491,
				-1.1920928955078125e-07
			]
		},
		{
			"children":[
				12
			],
			"name":"Tail.003",
			"rotation":[
				0.1275094449520111,
				-2.2387199380543774e-15,
				3.040061358206003e-08,
				0.9918373823165894
			],
			"translation":[
				4.160196391208865e-15,
				0.7099420428276062,
				-8.940696716308594e-08
			]
		},
		{
			"children":[
				13
			],
			"name":"Tail.002",
			"rotation":[
				0.015120824798941612,
				-1.6207640020663924e-14,
				3.605084231139699e-09,
				0.9998856782913208
			],
			"scale":[
				1,
				0.9999998807907104,
				0.9999999403953552
			],
			"translation":[
				2.499148052742474e-15,
				0.29655221104621887,
				-7.450580596923828e-08
			]
		},
		{
			"children":[
				14
			],
			"name":"Tail.001",
			"rotation":[
				0.05345212668180466,
				-3.1130747800553124e-14,
				1.2743985422503101e-08,
				0.998570442199707
			],
			"scale":[
				1,
				0.9999998807907104,
				1
			],
			"translation":[
				-5.329070518200751e-15,
				0.1909666359424591,
				-7.450580596923828e-08
			]
		},
		{
			"children":[
				15
			],
			"name":"Tail",
			"rotation":[
				-0.67356938123703,
				8.811047536028127e-08,
				-8.029574161128039e-08,
				0.7391240000724792
			],
			"scale":[
				1,
				1.0000001192092896,
				1.0000001192092896
			],
			"translation":[
				0,
				0.029429912567138672,
				-0.7154229879379272
			]
		},
		{
			"children":[
				0,
				5,
				10,
				16
			],
			"name":"Chest",
			"translation":[
				0,
				1.2000000476837158,
				0
			]
		},
		{
			"name":"Bone.002",
			"translation":[
				0,
				1.2000000476837158,
				0
			]
		},
		{
			"name":"Foot_R",
			"rotation":[
				4.21607770917376e-09,
				-5.760115939779098e-08,
				0.7071067690849304,
				0.7071067690849304
			],
			"translation":[
				0,
				0.6360995173454285,
				0
			]
		},
		{
			"children":[
				19
			],
			"name":"Leg_R",
			"rotation":[
				-2.6692537957728746e-08,
				2.6692537957728746e-08,
				0.7071067690849304,
				0.7071067690849304
			],
			"translation":[
				0,
				1.2000000476837158,
				0
			]
		},
		{
			"name":"Foot_L",
			"rotation":[
				4.21607770917376e-09,
				5.760115939779098e-08,
				-0.7071067690849304,
				0.7071067690849304
			],
			"translation":[
				0,
				0.6360995173454285,
				0
			]
		},
		{
			"children":[
				21
			],
			"name":"Leg_L",
			"rotation":[
				-2.6692537957728746e-08,
				-2.6692537957728746e-08,
				-0.7071067690849304,
				0.7071067690849304
			],
			"translation":[
				0,
				1.2000000476837158,
				0
			]
		},
		{
			"children":[
				17,
				18,
				20,
				22
			],
			"name":"Hips"
		},
		{
			"children":[
				23
			],
			"name":"Wolf_Tail_Armature"
		},
		{
			"mesh":0,
			"name":"Wolf_Tail",
			"skin":0
		}
	],
	"materials":[
		{
			"doubleSided":true,
			"emissiveFactor":[
				1,
				1,
				1
			],
			"emissiveTexture":{
				"index":0
			},
			"name":"Material",
			"pbrMetallicRoughness":{
				"baseColorTexture":{
					"index":1
				},
				"metallicFactor":0
			}
		}
	],
	"meshes":[
		{
			"name":"Plane.025",
			"primitives":[
				{
					"attributes":{
						"POSITION":0,
						"NORMAL":1,
						"TEXCOORD_0":2,
						"JOINTS_0":3,
						"WEIGHTS_0":4
					},
					"indices":5,
					"material":0
				}
			]
		}
	],
	"textures":[
		{
			"sampler":0,
			"source":0
		},
		{
			"sampler":0,
			"source":0
		}
	],
	"images":[
		{
			"mimeType":"image/png",
			"name":"Shader_TestStrip",
			"uri":"Shader_TestStrip.png"
		}
	],
	"skins":[
		{
			"inverseBindMatrices":6,
			"joints":[
				23,
				17,
				0,
				5,
				1,
				2,
				3,
				4,
				10,
				6,
				7,
				8,
				9,
				16,
				15,
				14,
				13,
				12,
				11,
				18,
				20,
				19,
				22,
				21
			],
			"name":"Wolf_Tail_Armature"
		}
	],
	"accessors":[
		{
			"bufferView":0,
			"componentType":5126,
			"count":354,
			"max":[
				0.8752403259277344,
				3.0416412353515625,
				-0.45370370149612427
			],
			"min":[
				-0.8752403259277344,
				0.7017991542816162,
				-3.730756998062134
			],
			"type":"VEC3"
		},
		{
			"bufferView":1,
			"componentType":5126,
			"count":354,
			"type":"VEC3"
		},
		{
			"bufferView":2,
			"componentType":5126,
			"count":354,
			"type":"VEC2"
		},
		{
			"bufferView":3,
			"componentType":5121,
			"count":354,
			"type":"VEC4"
		},
		{
			"bufferView":4,
			"componentType":5126,
			"count":354,
			"type":"VEC4"
		},
		{
			"bufferView":5,
			"componentType":5123,
			"count":456,
			"type":"SCALAR"
		},
		{
			"bufferView":6,
			"componentType":5126,
			"count":24,
			"type":"MAT4"
		}
	],
	"bufferViews":[
		{
			"buffer":0,
			"byteLength":4248,
			"byteOffset":0,
			"target":34962
		},
		{
			"buffer":0,
			"byteLength":4248,
			"byteOffset":4248,
			"target":34962
		},
		{
			"buffer":0,
			"byteLength":2832,
			"byteOffset":8496,
			"target":34962
		},
		{
			"buffer":0,
			"byteLength":1416,
			"byteOffset":11328,
			"target":34962
		},
		{
			"buffer":0,
			"byteLength":5664,
			"byteOffset":12744,
			"target":34962
		},
		{
			"buffer":0,
			"byteLength":912,
			"byteOffset":18408,
			"target":34963
		},
		{
			"buffer":0,
			"byteLength":1536,
			"byteOffset":19320
		}
	],
	"samplers":[
		{
			"magFilter":9728,
			"minFilter":9984
		}
	],
	"buffers":[
		{
			"byteLength":20856,
			"uri":"Wolf_Tail.bin"
		}
	]
}
