{
	"asset":{
		"generator":"Khronos glTF Blender I/O v4.3.47",
		"version":"2.0"
	},
	"scene":0,
	"scenes":[
		{
			"name":"Scene",
			"nodes":[
				31,
				32
			]
		}
	],
	"nodes":[
		{
			"name":"Ear_L.005",
			"rotation":[
				0.26980820298194885,
				-0.055559754371643066,
				0.11861523985862732,
				0.9539638757705688
			],
			"scale":[
				1,
				0.9999999403953552,
				0.9999998807907104
			],
			"translation":[
				-1.7881393432617188e-07,
				0.31619152426719666,
				2.384185791015625e-07
			]
		},
		{
			"children":[
				0
			],
			"name":"Ear_L.004",
			"rotation":[
				0.2399095892906189,
				0.004421134013682604,
				0.11636550724506378,
				0.9637857675552368
			],
			"scale":[
				0.9999999403953552,
				0.9999999403953552,
				1
			],
			"translation":[
				1.7881393432617188e-07,
				0.30132752656936646,
				-9.08970832824707e-07
			]
		},
		{
			"children":[
				1
			],
			"name":"Ear_L.003",
			"rotation":[
				0.25685229897499084,
				0.02885684370994568,
				0.09913761913776398,
				0.9609193205833435
			],
			"translation":[
				2.9802322387695312e-08,
				0.3234028220176697,
				2.980232238769531e-07
			]
		},
		{
			"children":[
				2
			],
			"name":"Ear_L.002",
			"rotation":[
				0.2462974339723587,
				0.0178513303399086,
				0.09428301453590393,
				0.9644322991371155
			],
			"scale":[
				0.9999999403953552,
				1.0000001192092896,
				1
			],
			"translation":[
				5.960464477539063e-08,
				0.2878018617630005,
				4.9639493227005e-07
			]
		},
		{
			"children":[
				3
			],
			"name":"Ear_L.001",
			"rotation":[
				0.2168409824371338,
				0.009556150063872337,
				0.07703820616006851,
				0.9731155037879944
			],
			"scale":[
				1,
				1,
				0.9999999403953552
			],
			"translation":[
				-2.2351741790771484e-08,
				0.31916338205337524,
				-1.862645149230957e-08
			]
		},
		{
			"children":[
				4
			],
			"name":"Ear_L",
			"rotation":[
				0.14263451099395752,
				-0.06050993874669075,
				0.056658439338207245,
				0.9862980246543884
			],
			"scale":[
				1,
				0.9999999403953552,
				0.9999999403953552
			],
			"translation":[
				-0.5505597591400146,
				2.0794296264648438,
				0.7012549638748169
			]
		},
		{
			"name":"Ear_R.005",
			"rotation":[
				0.26980820298194885,
				0.055559754371643066,
				-0.11861523985862732,
				0.9539638757705688
			],
			"scale":[
				1,
				0.9999999403953552,
				0.9999998807907104
			],
			"translation":[
				1.7881393432617188e-07,
				0.31619152426719666,
				2.384185791015625e-07
			]
		},
		{
			"children":[
				6
			],
			"name":"Ear_R.004",
			"rotation":[
				0.2399095892906189,
				-0.004421134013682604,
				-0.11636550724506378,
				0.9637857675552368
			],
			"scale":[
				0.9999999403953552,
				0.9999999403953552,
				1
			],
			"translation":[
				-1.7881393432617188e-07,
				0.30132752656936646,
				-9.08970832824707e-07
			]
		},
		{
			"children":[
				7
			],
			"name":"Ear_R.003",
			"rotation":[
				0.25685229897499084,
				-0.02885684370994568,
				-0.09913761913776398,
				0.9609193205833435
			],
			"translation":[
				-2.9802322387695312e-08,
				0.3234028220176697,
				2.980232238769531e-07
			]
		},
		{
			"children":[
				8
			],
			"name":"Ear_R.002",
			"rotation":[
				0.2462974339723587,
				-0.0178513303399086,
				-0.09428301453590393,
				0.9644322991371155
			],
			"scale":[
				0.9999999403953552,
				1.0000001192092896,
				1
			],
			"translation":[
				-5.960464477539063e-08,
				0.2878018617630005,
				4.9639493227005e-07
			]
		},
		{
			"children":[
				9
			],
			"name":"Ear_R.001",
			"rotation":[
				0.2168409824371338,
				-0.009556150063872337,
				-0.07703820616006851,
				0.9731155037879944
			],
			"scale":[
				1,
				1,
				0.9999999403953552
			],
			"translation":[
				2.2351741790771484e-08,
				0.31916338205337524,
				-1.862645149230957e-08
			]
		},
		{
			"children":[
				10
			],
			"name":"Ear_R",
			"rotation":[
				0.14263451099395752,
				0.06050993874669075,
				-0.056658439338207245,
				0.9862980246543884
			],
			"scale":[
				1,
				0.9999999403953552,
				0.9999999403953552
			],
			"translation":[
				0.5505597591400146,
				2.0794296264648438,
				0.7012549638748169
			]
		},
		{
			"children":[
				5,
				11
			],
			"name":"Head",
			"translation":[
				0,
				1.274259328842163,
				0
			]
		},
		{
			"name":"Middle_R",
			"translation":[
				0,
				1.1180546283721924,
				0
			]
		},
		{
			"name":"Pinky_R",
			"translation":[
				-0.01807691901922226,
				1.001213550567627,
				-0.38912299275398254
			]
		},
		{
			"name":"Index_R",
			"translation":[
				0.01812131144106388,
				1.001213550567627,
				0.3900785744190216
			]
		},
		{
			"name":"Thumb_R",
			"rotation":[
				0.5348745584487915,
				0.07596100866794586,
				0.03971333056688309,
				0.8405724167823792
			],
			"scale":[
				1,
				1,
				0.9999999403953552
			],
			"translation":[
				0.043949924409389496,
				0.5568463802337646,
				0.6140896081924438
			]
		},
		{
			"children":[
				13,
				14,
				15,
				16
			],
			"name":"Palm_R",
			"rotation":[
				0.01641123928129673,
				-0.01641123928129673,
				0.7069162726402283,
				0.706916332244873
			],
			"translation":[
				-1.6366299390792847,
				0.6716718673706055,
				0
			]
		},
		{
			"name":"Middle_L",
			"translation":[
				0,
				1.1180546283721924,
				0
			]
		},
		{
			"name":"Pinky_L",
			"translation":[
				0.01807691901922226,
				1.001213550567627,
				-0.38912299275398254
			]
		},
		{
			"name":"Index_L",
			"translation":[
				-0.01812131144106388,
				1.001213550567627,
				0.3900785744190216
			]
		},
		{
			"name":"Thumb_L",
			"rotation":[
				0.5348745584487915,
				-0.07596100866794586,
				-0.03971333056688309,
				0.8405724167823792
			],
			"scale":[
				1,
				1,
				0.9999999403953552
			],
			"translation":[
				-0.043949924409389496,
				0.5568463802337646,
				0.6140896081924438
			]
		},
		{
			"children":[
				18,
				19,
				20,
				21
			],
			"name":"Palm_L",
			"rotation":[
				0.01641123928129673,
				0.01641123928129673,
				-0.7069162726402283,
				0.706916332244873
			],
			"translation":[
				1.6366299390792847,
				0.6716718673706055,
				0
			]
		},
		{
			"children":[
				12,
				17,
				22
			],
			"name":"Chest",
			"translation":[
				0,
				1.2000000476837158,
				0
			]
		},
		{
			"name":"Bone.002",
			"translation":[
				0,
				1.2000000476837158,
				0
			]
		},
		{
			"name":"Foot_R",
			"rotation":[
				4.21607770917376e-09,
				-5.760115939779098e-08,
				0.7071067690849304,
				0.7071067690849304
			],
			"translation":[
				0,
				0.6360995173454285,
				0
			]
		},
		{
			"children":[
				25
			],
			"name":"Leg_R",
			"rotation":[
				-2.6692537957728746e-08,
				2.6692537957728746e-08,
				0.7071067690849304,
				0.7071067690849304
			],
			"translation":[
				0,
				1.2000000476837158,
				0
			]
		},
		{
			"name":"Foot_L",
			"rotation":[
				4.21607770917376e-09,
				5.760115939779098e-08,
				-0.7071067690849304,
				0.7071067690849304
			],
			"translation":[
				0,
				0.6360995173454285,
				0
			]
		},
		{
			"children":[
				27
			],
			"name":"Leg_L",
			"rotation":[
				-2.6692537957728746e-08,
				-2.6692537957728746e-08,
				-0.7071067690849304,
				0.7071067690849304
			],
			"translation":[
				0,
				1.2000000476837158,
				0
			]
		},
		{
			"name":"Bone",
			"translation":[
				0,
				1.2000000476837158,
				0
			]
		},
		{
			"children":[
				23,
				24,
				26,
				28,
				29
			],
			"name":"Hips"
		},
		{
			"children":[
				30
			],
			"name":"Bee_Ear_Armature"
		},
		{
			"mesh":0,
			"name":"Bee_Ears",
			"skin":0
		}
	],
	"materials":[
		{
			"doubleSided":true,
			"emissiveFactor":[
				1,
				1,
				1
			],
			"emissiveTexture":{
				"index":0
			},
			"name":"Material",
			"pbrMetallicRoughness":{
				"baseColorTexture":{
					"index":1
				},
				"metallicFactor":0
			}
		}
	],
	"meshes":[
		{
			"name":"Plane.014",
			"primitives":[
				{
					"attributes":{
						"POSITION":0,
						"NORMAL":1,
						"TEXCOORD_0":2,
						"JOINTS_0":3,
						"WEIGHTS_0":4
					},
					"indices":5,
					"material":0
				}
			]
		}
	],
	"textures":[
		{
			"sampler":0,
			"source":0
		},
		{
			"sampler":0,
			"source":0
		}
	],
	"images":[
		{
			"mimeType":"image/png",
			"name":"Shader_TestStrip",
			"uri":"Shader_TestStrip.png"
		}
	],
	"skins":[
		{
			"inverseBindMatrices":6,
			"joints":[
				30,
				23,
				12,
				5,
				4,
				3,
				2,
				1,
				0,
				11,
				10,
				9,
				8,
				7,
				6,
				17,
				13,
				14,
				15,
				16,
				22,
				18,
				19,
				20,
				21,
				24,
				26,
				25,
				28,
				27,
				29
			],
			"name":"Bee_Ear_Armature"
		}
	],
	"accessors":[
		{
			"bufferView":0,
			"componentType":5126,
			"count":564,
			"max":[
				1.2004647254943848,
				5.240853309631348,
				1.9053212404251099
			],
			"min":[
				-1.2004647254943848,
				4.341468811035156,
				0.6163601279258728
			],
			"type":"VEC3"
		},
		{
			"bufferView":1,
			"componentType":5126,
			"count":564,
			"type":"VEC3"
		},
		{
			"bufferView":2,
			"componentType":5126,
			"count":564,
			"type":"VEC2"
		},
		{
			"bufferView":3,
			"componentType":5121,
			"count":564,
			"type":"VEC4"
		},
		{
			"bufferView":4,
			"componentType":5126,
			"count":564,
			"type":"VEC4"
		},
		{
			"bufferView":5,
			"componentType":5123,
			"count":912,
			"type":"SCALAR"
		},
		{
			"bufferView":6,
			"componentType":5126,
			"count":31,
			"type":"MAT4"
		}
	],
	"bufferViews":[
		{
			"buffer":0,
			"byteLength":6768,
			"byteOffset":0,
			"target":34962
		},
		{
			"buffer":0,
			"byteLength":6768,
			"byteOffset":6768,
			"target":34962
		},
		{
			"buffer":0,
			"byteLength":4512,
			"byteOffset":13536,
			"target":34962
		},
		{
			"buffer":0,
			"byteLength":2256,
			"byteOffset":18048,
			"target":34962
		},
		{
			"buffer":0,
			"byteLength":9024,
			"byteOffset":20304,
			"target":34962
		},
		{
			"buffer":0,
			"byteLength":1824,
			"byteOffset":29328,
			"target":34963
		},
		{
			"buffer":0,
			"byteLength":1984,
			"byteOffset":31152
		}
	],
	"samplers":[
		{
			"magFilter":9728,
			"minFilter":9984
		}
	],
	"buffers":[
		{
			"byteLength":33136,
			"uri":"Bee_Ears.bin"
		}
	]
}
