{
	"asset":{
		"generator":"Khronos glTF Blender I/O v4.3.47",
		"version":"2.0"
	},
	"scene":0,
	"scenes":[
		{
			"name":"Scene",
			"nodes":[
				25,
				26
			]
		}
	],
	"nodes":[
		{
			"name":"Ear_L.002",
			"rotation":[
				0.06618111580610275,
				0.6150010824203491,
				0.013939929194748402,
				0.785620391368866
			],
			"scale":[
				1.0000001192092896,
				1,
				0.9999999403953552
			],
			"translation":[
				0,
				0.8684231042861938,
				1.1920928955078125e-07
			]
		},
		{
			"children":[
				0
			],
			"name":"Ear_L.001",
			"rotation":[
				0.08219266682863235,
				-0.6661586761474609,
				0.023256869986653328,
				0.7409022450447083
			],
			"scale":[
				0.9999999403953552,
				0.9999998807907104,
				1
			],
			"translation":[
				-8.940696716308594e-08,
				1.0018739700317383,
				-8.940696716308594e-08
			]
		},
		{
			"children":[
				1
			],
			"name":"Ear_L",
			"rotation":[
				0.09189243614673615,
				0.17192421853542328,
				0.15591420233249664,
				0.9683432579040527
			],
			"scale":[
				0.9999999403953552,
				1,
				1
			],
			"translation":[
				-0.5737380385398865,
				2.1354784965515137,
				0.5392870903015137
			]
		},
		{
			"name":"Ear_R.002",
			"rotation":[
				0.06618111580610275,
				-0.6150010824203491,
				-0.013939929194748402,
				0.785620391368866
			],
			"scale":[
				1.0000001192092896,
				1,
				0.9999999403953552
			],
			"translation":[
				0,
				0.8684231042861938,
				1.1920928955078125e-07
			]
		},
		{
			"children":[
				3
			],
			"name":"Ear_R.001",
			"rotation":[
				0.08219266682863235,
				0.6661586761474609,
				-0.023256869986653328,
				0.7409022450447083
			],
			"scale":[
				0.9999999403953552,
				0.9999998807907104,
				1
			],
			"translation":[
				8.940696716308594e-08,
				1.0018739700317383,
				-8.940696716308594e-08
			]
		},
		{
			"children":[
				4
			],
			"name":"Ear_R",
			"rotation":[
				0.09189243614673615,
				-0.17192421853542328,
				-0.15591420233249664,
				0.9683432579040527
			],
			"scale":[
				0.9999999403953552,
				1,
				1
			],
			"translation":[
				0.5737380385398865,
				2.1354784965515137,
				0.5392870903015137
			]
		},
		{
			"children":[
				2,
				5
			],
			"name":"Head",
			"translation":[
				0,
				1.274259328842163,
				0
			]
		},
		{
			"name":"Middle_R",
			"translation":[
				0,
				1.1180546283721924,
				0
			]
		},
		{
			"name":"Pinky_R",
			"translation":[
				-0.01807691901922226,
				1.001213550567627,
				-0.38912299275398254
			]
		},
		{
			"name":"Index_R",
			"translation":[
				0.01812131144106388,
				1.001213550567627,
				0.3900785744190216
			]
		},
		{
			"name":"Thumb_R",
			"rotation":[
				0.5348745584487915,
				0.07596100866794586,
				0.03971333056688309,
				0.8405724167823792
			],
			"scale":[
				1,
				1,
				0.9999999403953552
			],
			"translation":[
				0.043949924409389496,
				0.5568463802337646,
				0.6140896081924438
			]
		},
		{
			"children":[
				7,
				8,
				9,
				10
			],
			"name":"Palm_R",
			"rotation":[
				0.01641123928129673,
				-0.01641123928129673,
				0.7069162726402283,
				0.706916332244873
			],
			"translation":[
				-1.6366299390792847,
				0.6716718673706055,
				0
			]
		},
		{
			"name":"Middle_L",
			"translation":[
				0,
				1.1180546283721924,
				0
			]
		},
		{
			"name":"Pinky_L",
			"translation":[
				0.01807691901922226,
				1.001213550567627,
				-0.38912299275398254
			]
		},
		{
			"name":"Index_L",
			"translation":[
				-0.01812131144106388,
				1.001213550567627,
				0.3900785744190216
			]
		},
		{
			"name":"Thumb_L",
			"rotation":[
				0.5348745584487915,
				-0.07596100866794586,
				-0.03971333056688309,
				0.8405724167823792
			],
			"scale":[
				1,
				1,
				0.9999999403953552
			],
			"translation":[
				-0.043949924409389496,
				0.5568463802337646,
				0.6140896081924438
			]
		},
		{
			"children":[
				12,
				13,
				14,
				15
			],
			"name":"Palm_L",
			"rotation":[
				0.01641123928129673,
				0.01641123928129673,
				-0.7069162726402283,
				0.706916332244873
			],
			"translation":[
				1.6366299390792847,
				0.6716718673706055,
				0
			]
		},
		{
			"children":[
				6,
				11,
				16
			],
			"name":"Chest",
			"translation":[
				0,
				1.2000000476837158,
				0
			]
		},
		{
			"name":"Bone.002",
			"translation":[
				0,
				1.2000000476837158,
				0
			]
		},
		{
			"name":"Foot_R",
			"rotation":[
				4.21607770917376e-09,
				-5.760115939779098e-08,
				0.7071067690849304,
				0.7071067690849304
			],
			"translation":[
				0,
				0.6360995173454285,
				0
			]
		},
		{
			"children":[
				19
			],
			"name":"Leg_R",
			"rotation":[
				-2.6692537957728746e-08,
				2.6692537957728746e-08,
				0.7071067690849304,
				0.7071067690849304
			],
			"translation":[
				0,
				1.2000000476837158,
				0
			]
		},
		{
			"name":"Foot_L",
			"rotation":[
				4.21607770917376e-09,
				5.760115939779098e-08,
				-0.7071067690849304,
				0.7071067690849304
			],
			"translation":[
				0,
				0.6360995173454285,
				0
			]
		},
		{
			"children":[
				21
			],
			"name":"Leg_L",
			"rotation":[
				-2.6692537957728746e-08,
				-2.6692537957728746e-08,
				-0.7071067690849304,
				0.7071067690849304
			],
			"translation":[
				0,
				1.2000000476837158,
				0
			]
		},
		{
			"name":"Bone",
			"translation":[
				0,
				1.2000000476837158,
				0
			]
		},
		{
			"children":[
				17,
				18,
				20,
				22,
				23
			],
			"name":"Hips"
		},
		{
			"children":[
				24
			],
			"name":"Bunny_Ear_Armature"
		},
		{
			"mesh":0,
			"name":"Bunny_Ears",
			"skin":0
		}
	],
	"materials":[
		{
			"doubleSided":true,
			"emissiveFactor":[
				1,
				1,
				1
			],
			"emissiveTexture":{
				"index":0
			},
			"name":"Material",
			"pbrMetallicRoughness":{
				"baseColorTexture":{
					"index":1
				},
				"metallicFactor":0
			}
		}
	],
	"meshes":[
		{
			"name":"Plane.021",
			"primitives":[
				{
					"attributes":{
						"POSITION":0,
						"NORMAL":1,
						"TEXCOORD_0":2,
						"JOINTS_0":3,
						"WEIGHTS_0":4
					},
					"indices":5,
					"material":0
				}
			]
		}
	],
	"textures":[
		{
			"sampler":0,
			"source":0
		},
		{
			"sampler":0,
			"source":0
		}
	],
	"images":[
		{
			"mimeType":"image/png",
			"name":"Shader_TestStrip",
			"uri":"Shader_TestStrip.png"
		}
	],
	"skins":[
		{
			"inverseBindMatrices":6,
			"joints":[
				24,
				17,
				6,
				2,
				1,
				0,
				5,
				4,
				3,
				11,
				7,
				8,
				9,
				10,
				16,
				12,
				13,
				14,
				15,
				18,
				20,
				19,
				22,
				21,
				23
			],
			"name":"Bunny_Ear_Armature"
		}
	],
	"accessors":[
		{
			"bufferView":0,
			"componentType":5126,
			"count":266,
			"max":[
				1.4356701374053955,
				6.722946643829346,
				1.3542454242706299
			],
			"min":[
				-1.4356701374053955,
				4.566027641296387,
				0.23636533319950104
			],
			"type":"VEC3"
		},
		{
			"bufferView":1,
			"componentType":5126,
			"count":266,
			"type":"VEC3"
		},
		{
			"bufferView":2,
			"componentType":5126,
			"count":266,
			"type":"VEC2"
		},
		{
			"bufferView":3,
			"componentType":5121,
			"count":266,
			"type":"VEC4"
		},
		{
			"bufferView":4,
			"componentType":5126,
			"count":266,
			"type":"VEC4"
		},
		{
			"bufferView":5,
			"componentType":5123,
			"count":444,
			"type":"SCALAR"
		},
		{
			"bufferView":6,
			"componentType":5126,
			"count":25,
			"type":"MAT4"
		}
	],
	"bufferViews":[
		{
			"buffer":0,
			"byteLength":3192,
			"byteOffset":0,
			"target":34962
		},
		{
			"buffer":0,
			"byteLength":3192,
			"byteOffset":3192,
			"target":34962
		},
		{
			"buffer":0,
			"byteLength":2128,
			"byteOffset":6384,
			"target":34962
		},
		{
			"buffer":0,
			"byteLength":1064,
			"byteOffset":8512,
			"target":34962
		},
		{
			"buffer":0,
			"byteLength":4256,
			"byteOffset":9576,
			"target":34962
		},
		{
			"buffer":0,
			"byteLength":888,
			"byteOffset":13832,
			"target":34963
		},
		{
			"buffer":0,
			"byteLength":1600,
			"byteOffset":14720
		}
	],
	"samplers":[
		{
			"magFilter":9728,
			"minFilter":9984
		}
	],
	"buffers":[
		{
			"byteLength":16320,
			"uri":"Bunny_Ears.bin"
		}
	]
}
