{
	"asset":{
		"generator":"Khronos glTF Blender I/O v4.3.47",
		"version":"2.0"
	},
	"scene":0,
	"scenes":[
		{
			"name":"Scene",
			"nodes":[
				25,
				26
			]
		}
	],
	"nodes":[
		{
			"name":"Ear_L.002",
			"rotation":[
				0.5705203413963318,
				0.47726649045944214,
				0.18415503203868866,
				0.642503023147583
			],
			"translation":[
				-1.1920928955078125e-07,
				0.35034412145614624,
				2.980232238769531e-07
			]
		},
		{
			"children":[
				0
			],
			"name":"Ear_L.001",
			"rotation":[
				0.3532266914844513,
				-0.6102250218391418,
				0.1422249674797058,
				0.6947146654129028
			],
			"scale":[
				0.9999999403953552,
				1,
				1
			],
			"translation":[
				-7.82310962677002e-08,
				0.30901312828063965,
				8.940696716308594e-08
			]
		},
		{
			"children":[
				1
			],
			"name":"Ear_L",
			"rotation":[
				0.07622981071472168,
				0.18309183418750763,
				0.09562184661626816,
				0.9754603505134583
			],
			"scale":[
				0.9999999403953552,
				0.9999999403953552,
				0.9999999403953552
			],
			"translation":[
				-0.7502854466438293,
				2.0974788665771484,
				0.7027060389518738
			]
		},
		{
			"name":"Ear_R.002",
			"rotation":[
				0.5705203413963318,
				-0.47726649045944214,
				-0.18415503203868866,
				0.642503023147583
			],
			"translation":[
				1.1920928955078125e-07,
				0.35034412145614624,
				2.980232238769531e-07
			]
		},
		{
			"children":[
				3
			],
			"name":"Ear_R.001",
			"rotation":[
				0.3532266914844513,
				0.6102250218391418,
				-0.1422249674797058,
				0.6947146654129028
			],
			"scale":[
				0.9999999403953552,
				1,
				1
			],
			"translation":[
				7.82310962677002e-08,
				0.30901312828063965,
				8.940696716308594e-08
			]
		},
		{
			"children":[
				4
			],
			"name":"Ear_R",
			"rotation":[
				0.07622981071472168,
				-0.18309183418750763,
				-0.09562184661626816,
				0.9754603505134583
			],
			"scale":[
				0.9999999403953552,
				0.9999999403953552,
				0.9999999403953552
			],
			"translation":[
				0.7502854466438293,
				2.0974788665771484,
				0.7027060389518738
			]
		},
		{
			"children":[
				2,
				5
			],
			"name":"Head",
			"translation":[
				0,
				1.274259328842163,
				0
			]
		},
		{
			"name":"Middle_R",
			"translation":[
				0,
				1.1180546283721924,
				0
			]
		},
		{
			"name":"Pinky_R",
			"translation":[
				-0.01807691901922226,
				1.001213550567627,
				-0.38912299275398254
			]
		},
		{
			"name":"Index_R",
			"translation":[
				0.01812131144106388,
				1.001213550567627,
				0.3900785744190216
			]
		},
		{
			"name":"Thumb_R",
			"rotation":[
				0.5348745584487915,
				0.07596100866794586,
				0.03971333056688309,
				0.8405724167823792
			],
			"scale":[
				1,
				1,
				0.9999999403953552
			],
			"translation":[
				0.043949924409389496,
				0.5568463802337646,
				0.6140896081924438
			]
		},
		{
			"children":[
				7,
				8,
				9,
				10
			],
			"name":"Palm_R",
			"rotation":[
				0.01641123928129673,
				-0.01641123928129673,
				0.7069162726402283,
				0.706916332244873
			],
			"translation":[
				-1.6366299390792847,
				0.6716718673706055,
				0
			]
		},
		{
			"name":"Middle_L",
			"translation":[
				0,
				1.1180546283721924,
				0
			]
		},
		{
			"name":"Pinky_L",
			"translation":[
				0.01807691901922226,
				1.001213550567627,
				-0.38912299275398254
			]
		},
		{
			"name":"Index_L",
			"translation":[
				-0.01812131144106388,
				1.001213550567627,
				0.3900785744190216
			]
		},
		{
			"name":"Thumb_L",
			"rotation":[
				0.5348745584487915,
				-0.07596100866794586,
				-0.03971333056688309,
				0.8405724167823792
			],
			"scale":[
				1,
				1,
				0.9999999403953552
			],
			"translation":[
				-0.043949924409389496,
				0.5568463802337646,
				0.6140896081924438
			]
		},
		{
			"children":[
				12,
				13,
				14,
				15
			],
			"name":"Palm_L",
			"rotation":[
				0.01641123928129673,
				0.01641123928129673,
				-0.7069162726402283,
				0.706916332244873
			],
			"translation":[
				1.6366299390792847,
				0.6716718673706055,
				0
			]
		},
		{
			"children":[
				6,
				11,
				16
			],
			"name":"Chest",
			"translation":[
				0,
				1.2000000476837158,
				0
			]
		},
		{
			"name":"Bone.002",
			"translation":[
				0,
				1.2000000476837158,
				0
			]
		},
		{
			"name":"Foot_R",
			"rotation":[
				4.21607770917376e-09,
				-5.760115939779098e-08,
				0.7071067690849304,
				0.7071067690849304
			],
			"translation":[
				0,
				0.6360995173454285,
				0
			]
		},
		{
			"children":[
				19
			],
			"name":"Leg_R",
			"rotation":[
				-2.6692537957728746e-08,
				2.6692537957728746e-08,
				0.7071067690849304,
				0.7071067690849304
			],
			"translation":[
				0,
				1.2000000476837158,
				0
			]
		},
		{
			"name":"Foot_L",
			"rotation":[
				4.21607770917376e-09,
				5.760115939779098e-08,
				-0.7071067690849304,
				0.7071067690849304
			],
			"translation":[
				0,
				0.6360995173454285,
				0
			]
		},
		{
			"children":[
				21
			],
			"name":"Leg_L",
			"rotation":[
				-2.6692537957728746e-08,
				-2.6692537957728746e-08,
				-0.7071067690849304,
				0.7071067690849304
			],
			"translation":[
				0,
				1.2000000476837158,
				0
			]
		},
		{
			"name":"Bone",
			"translation":[
				0,
				1.2000000476837158,
				0
			]
		},
		{
			"children":[
				17,
				18,
				20,
				22,
				23
			],
			"name":"Hips"
		},
		{
			"children":[
				24
			],
			"name":"Dog_Ear_Armature"
		},
		{
			"mesh":0,
			"name":"Dog_Ears",
			"skin":0
		}
	],
	"materials":[
		{
			"doubleSided":true,
			"emissiveFactor":[
				1,
				1,
				1
			],
			"emissiveTexture":{
				"index":0
			},
			"name":"Material",
			"pbrMetallicRoughness":{
				"baseColorTexture":{
					"index":1
				},
				"metallicFactor":0
			}
		}
	],
	"meshes":[
		{
			"name":"Plane.020",
			"primitives":[
				{
					"attributes":{
						"POSITION":0,
						"NORMAL":1,
						"TEXCOORD_0":2,
						"JOINTS_0":3,
						"WEIGHTS_0":4
					},
					"indices":5,
					"material":0
				}
			]
		}
	],
	"textures":[
		{
			"sampler":0,
			"source":0
		},
		{
			"sampler":0,
			"source":0
		}
	],
	"images":[
		{
			"mimeType":"image/png",
			"name":"Shader_TestStrip",
			"uri":"Shader_TestStrip.png"
		}
	],
	"skins":[
		{
			"inverseBindMatrices":6,
			"joints":[
				24,
				17,
				6,
				2,
				1,
				0,
				5,
				4,
				3,
				11,
				7,
				8,
				9,
				10,
				16,
				12,
				13,
				14,
				15,
				18,
				20,
				19,
				22,
				21,
				23
			],
			"name":"Dog_Ear_Armature"
		}
	],
	"accessors":[
		{
			"bufferView":0,
			"componentType":5126,
			"count":248,
			"max":[
				1.3034850358963013,
				5.290910720825195,
				1.2704191207885742
			],
			"min":[
				-1.3034850358963013,
				4.531240463256836,
				0.33029577136039734
			],
			"type":"VEC3"
		},
		{
			"bufferView":1,
			"componentType":5126,
			"count":248,
			"type":"VEC3"
		},
		{
			"bufferView":2,
			"componentType":5126,
			"count":248,
			"type":"VEC2"
		},
		{
			"bufferView":3,
			"componentType":5121,
			"count":248,
			"type":"VEC4"
		},
		{
			"bufferView":4,
			"componentType":5126,
			"count":248,
			"type":"VEC4"
		},
		{
			"bufferView":5,
			"componentType":5123,
			"count":372,
			"type":"SCALAR"
		},
		{
			"bufferView":6,
			"componentType":5126,
			"count":25,
			"type":"MAT4"
		}
	],
	"bufferViews":[
		{
			"buffer":0,
			"byteLength":2976,
			"byteOffset":0,
			"target":34962
		},
		{
			"buffer":0,
			"byteLength":2976,
			"byteOffset":2976,
			"target":34962
		},
		{
			"buffer":0,
			"byteLength":1984,
			"byteOffset":5952,
			"target":34962
		},
		{
			"buffer":0,
			"byteLength":992,
			"byteOffset":7936,
			"target":34962
		},
		{
			"buffer":0,
			"byteLength":3968,
			"byteOffset":8928,
			"target":34962
		},
		{
			"buffer":0,
			"byteLength":744,
			"byteOffset":12896,
			"target":34963
		},
		{
			"buffer":0,
			"byteLength":1600,
			"byteOffset":13640
		}
	],
	"samplers":[
		{
			"magFilter":9728,
			"minFilter":9984
		}
	],
	"buffers":[
		{
			"byteLength":15240,
			"uri":"Dog_Ears.bin"
		}
	]
}
