{
	"asset":{
		"generator":"Khronos glTF Blender I/O v4.0.43",
		"version":"2.0"
	},
	"scene":0,
	"scenes":[
		{
			"name":"Scene",
			"nodes":[
				20,
				21
			]
		}
	],
	"nodes":[
		{
			"name":"Ear_L",
			"rotation":[
				0.0714234933257103,
				-0.006636046338826418,
				0.7788715958595276,
				0.6230680346488953
			],
			"translation":[
				-0.896051287651062,
				1.429565668106079,
				0
			]
		},
		{
			"name":"Ear_R",
			"rotation":[
				0.0714234933257103,
				0.006636046338826418,
				-0.7788715958595276,
				0.6230680346488953
			],
			"translation":[
				0.896051287651062,
				1.429565668106079,
				0
			]
		},
		{
			"children":[
				0,
				1
			],
			"name":"Head",
			"translation":[
				0,
				1.274259328842163,
				0
			]
		},
		{
			"name":"Middle_R",
			"translation":[
				0,
				1.1180546283721924,
				0
			]
		},
		{
			"name":"Pinky_R",
			"translation":[
				-0.01807691901922226,
				1.001213550567627,
				-0.38912299275398254
			]
		},
		{
			"name":"Index_R",
			"translation":[
				0.01812131144106388,
				1.001213550567627,
				0.3900785744190216
			]
		},
		{
			"name":"Thumb_R",
			"rotation":[
				0.5348745584487915,
				0.07596100866794586,
				0.03971333056688309,
				0.8405724167823792
			],
			"scale":[
				1,
				1,
				0.9999999403953552
			],
			"translation":[
				0.043949924409389496,
				0.5568463802337646,
				0.6140896081924438
			]
		},
		{
			"children":[
				3,
				4,
				5,
				6
			],
			"name":"Palm_R",
			"rotation":[
				0.01641123928129673,
				-0.01641123928129673,
				0.7069162726402283,
				0.706916332244873
			],
			"translation":[
				-1.6366299390792847,
				0.6716718673706055,
				0
			]
		},
		{
			"name":"Middle_L",
			"translation":[
				0,
				1.1180546283721924,
				0
			]
		},
		{
			"name":"Pinky_L",
			"translation":[
				0.01807691901922226,
				1.001213550567627,
				-0.38912299275398254
			]
		},
		{
			"name":"Index_L",
			"translation":[
				-0.01812131144106388,
				1.001213550567627,
				0.3900785744190216
			]
		},
		{
			"name":"Thumb_L",
			"rotation":[
				0.5348745584487915,
				-0.07596100866794586,
				-0.03971333056688309,
				0.8405724167823792
			],
			"scale":[
				1,
				1,
				0.9999999403953552
			],
			"translation":[
				-0.043949924409389496,
				0.5568463802337646,
				0.6140896081924438
			]
		},
		{
			"children":[
				8,
				9,
				10,
				11
			],
			"name":"Palm_L",
			"rotation":[
				0.01641123928129673,
				0.01641123928129673,
				-0.7069162726402283,
				0.706916332244873
			],
			"translation":[
				1.6366299390792847,
				0.6716718673706055,
				0
			]
		},
		{
			"children":[
				2,
				7,
				12
			],
			"name":"Chest",
			"translation":[
				0,
				1.2000000476837158,
				0
			]
		},
		{
			"name":"Bone.002",
			"translation":[
				0,
				1.2000000476837158,
				0
			]
		},
		{
			"name":"Foot_R",
			"rotation":[
				4.21607770917376e-09,
				-5.760115939779098e-08,
				0.7071067690849304,
				0.7071067690849304
			],
			"translation":[
				0,
				0.6360995173454285,
				0
			]
		},
		{
			"children":[
				15
			],
			"name":"Leg_R",
			"rotation":[
				-2.6692537957728746e-08,
				2.6692537957728746e-08,
				0.7071067690849304,
				0.7071067690849304
			],
			"translation":[
				0,
				1.2000000476837158,
				0
			]
		},
		{
			"name":"Foot_L",
			"rotation":[
				4.21607770917376e-09,
				5.760115939779098e-08,
				-0.7071067690849304,
				0.7071067690849304
			],
			"translation":[
				0,
				0.6360995173454285,
				0
			]
		},
		{
			"children":[
				17
			],
			"name":"Leg_L",
			"rotation":[
				-2.6692537957728746e-08,
				-2.6692537957728746e-08,
				-0.7071067690849304,
				0.7071067690849304
			],
			"translation":[
				0,
				1.2000000476837158,
				0
			]
		},
		{
			"children":[
				13,
				14,
				16,
				18
			],
			"name":"Hips"
		},
		{
			"children":[
				19
			],
			"name":"Goat_Ear_Armature"
		},
		{
			"mesh":0,
			"name":"Goat_Ears",
			"skin":0
		}
	],
	"materials":[
		{
			"doubleSided":true,
			"name":"Material",
			"pbrMetallicRoughness":{
				"baseColorTexture":{
					"index":0
				},
				"metallicFactor":0,
				"roughnessFactor":0.6102362275123596
			}
		}
	],
	"meshes":[
		{
			"name":"Plane.013",
			"primitives":[
				{
					"attributes":{
						"POSITION":0,
						"NORMAL":1,
						"TEXCOORD_0":2,
						"JOINTS_0":3,
						"WEIGHTS_0":4
					},
					"indices":5,
					"material":0
				}
			]
		}
	],
	"textures":[
		{
			"sampler":0,
			"source":0
		}
	],
	"images":[
		{
			"mimeType":"image/png",
			"name":"Color_Palette",
			"uri":"Color_Palette.png"
		}
	],
	"skins":[
		{
			"inverseBindMatrices":6,
			"joints":[
				19,
				13,
				2,
				0,
				1,
				7,
				3,
				4,
				5,
				6,
				12,
				8,
				9,
				10,
				11,
				14,
				16,
				15,
				18,
				17
			],
			"name":"Goat_Ear_Armature"
		}
	],
	"accessors":[
		{
			"bufferView":0,
			"componentType":5126,
			"count":104,
			"max":[
				2.7971136569976807,
				4.10099458694458,
				0.30374467372894287
			],
			"min":[
				-2.7971136569976807,
				3.429291248321533,
				-0.18601709604263306
			],
			"type":"VEC3"
		},
		{
			"bufferView":1,
			"componentType":5126,
			"count":104,
			"type":"VEC3"
		},
		{
			"bufferView":2,
			"componentType":5126,
			"count":104,
			"type":"VEC2"
		},
		{
			"bufferView":3,
			"componentType":5121,
			"count":104,
			"type":"VEC4"
		},
		{
			"bufferView":4,
			"componentType":5126,
			"count":104,
			"type":"VEC4"
		},
		{
			"bufferView":5,
			"componentType":5123,
			"count":144,
			"type":"SCALAR"
		},
		{
			"bufferView":6,
			"componentType":5126,
			"count":20,
			"type":"MAT4"
		}
	],
	"bufferViews":[
		{
			"buffer":0,
			"byteLength":1248,
			"byteOffset":0,
			"target":34962
		},
		{
			"buffer":0,
			"byteLength":1248,
			"byteOffset":1248,
			"target":34962
		},
		{
			"buffer":0,
			"byteLength":832,
			"byteOffset":2496,
			"target":34962
		},
		{
			"buffer":0,
			"byteLength":416,
			"byteOffset":3328,
			"target":34962
		},
		{
			"buffer":0,
			"byteLength":1664,
			"byteOffset":3744,
			"target":34962
		},
		{
			"buffer":0,
			"byteLength":288,
			"byteOffset":5408,
			"target":34963
		},
		{
			"buffer":0,
			"byteLength":1280,
			"byteOffset":5696
		}
	],
	"samplers":[
		{
			"magFilter":9728,
			"minFilter":9984
		}
	],
	"buffers":[
		{
			"byteLength":6976,
			"uri":"Goat_Ears.bin"
		}
	]
}
