{
	"asset":{
		"generator":"Khronos glTF Blender I/O v4.3.47",
		"version":"2.0"
	},
	"scene":0,
	"scenes":[
		{
			"name":"Scene",
			"nodes":[
				31,
				32
			]
		}
	],
	"nodes":[
		{
			"name":"Ear_L.005",
			"rotation":[
				0.15717589855194092,
				-0.3716896176338196,
				-0.028040403500199318,
				0.9145251512527466
			],
			"scale":[
				0.9999998807907104,
				1,
				0.9999998807907104
			],
			"translation":[
				-5.960464477539063e-08,
				0.3757641315460205,
				2.8312206268310547e-07
			]
		},
		{
			"children":[
				0
			],
			"name":"Ear_L.004",
			"rotation":[
				0.1040593758225441,
				0.2340904027223587,
				-0.005478352773934603,
				0.9666143655776978
			],
			"scale":[
				0.9999998807907104,
				1,
				1
			],
			"translation":[
				0,
				0.4040038585662842,
				3.5762786865234375e-07
			]
		},
		{
			"children":[
				1
			],
			"name":"Ear_L.003",
			"rotation":[
				0.11709446460008621,
				-0.13762523233890533,
				-0.010562180541455746,
				0.9834818840026855
			],
			"scale":[
				1,
				1,
				0.9999999403953552
			],
			"translation":[
				-3.5390257835388184e-08,
				0.3749309182167053,
				2.086162567138672e-07
			]
		},
		{
			"children":[
				2
			],
			"name":"Ear_L.002",
			"rotation":[
				0.1140933632850647,
				-0.18421751260757446,
				0.028575994074344635,
				0.9758228063583374
			],
			"scale":[
				0.9999999403953552,
				0.9999997615814209,
				0.9999998211860657
			],
			"translation":[
				0,
				0.39838239550590515,
				-1.4156103134155273e-07
			]
		},
		{
			"children":[
				3
			],
			"name":"Ear_L.001",
			"rotation":[
				0.09516323357820511,
				-0.016367418691515923,
				0.05987996235489845,
				0.9935242533683777
			],
			"scale":[
				1,
				0.9999998807907104,
				1
			],
			"translation":[
				1.4901161193847656e-08,
				0.4032208025455475,
				-4.470348358154297e-08
			]
		},
		{
			"children":[
				4
			],
			"name":"Ear_L",
			"rotation":[
				0.07274113595485687,
				-0.05805444344878197,
				0.021436944603919983,
				0.9954289793968201
			],
			"scale":[
				0.9999998807907104,
				1,
				1
			],
			"translation":[
				-0.5505597591400146,
				2.0794296264648438,
				0.7012549638748169
			]
		},
		{
			"name":"Ear_R.005",
			"rotation":[
				0.15717589855194092,
				0.3716896176338196,
				0.028040403500199318,
				0.9145251512527466
			],
			"scale":[
				0.9999998807907104,
				1,
				0.9999998807907104
			],
			"translation":[
				5.960464477539063e-08,
				0.3757641315460205,
				2.8312206268310547e-07
			]
		},
		{
			"children":[
				6
			],
			"name":"Ear_R.004",
			"rotation":[
				0.1040593758225441,
				-0.2340904027223587,
				0.005478352773934603,
				0.9666143655776978
			],
			"scale":[
				0.9999998807907104,
				1,
				1
			],
			"translation":[
				0,
				0.4040038585662842,
				3.5762786865234375e-07
			]
		},
		{
			"children":[
				7
			],
			"name":"Ear_R.003",
			"rotation":[
				0.11709446460008621,
				0.13762523233890533,
				0.010562180541455746,
				0.9834818840026855
			],
			"scale":[
				1,
				1,
				0.9999999403953552
			],
			"translation":[
				3.5390257835388184e-08,
				0.3749309182167053,
				2.086162567138672e-07
			]
		},
		{
			"children":[
				8
			],
			"name":"Ear_R.002",
			"rotation":[
				0.1140933632850647,
				0.18421751260757446,
				-0.028575994074344635,
				0.9758228063583374
			],
			"scale":[
				0.9999999403953552,
				0.9999997615814209,
				0.9999998211860657
			],
			"translation":[
				0,
				0.39838239550590515,
				-1.4156103134155273e-07
			]
		},
		{
			"children":[
				9
			],
			"name":"Ear_R.001",
			"rotation":[
				0.09516323357820511,
				0.016367418691515923,
				-0.05987996235489845,
				0.9935242533683777
			],
			"scale":[
				1,
				0.9999998807907104,
				1
			],
			"translation":[
				-1.4901161193847656e-08,
				0.4032208025455475,
				-4.470348358154297e-08
			]
		},
		{
			"children":[
				10
			],
			"name":"Ear_R",
			"rotation":[
				0.07274113595485687,
				0.05805444344878197,
				-0.021436944603919983,
				0.9954289793968201
			],
			"scale":[
				0.9999998807907104,
				1,
				1
			],
			"translation":[
				0.5505597591400146,
				2.0794296264648438,
				0.7012549638748169
			]
		},
		{
			"children":[
				5,
				11
			],
			"name":"Head",
			"translation":[
				0,
				1.274259328842163,
				0
			]
		},
		{
			"name":"Middle_R",
			"translation":[
				0,
				1.1180546283721924,
				0
			]
		},
		{
			"name":"Pinky_R",
			"translation":[
				-0.01807691901922226,
				1.001213550567627,
				-0.38912299275398254
			]
		},
		{
			"name":"Index_R",
			"translation":[
				0.01812131144106388,
				1.001213550567627,
				0.3900785744190216
			]
		},
		{
			"name":"Thumb_R",
			"rotation":[
				0.5348745584487915,
				0.07596100866794586,
				0.03971333056688309,
				0.8405724167823792
			],
			"scale":[
				1,
				1,
				0.9999999403953552
			],
			"translation":[
				0.043949924409389496,
				0.5568463802337646,
				0.6140896081924438
			]
		},
		{
			"children":[
				13,
				14,
				15,
				16
			],
			"name":"Palm_R",
			"rotation":[
				0.01641123928129673,
				-0.01641123928129673,
				0.7069162726402283,
				0.706916332244873
			],
			"translation":[
				-1.6366299390792847,
				0.6716718673706055,
				0
			]
		},
		{
			"name":"Middle_L",
			"translation":[
				0,
				1.1180546283721924,
				0
			]
		},
		{
			"name":"Pinky_L",
			"translation":[
				0.01807691901922226,
				1.001213550567627,
				-0.38912299275398254
			]
		},
		{
			"name":"Index_L",
			"translation":[
				-0.01812131144106388,
				1.001213550567627,
				0.3900785744190216
			]
		},
		{
			"name":"Thumb_L",
			"rotation":[
				0.5348745584487915,
				-0.07596100866794586,
				-0.03971333056688309,
				0.8405724167823792
			],
			"scale":[
				1,
				1,
				0.9999999403953552
			],
			"translation":[
				-0.043949924409389496,
				0.5568463802337646,
				0.6140896081924438
			]
		},
		{
			"children":[
				18,
				19,
				20,
				21
			],
			"name":"Palm_L",
			"rotation":[
				0.01641123928129673,
				0.01641123928129673,
				-0.7069162726402283,
				0.706916332244873
			],
			"translation":[
				1.6366299390792847,
				0.6716718673706055,
				0
			]
		},
		{
			"children":[
				12,
				17,
				22
			],
			"name":"Chest",
			"translation":[
				0,
				1.2000000476837158,
				0
			]
		},
		{
			"name":"Bone.002",
			"translation":[
				0,
				1.2000000476837158,
				0
			]
		},
		{
			"name":"Foot_R",
			"rotation":[
				4.21607770917376e-09,
				-5.760115939779098e-08,
				0.7071067690849304,
				0.7071067690849304
			],
			"translation":[
				0,
				0.6360995173454285,
				0
			]
		},
		{
			"children":[
				25
			],
			"name":"Leg_R",
			"rotation":[
				-2.6692537957728746e-08,
				2.6692537957728746e-08,
				0.7071067690849304,
				0.7071067690849304
			],
			"translation":[
				0,
				1.2000000476837158,
				0
			]
		},
		{
			"name":"Foot_L",
			"rotation":[
				4.21607770917376e-09,
				5.760115939779098e-08,
				-0.7071067690849304,
				0.7071067690849304
			],
			"translation":[
				0,
				0.6360995173454285,
				0
			]
		},
		{
			"children":[
				27
			],
			"name":"Leg_L",
			"rotation":[
				-2.6692537957728746e-08,
				-2.6692537957728746e-08,
				-0.7071067690849304,
				0.7071067690849304
			],
			"translation":[
				0,
				1.2000000476837158,
				0
			]
		},
		{
			"name":"Bone",
			"translation":[
				0,
				1.2000000476837158,
				0
			]
		},
		{
			"children":[
				23,
				24,
				26,
				28,
				29
			],
			"name":"Hips"
		},
		{
			"children":[
				30
			],
			"name":"Moth_Ear_Armature"
		},
		{
			"mesh":0,
			"name":"Moth_Ears",
			"skin":0
		}
	],
	"materials":[
		{
			"doubleSided":true,
			"emissiveFactor":[
				1,
				1,
				1
			],
			"emissiveTexture":{
				"index":0
			},
			"name":"Material",
			"pbrMetallicRoughness":{
				"baseColorTexture":{
					"index":1
				},
				"metallicFactor":0
			}
		}
	],
	"meshes":[
		{
			"name":"Plane.015",
			"primitives":[
				{
					"attributes":{
						"POSITION":0,
						"NORMAL":1,
						"TEXCOORD_0":2,
						"JOINTS_0":3,
						"WEIGHTS_0":4
					},
					"indices":5,
					"material":0
				}
			]
		}
	],
	"textures":[
		{
			"sampler":0,
			"source":0
		},
		{
			"sampler":0,
			"source":0
		}
	],
	"images":[
		{
			"mimeType":"image/png",
			"name":"Shader_TestStrip",
			"uri":"Shader_TestStrip.png"
		}
	],
	"skins":[
		{
			"inverseBindMatrices":6,
			"joints":[
				30,
				23,
				12,
				5,
				4,
				3,
				2,
				1,
				0,
				11,
				10,
				9,
				8,
				7,
				6,
				17,
				13,
				14,
				15,
				16,
				22,
				18,
				19,
				20,
				21,
				24,
				26,
				25,
				28,
				27,
				29
			],
			"name":"Moth_Ear_Armature"
		}
	],
	"accessors":[
		{
			"bufferView":0,
			"componentType":5126,
			"count":1032,
			"max":[
				1.318668007850647,
				6.174889087677002,
				1.9216325283050537
			],
			"min":[
				-1.318668007850647,
				4.568132400512695,
				0.6650737524032593
			],
			"type":"VEC3"
		},
		{
			"bufferView":1,
			"componentType":5126,
			"count":1032,
			"type":"VEC3"
		},
		{
			"bufferView":2,
			"componentType":5126,
			"count":1032,
			"type":"VEC2"
		},
		{
			"bufferView":3,
			"componentType":5121,
			"count":1032,
			"type":"VEC4"
		},
		{
			"bufferView":4,
			"componentType":5126,
			"count":1032,
			"type":"VEC4"
		},
		{
			"bufferView":5,
			"componentType":5123,
			"count":1284,
			"type":"SCALAR"
		},
		{
			"bufferView":6,
			"componentType":5126,
			"count":31,
			"type":"MAT4"
		}
	],
	"bufferViews":[
		{
			"buffer":0,
			"byteLength":12384,
			"byteOffset":0,
			"target":34962
		},
		{
			"buffer":0,
			"byteLength":12384,
			"byteOffset":12384,
			"target":34962
		},
		{
			"buffer":0,
			"byteLength":8256,
			"byteOffset":24768,
			"target":34962
		},
		{
			"buffer":0,
			"byteLength":4128,
			"byteOffset":33024,
			"target":34962
		},
		{
			"buffer":0,
			"byteLength":16512,
			"byteOffset":37152,
			"target":34962
		},
		{
			"buffer":0,
			"byteLength":2568,
			"byteOffset":53664,
			"target":34963
		},
		{
			"buffer":0,
			"byteLength":1984,
			"byteOffset":56232
		}
	],
	"samplers":[
		{
			"magFilter":9728,
			"minFilter":9984
		}
	],
	"buffers":[
		{
			"byteLength":58216,
			"uri":"Moth_Ears.bin"
		}
	]
}
