{
	"asset":{
		"generator":"Khronos glTF Blender I/O v4.0.43",
		"version":"2.0"
	},
	"scene":0,
	"scenes":[
		{
			"name":"Scene",
			"nodes":[
				0,
				1,
				2,
				3,
				4,
				5,
				6
			]
		}
	],
	"nodes":[
		{
			"mesh":0,
			"name":"CoreTerrain",
			"translation":[
				-0.24604330956935883,
				-0.06048903614282608,
				-0.181494802236557
			]
		},
		{
			"mesh":1,
			"name":"PlayerCollideable",
			"translation":[
				-0.24604330956935883,
				-0.06048903614282608,
				-0.181494802236557
			]
		},
		{
			"mesh":2,
			"name":"Water.001",
			"translation":[
				-0.24604330956935883,
				-0.06048903614282608,
				-0.181494802236557
			]
		},
		{
			"mesh":3,
			"name":"Observatory",
			"rotation":[
				0,
				0.7071068286895752,
				0,
				0.7071068286895752
			],
			"translation":[
				-330.6592102050781,
				121.02095031738281,
				-244.4974365234375
			]
		},
		{
			"mesh":4,
			"name":"Observatory_Top",
			"rotation":[
				0,
				0.889573872089386,
				0,
				0.45679131150245667
			],
			"translation":[
				-330.6592102050781,
				121.02095031738281,
				-244.4974365234375
			]
		},
		{
			"mesh":5,
			"name":"Observatory_Scope",
			"rotation":[
				0,
				0.889573872089386,
				0,
				0.45679131150245667
			],
			"translation":[
				-330.6592102050781,
				146.4803466796875,
				-244.4974365234375
			]
		},
		{
			"mesh":6,
			"name":"Underground",
			"translation":[
				-0.24604330956935883,
				-0.06048903614282608,
				-0.181494802236557
			]
		}
	],
	"materials":[
		{
			"doubleSided":true,
			"name":"Sand",
			"pbrMetallicRoughness":{}
		},
		{
			"doubleSided":true,
			"name":"Dirt",
			"pbrMetallicRoughness":{}
		},
		{
			"doubleSided":true,
			"name":"Grass",
			"pbrMetallicRoughness":{}
		},
		{
			"doubleSided":true,
			"name":"Stone",
			"pbrMetallicRoughness":{}
		},
		{
			"doubleSided":true,
			"name":"Marble",
			"pbrMetallicRoughness":{}
		},
		{
			"doubleSided":true,
			"name":"Wood",
			"pbrMetallicRoughness":{
				"baseColorFactor":[
					0.19859579205513,
					0.055992841720581055,
					0.03795592859387398,
					1
				],
				"metallicFactor":0,
				"roughnessFactor":0.5
			}
		},
		{
			"alphaMode":"BLEND",
			"doubleSided":true,
			"name":"Water",
			"pbrMetallicRoughness":{}
		},
		{
			"doubleSided":true,
			"emissiveFactor":[
				1,
				1,
				1
			],
			"emissiveTexture":{
				"index":0
			},
			"name":"Material",
			"pbrMetallicRoughness":{
				"baseColorTexture":{
					"index":1
				},
				"metallicFactor":0
			}
		}
	],
	"meshes":[
		{
			"name":"Plane",
			"primitives":[
				{
					"attributes":{
						"POSITION":0,
						"NORMAL":1,
						"TEXCOORD_0":2
					},
					"indices":3,
					"material":0
				},
				{
					"attributes":{
						"POSITION":4,
						"NORMAL":5,
						"TEXCOORD_0":6
					},
					"indices":7,
					"material":1
				},
				{
					"attributes":{
						"POSITION":8,
						"NORMAL":9,
						"TEXCOORD_0":10
					},
					"indices":11,
					"material":2
				},
				{
					"attributes":{
						"POSITION":12,
						"NORMAL":13,
						"TEXCOORD_0":14
					},
					"indices":15,
					"material":3
				},
				{
					"attributes":{
						"POSITION":16,
						"NORMAL":17,
						"TEXCOORD_0":18
					},
					"indices":19,
					"material":4
				}
			]
		},
		{
			"name":"Plane.002",
			"primitives":[
				{
					"attributes":{
						"POSITION":20,
						"NORMAL":21,
						"TEXCOORD_0":22
					},
					"indices":23,
					"material":3
				},
				{
					"attributes":{
						"POSITION":24,
						"NORMAL":25,
						"TEXCOORD_0":26
					},
					"indices":27,
					"material":4
				},
				{
					"attributes":{
						"POSITION":28,
						"NORMAL":29,
						"TEXCOORD_0":30
					},
					"indices":31,
					"material":5
				}
			]
		},
		{
			"name":"Plane.009",
			"primitives":[
				{
					"attributes":{
						"POSITION":32,
						"NORMAL":33,
						"TEXCOORD_0":34
					},
					"indices":35,
					"material":6
				}
			]
		},
		{
			"name":"Cylinder",
			"primitives":[
				{
					"attributes":{
						"POSITION":36,
						"NORMAL":37,
						"TEXCOORD_0":38
					},
					"indices":39,
					"material":7
				}
			]
		},
		{
			"name":"Cylinder.002",
			"primitives":[
				{
					"attributes":{
						"POSITION":40,
						"NORMAL":41,
						"TEXCOORD_0":42
					},
					"indices":43,
					"material":7
				}
			]
		},
		{
			"name":"Cylinder.003",
			"primitives":[
				{
					"attributes":{
						"POSITION":44,
						"NORMAL":45,
						"TEXCOORD_0":46
					},
					"indices":47,
					"material":7
				}
			]
		},
		{
			"name":"Plane.011",
			"primitives":[
				{
					"attributes":{
						"POSITION":48,
						"NORMAL":49,
						"TEXCOORD_0":50
					},
					"indices":51,
					"material":0
				},
				{
					"attributes":{
						"POSITION":52,
						"NORMAL":53,
						"TEXCOORD_0":54
					},
					"indices":55,
					"material":3
				}
			]
		}
	],
	"textures":[
		{
			"sampler":0,
			"source":0
		},
		{
			"sampler":0,
			"source":0
		}
	],
	"images":[
		{
			"mimeType":"image/png",
			"name":"Color_Palette.png",
			"uri":"../../../../../external/Color_Palette.png"
		}
	],
	"accessors":[
		{
			"bufferView":0,
			"componentType":5126,
			"count":1882,
			"max":[
				5000,
				107.73846435546875,
				5000
			],
			"min":[
				-5000,
				-60.96039962768555,
				-5000
			],
			"type":"VEC3"
		},
		{
			"bufferView":1,
			"componentType":5126,
			"count":1882,
			"type":"VEC3"
		},
		{
			"bufferView":2,
			"componentType":5126,
			"count":1882,
			"type":"VEC2"
		},
		{
			"bufferView":3,
			"componentType":5123,
			"count":5256,
			"type":"SCALAR"
		},
		{
			"bufferView":4,
			"componentType":5126,
			"count":1171,
			"max":[
				883.2233276367188,
				122.24591827392578,
				906.115966796875
			],
			"min":[
				-1123.121337890625,
				-44.798397064208984,
				-1073.0931396484375
			],
			"type":"VEC3"
		},
		{
			"bufferView":5,
			"componentType":5126,
			"count":1171,
			"type":"VEC3"
		},
		{
			"bufferView":6,
			"componentType":5126,
			"count":1171,
			"type":"VEC2"
		},
		{
			"bufferView":7,
			"componentType":5123,
			"count":2895,
			"type":"SCALAR"
		},
		{
			"bufferView":8,
			"componentType":5126,
			"count":1836,
			"max":[
				883.2233276367188,
				123.8618392944336,
				906.115966796875
			],
			"min":[
				-1123.121337890625,
				-4.500640869140625,
				-1073.0931396484375
			],
			"type":"VEC3"
		},
		{
			"bufferView":9,
			"componentType":5126,
			"count":1836,
			"type":"VEC3"
		},
		{
			"bufferView":10,
			"componentType":5126,
			"count":1836,
			"type":"VEC2"
		},
		{
			"bufferView":11,
			"componentType":5123,
			"count":5697,
			"type":"SCALAR"
		},
		{
			"bufferView":12,
			"componentType":5126,
			"count":4416,
			"max":[
				591.79052734375,
				124.87159729003906,
				17.622127532958984
			],
			"min":[
				-908.6443481445312,
				-92.24102783203125,
				-458.5411682128906
			],
			"type":"VEC3"
		},
		{
			"bufferView":13,
			"componentType":5126,
			"count":4416,
			"type":"VEC3"
		},
		{
			"bufferView":14,
			"componentType":5126,
			"count":4416,
			"type":"VEC2"
		},
		{
			"bufferView":15,
			"componentType":5123,
			"count":6072,
			"type":"SCALAR"
		},
		{
			"bufferView":16,
			"componentType":5126,
			"count":2976,
			"max":[
				618.6267700195312,
				125.81365966796875,
				25.669816970825195
			],
			"min":[
				-719.7783203125,
				-144.0325927734375,
				-469.99658203125
			],
			"type":"VEC3"
		},
		{
			"bufferView":17,
			"componentType":5126,
			"count":2976,
			"type":"VEC3"
		},
		{
			"bufferView":18,
			"componentType":5126,
			"count":2976,
			"type":"VEC2"
		},
		{
			"bufferView":19,
			"componentType":5123,
			"count":4092,
			"type":"SCALAR"
		},
		{
			"bufferView":20,
			"componentType":5126,
			"count":5043,
			"max":[
				634.8767700195312,
				51.17784118652344,
				872.79638671875
			],
			"min":[
				-291.1829833984375,
				-2.1261308193206787,
				-1040.5799560546875
			],
			"type":"VEC3"
		},
		{
			"bufferView":21,
			"componentType":5126,
			"count":5043,
			"type":"VEC3"
		},
		{
			"bufferView":22,
			"componentType":5126,
			"count":5043,
			"type":"VEC2"
		},
		{
			"bufferView":23,
			"componentType":5123,
			"count":10344,
			"type":"SCALAR"
		},
		{
			"bufferView":24,
			"componentType":5126,
			"count":9521,
			"max":[
				635.068115234375,
				60.33750915527344,
				872.291015625
			],
			"min":[
				-290.6800842285156,
				1.563964605331421,
				-1040.07861328125
			],
			"type":"VEC3"
		},
		{
			"bufferView":25,
			"componentType":5126,
			"count":9521,
			"type":"VEC3"
		},
		{
			"bufferView":26,
			"componentType":5126,
			"count":9521,
			"type":"VEC2"
		},
		{
			"bufferView":27,
			"componentType":5123,
			"count":24228,
			"type":"SCALAR"
		},
		{
			"bufferView":28,
			"componentType":5126,
			"count":4882,
			"max":[
				404.9572448730469,
				144.88417053222656,
				873.7818603515625
			],
			"min":[
				-625.0054931640625,
				-2.1261308193206787,
				-1041.5576171875
			],
			"type":"VEC3"
		},
		{
			"bufferView":29,
			"componentType":5126,
			"count":4882,
			"type":"VEC3"
		},
		{
			"bufferView":30,
			"componentType":5126,
			"count":4882,
			"type":"VEC2"
		},
		{
			"bufferView":31,
			"componentType":5123,
			"count":9474,
			"type":"SCALAR"
		},
		{
			"bufferView":32,
			"componentType":5126,
			"count":24,
			"max":[
				5000,
				1.1457990407943726,
				5000
			],
			"min":[
				-5000,
				0.5157227516174316,
				-5000
			],
			"type":"VEC3"
		},
		{
			"bufferView":33,
			"componentType":5126,
			"count":24,
			"type":"VEC3"
		},
		{
			"bufferView":34,
			"componentType":5126,
			"count":24,
			"type":"VEC2"
		},
		{
			"bufferView":35,
			"componentType":5123,
			"count":96,
			"type":"SCALAR"
		},
		{
			"bufferView":36,
			"componentType":5126,
			"count":932,
			"max":[
				59.62434768676758,
				18.63572883605957,
				58.47245788574219
			],
			"min":[
				-59.62434768676758,
				-61.505332946777344,
				-84.32440185546875
			],
			"type":"VEC3"
		},
		{
			"bufferView":37,
			"componentType":5126,
			"count":932,
			"type":"VEC3"
		},
		{
			"bufferView":38,
			"componentType":5126,
			"count":932,
			"type":"VEC2"
		},
		{
			"bufferView":39,
			"componentType":5123,
			"count":2391,
			"type":"SCALAR"
		},
		{
			"bufferView":40,
			"componentType":5126,
			"count":1553,
			"max":[
				54.06475830078125,
				64.98863220214844,
				54.06477355957031
			],
			"min":[
				-54.0648193359375,
				7.698066711425781,
				-54.064781188964844
			],
			"type":"VEC3"
		},
		{
			"bufferView":41,
			"componentType":5126,
			"count":1553,
			"type":"VEC3"
		},
		{
			"bufferView":42,
			"componentType":5126,
			"count":1553,
			"type":"VEC2"
		},
		{
			"bufferView":43,
			"componentType":5123,
			"count":4056,
			"type":"SCALAR"
		},
		{
			"bufferView":44,
			"componentType":5126,
			"count":2096,
			"max":[
				12.688478469848633,
				61.34681701660156,
				81.23388671875
			],
			"min":[
				-35.20550537109375,
				-35.10042953491211,
				-35.100433349609375
			],
			"type":"VEC3"
		},
		{
			"bufferView":45,
			"componentType":5126,
			"count":2096,
			"type":"VEC3"
		},
		{
			"bufferView":46,
			"componentType":5126,
			"count":2096,
			"type":"VEC2"
		},
		{
			"bufferView":47,
			"componentType":5123,
			"count":5448,
			"type":"SCALAR"
		},
		{
			"bufferView":48,
			"componentType":5126,
			"count":257,
			"max":[
				528.8490600585938,
				76.05662536621094,
				-279.1986999511719
			],
			"min":[
				493.38580322265625,
				-309.3167724609375,
				-314.6620178222656
			],
			"type":"VEC3"
		},
		{
			"bufferView":49,
			"componentType":5126,
			"count":257,
			"type":"VEC3"
		},
		{
			"bufferView":50,
			"componentType":5126,
			"count":257,
			"type":"VEC2"
		},
		{
			"bufferView":51,
			"componentType":5123,
			"count":582,
			"type":"SCALAR"
		},
		{
			"bufferView":52,
			"componentType":5126,
			"count":2041,
			"max":[
				682.6038208007812,
				27.158445358276367,
				-218.8590545654297
			],
			"min":[
				358.7668762207031,
				-399.93975830078125,
				-524.2657470703125
			],
			"type":"VEC3"
		},
		{
			"bufferView":53,
			"componentType":5126,
			"count":2041,
			"type":"VEC3"
		},
		{
			"bufferView":54,
			"componentType":5126,
			"count":2041,
			"type":"VEC2"
		},
		{
			"bufferView":55,
			"componentType":5123,
			"count":3645,
			"type":"SCALAR"
		}
	],
	"bufferViews":[
		{
			"buffer":0,
			"byteLength":22584,
			"byteOffset":0,
			"target":34962
		},
		{
			"buffer":0,
			"byteLength":22584,
			"byteOffset":22584,
			"target":34962
		},
		{
			"buffer":0,
			"byteLength":15056,
			"byteOffset":45168,
			"target":34962
		},
		{
			"buffer":0,
			"byteLength":10512,
			"byteOffset":60224,
			"target":34963
		},
		{
			"buffer":0,
			"byteLength":14052,
			"byteOffset":70736,
			"target":34962
		},
		{
			"buffer":0,
			"byteLength":14052,
			"byteOffset":84788,
			"target":34962
		},
		{
			"buffer":0,
			"byteLength":9368,
			"byteOffset":98840,
			"target":34962
		},
		{
			"buffer":0,
			"byteLength":5790,
			"byteOffset":108208,
			"target":34963
		},
		{
			"buffer":0,
			"byteLength":22032,
			"byteOffset":114000,
			"target":34962
		},
		{
			"buffer":0,
			"byteLength":22032,
			"byteOffset":136032,
			"target":34962
		},
		{
			"buffer":0,
			"byteLength":14688,
			"byteOffset":158064,
			"target":34962
		},
		{
			"buffer":0,
			"byteLength":11394,
			"byteOffset":172752,
			"target":34963
		},
		{
			"buffer":0,
			"byteLength":52992,
			"byteOffset":184148,
			"target":34962
		},
		{
			"buffer":0,
			"byteLength":52992,
			"byteOffset":237140,
			"target":34962
		},
		{
			"buffer":0,
			"byteLength":35328,
			"byteOffset":290132,
			"target":34962
		},
		{
			"buffer":0,
			"byteLength":12144,
			"byteOffset":325460,
			"target":34963
		},
		{
			"buffer":0,
			"byteLength":35712,
			"byteOffset":337604,
			"target":34962
		},
		{
			"buffer":0,
			"byteLength":35712,
			"byteOffset":373316,
			"target":34962
		},
		{
			"buffer":0,
			"byteLength":23808,
			"byteOffset":409028,
			"target":34962
		},
		{
			"buffer":0,
			"byteLength":8184,
			"byteOffset":432836,
			"target":34963
		},
		{
			"buffer":0,
			"byteLength":60516,
			"byteOffset":441020,
			"target":34962
		},
		{
			"buffer":0,
			"byteLength":60516,
			"byteOffset":501536,
			"target":34962
		},
		{
			"buffer":0,
			"byteLength":40344,
			"byteOffset":562052,
			"target":34962
		},
		{
			"buffer":0,
			"byteLength":20688,
			"byteOffset":602396,
			"target":34963
		},
		{
			"buffer":0,
			"byteLength":114252,
			"byteOffset":623084,
			"target":34962
		},
		{
			"buffer":0,
			"byteLength":114252,
			"byteOffset":737336,
			"target":34962
		},
		{
			"buffer":0,
			"byteLength":76168,
			"byteOffset":851588,
			"target":34962
		},
		{
			"buffer":0,
			"byteLength":48456,
			"byteOffset":927756,
			"target":34963
		},
		{
			"buffer":0,
			"byteLength":58584,
			"byteOffset":976212,
			"target":34962
		},
		{
			"buffer":0,
			"byteLength":58584,
			"byteOffset":1034796,
			"target":34962
		},
		{
			"buffer":0,
			"byteLength":39056,
			"byteOffset":1093380,
			"target":34962
		},
		{
			"buffer":0,
			"byteLength":18948,
			"byteOffset":1132436,
			"target":34963
		},
		{
			"buffer":0,
			"byteLength":288,
			"byteOffset":1151384,
			"target":34962
		},
		{
			"buffer":0,
			"byteLength":288,
			"byteOffset":1151672,
			"target":34962
		},
		{
			"buffer":0,
			"byteLength":192,
			"byteOffset":1151960,
			"target":34962
		},
		{
			"buffer":0,
			"byteLength":192,
			"byteOffset":1152152,
			"target":34963
		},
		{
			"buffer":0,
			"byteLength":11184,
			"byteOffset":1152344,
			"target":34962
		},
		{
			"buffer":0,
			"byteLength":11184,
			"byteOffset":1163528,
			"target":34962
		},
		{
			"buffer":0,
			"byteLength":7456,
			"byteOffset":1174712,
			"target":34962
		},
		{
			"buffer":0,
			"byteLength":4782,
			"byteOffset":1182168,
			"target":34963
		},
		{
			"buffer":0,
			"byteLength":18636,
			"byteOffset":1186952,
			"target":34962
		},
		{
			"buffer":0,
			"byteLength":18636,
			"byteOffset":1205588,
			"target":34962
		},
		{
			"buffer":0,
			"byteLength":12424,
			"byteOffset":1224224,
			"target":34962
		},
		{
			"buffer":0,
			"byteLength":8112,
			"byteOffset":1236648,
			"target":34963
		},
		{
			"buffer":0,
			"byteLength":25152,
			"byteOffset":1244760,
			"target":34962
		},
		{
			"buffer":0,
			"byteLength":25152,
			"byteOffset":1269912,
			"target":34962
		},
		{
			"buffer":0,
			"byteLength":16768,
			"byteOffset":1295064,
			"target":34962
		},
		{
			"buffer":0,
			"byteLength":10896,
			"byteOffset":1311832,
			"target":34963
		},
		{
			"buffer":0,
			"byteLength":3084,
			"byteOffset":1322728,
			"target":34962
		},
		{
			"buffer":0,
			"byteLength":3084,
			"byteOffset":1325812,
			"target":34962
		},
		{
			"buffer":0,
			"byteLength":2056,
			"byteOffset":1328896,
			"target":34962
		},
		{
			"buffer":0,
			"byteLength":1164,
			"byteOffset":1330952,
			"target":34963
		},
		{
			"buffer":0,
			"byteLength":24492,
			"byteOffset":1332116,
			"target":34962
		},
		{
			"buffer":0,
			"byteLength":24492,
			"byteOffset":1356608,
			"target":34962
		},
		{
			"buffer":0,
			"byteLength":16328,
			"byteOffset":1381100,
			"target":34962
		},
		{
			"buffer":0,
			"byteLength":7290,
			"byteOffset":1397428,
			"target":34963
		}
	],
	"samplers":[
		{
			"magFilter":9728,
			"minFilter":9984
		}
	],
	"buffers":[
		{
			"byteLength":1404720,
			"uri":"Hexstaria_Map.bin"
		}
	]
}
