{
	"asset":{
		"generator":"Khronos glTF Blender I/O v4.0.43",
		"version":"2.0"
	},
	"scene":0,
	"scenes":[
		{
			"name":"Scene",
			"nodes":[
				0,
				1,
				2
			]
		}
	],
	"nodes":[
		{
			"mesh":0,
			"name":"CoreTerrain",
			"translation":[
				-0.24604330956935883,
				-0.06048903614282608,
				-0.181494802236557
			]
		},
		{
			"mesh":1,
			"name":"PlayerCollideable",
			"translation":[
				-0.24604330956935883,
				-0.06048903614282608,
				-0.181494802236557
			]
		},
		{
			"mesh":2,
			"name":"Water.001",
			"translation":[
				-0.24604330956935883,
				-0.06048903614282608,
				-0.181494802236557
			]
		}
	],
	"materials":[
		{
			"doubleSided":true,
			"name":"Sand",
			"pbrMetallicRoughness":{}
		},
		{
			"doubleSided":true,
			"name":"Dirt",
			"pbrMetallicRoughness":{}
		},
		{
			"doubleSided":true,
			"name":"Grass",
			"pbrMetallicRoughness":{}
		},
		{
			"doubleSided":true,
			"name":"Stone",
			"pbrMetallicRoughness":{}
		},
		{
			"doubleSided":true,
			"name":"Marble",
			"pbrMetallicRoughness":{}
		},
		{
			"doubleSided":true,
			"name":"Wood",
			"pbrMetallicRoughness":{
				"baseColorFactor":[
					0.19859579205513,
					0.055992841720581055,
					0.03795592859387398,
					1
				],
				"metallicFactor":0,
				"roughnessFactor":0.5
			}
		},
		{
			"alphaMode":"BLEND",
			"doubleSided":true,
			"name":"Water",
			"pbrMetallicRoughness":{}
		}
	],
	"meshes":[
		{
			"name":"Plane",
			"primitives":[
				{
					"attributes":{
						"POSITION":0,
						"NORMAL":1,
						"TEXCOORD_0":2
					},
					"indices":3,
					"material":0
				},
				{
					"attributes":{
						"POSITION":4,
						"NORMAL":5,
						"TEXCOORD_0":6
					},
					"indices":7,
					"material":1
				},
				{
					"attributes":{
						"POSITION":8,
						"NORMAL":9,
						"TEXCOORD_0":10
					},
					"indices":11,
					"material":2
				},
				{
					"attributes":{
						"POSITION":12,
						"NORMAL":13,
						"TEXCOORD_0":14
					},
					"indices":15,
					"material":3
				},
				{
					"attributes":{
						"POSITION":16,
						"NORMAL":17,
						"TEXCOORD_0":18
					},
					"indices":19,
					"material":4
				}
			]
		},
		{
			"name":"Plane.002",
			"primitives":[
				{
					"attributes":{
						"POSITION":20,
						"NORMAL":21,
						"TEXCOORD_0":22
					},
					"indices":23,
					"material":3
				},
				{
					"attributes":{
						"POSITION":24,
						"NORMAL":25,
						"TEXCOORD_0":26
					},
					"indices":27,
					"material":4
				},
				{
					"attributes":{
						"POSITION":28,
						"NORMAL":29,
						"TEXCOORD_0":30
					},
					"indices":31,
					"material":5
				}
			]
		},
		{
			"name":"Plane.009",
			"primitives":[
				{
					"attributes":{
						"POSITION":32,
						"NORMAL":33,
						"TEXCOORD_0":34
					},
					"indices":35,
					"material":6
				}
			]
		}
	],
	"accessors":[
		{
			"bufferView":0,
			"componentType":5126,
			"count":2139,
			"max":[
				5000,
				107.73846435546875,
				5000
			],
			"min":[
				-5000,
				-309.3167724609375,
				-5000
			],
			"type":"VEC3"
		},
		{
			"bufferView":1,
			"componentType":5126,
			"count":2139,
			"type":"VEC3"
		},
		{
			"bufferView":2,
			"componentType":5126,
			"count":2139,
			"type":"VEC2"
		},
		{
			"bufferView":3,
			"componentType":5123,
			"count":5838,
			"type":"SCALAR"
		},
		{
			"bufferView":4,
			"componentType":5126,
			"count":1171,
			"max":[
				883.2233276367188,
				122.24591827392578,
				906.115966796875
			],
			"min":[
				-1123.121337890625,
				-44.798397064208984,
				-1073.0931396484375
			],
			"type":"VEC3"
		},
		{
			"bufferView":5,
			"componentType":5126,
			"count":1171,
			"type":"VEC3"
		},
		{
			"bufferView":6,
			"componentType":5126,
			"count":1171,
			"type":"VEC2"
		},
		{
			"bufferView":7,
			"componentType":5123,
			"count":2895,
			"type":"SCALAR"
		},
		{
			"bufferView":8,
			"componentType":5126,
			"count":1836,
			"max":[
				883.2233276367188,
				123.8618392944336,
				906.115966796875
			],
			"min":[
				-1123.121337890625,
				-4.500640869140625,
				-1073.0931396484375
			],
			"type":"VEC3"
		},
		{
			"bufferView":9,
			"componentType":5126,
			"count":1836,
			"type":"VEC3"
		},
		{
			"bufferView":10,
			"componentType":5126,
			"count":1836,
			"type":"VEC2"
		},
		{
			"bufferView":11,
			"componentType":5123,
			"count":5697,
			"type":"SCALAR"
		},
		{
			"bufferView":12,
			"componentType":5126,
			"count":5041,
			"max":[
				651.73095703125,
				124.87159729003906,
				17.622127532958984
			],
			"min":[
				-908.6443481445312,
				-309.5596618652344,
				-499.8846740722656
			],
			"type":"VEC3"
		},
		{
			"bufferView":13,
			"componentType":5126,
			"count":5041,
			"type":"VEC3"
		},
		{
			"bufferView":14,
			"componentType":5126,
			"count":5041,
			"type":"VEC2"
		},
		{
			"bufferView":15,
			"componentType":5123,
			"count":7353,
			"type":"SCALAR"
		},
		{
			"bufferView":16,
			"componentType":5126,
			"count":2976,
			"max":[
				618.6267700195312,
				125.81365966796875,
				25.669816970825195
			],
			"min":[
				-719.7783203125,
				-144.0325927734375,
				-469.99658203125
			],
			"type":"VEC3"
		},
		{
			"bufferView":17,
			"componentType":5126,
			"count":2976,
			"type":"VEC3"
		},
		{
			"bufferView":18,
			"componentType":5126,
			"count":2976,
			"type":"VEC2"
		},
		{
			"bufferView":19,
			"componentType":5123,
			"count":4092,
			"type":"SCALAR"
		},
		{
			"bufferView":20,
			"componentType":5126,
			"count":5043,
			"max":[
				634.8767700195312,
				51.17784118652344,
				872.79638671875
			],
			"min":[
				-291.1829833984375,
				-2.1261308193206787,
				-1040.5799560546875
			],
			"type":"VEC3"
		},
		{
			"bufferView":21,
			"componentType":5126,
			"count":5043,
			"type":"VEC3"
		},
		{
			"bufferView":22,
			"componentType":5126,
			"count":5043,
			"type":"VEC2"
		},
		{
			"bufferView":23,
			"componentType":5123,
			"count":10344,
			"type":"SCALAR"
		},
		{
			"bufferView":24,
			"componentType":5126,
			"count":9521,
			"max":[
				635.068115234375,
				60.33750915527344,
				872.291015625
			],
			"min":[
				-290.6800842285156,
				1.563964605331421,
				-1040.07861328125
			],
			"type":"VEC3"
		},
		{
			"bufferView":25,
			"componentType":5126,
			"count":9521,
			"type":"VEC3"
		},
		{
			"bufferView":26,
			"componentType":5126,
			"count":9521,
			"type":"VEC2"
		},
		{
			"bufferView":27,
			"componentType":5123,
			"count":24228,
			"type":"SCALAR"
		},
		{
			"bufferView":28,
			"componentType":5126,
			"count":4882,
			"max":[
				404.9572448730469,
				144.88417053222656,
				873.7818603515625
			],
			"min":[
				-625.0054931640625,
				-2.1261308193206787,
				-1041.5576171875
			],
			"type":"VEC3"
		},
		{
			"bufferView":29,
			"componentType":5126,
			"count":4882,
			"type":"VEC3"
		},
		{
			"bufferView":30,
			"componentType":5126,
			"count":4882,
			"type":"VEC2"
		},
		{
			"bufferView":31,
			"componentType":5123,
			"count":9474,
			"type":"SCALAR"
		},
		{
			"bufferView":32,
			"componentType":5126,
			"count":24,
			"max":[
				5000,
				1.1457990407943726,
				5000
			],
			"min":[
				-5000,
				0.5157227516174316,
				-5000
			],
			"type":"VEC3"
		},
		{
			"bufferView":33,
			"componentType":5126,
			"count":24,
			"type":"VEC3"
		},
		{
			"bufferView":34,
			"componentType":5126,
			"count":24,
			"type":"VEC2"
		},
		{
			"bufferView":35,
			"componentType":5123,
			"count":96,
			"type":"SCALAR"
		}
	],
	"bufferViews":[
		{
			"buffer":0,
			"byteLength":25668,
			"byteOffset":0,
			"target":34962
		},
		{
			"buffer":0,
			"byteLength":25668,
			"byteOffset":25668,
			"target":34962
		},
		{
			"buffer":0,
			"byteLength":17112,
			"byteOffset":51336,
			"target":34962
		},
		{
			"buffer":0,
			"byteLength":11676,
			"byteOffset":68448,
			"target":34963
		},
		{
			"buffer":0,
			"byteLength":14052,
			"byteOffset":80124,
			"target":34962
		},
		{
			"buffer":0,
			"byteLength":14052,
			"byteOffset":94176,
			"target":34962
		},
		{
			"buffer":0,
			"byteLength":9368,
			"byteOffset":108228,
			"target":34962
		},
		{
			"buffer":0,
			"byteLength":5790,
			"byteOffset":117596,
			"target":34963
		},
		{
			"buffer":0,
			"byteLength":22032,
			"byteOffset":123388,
			"target":34962
		},
		{
			"buffer":0,
			"byteLength":22032,
			"byteOffset":145420,
			"target":34962
		},
		{
			"buffer":0,
			"byteLength":14688,
			"byteOffset":167452,
			"target":34962
		},
		{
			"buffer":0,
			"byteLength":11394,
			"byteOffset":182140,
			"target":34963
		},
		{
			"buffer":0,
			"byteLength":60492,
			"byteOffset":193536,
			"target":34962
		},
		{
			"buffer":0,
			"byteLength":60492,
			"byteOffset":254028,
			"target":34962
		},
		{
			"buffer":0,
			"byteLength":40328,
			"byteOffset":314520,
			"target":34962
		},
		{
			"buffer":0,
			"byteLength":14706,
			"byteOffset":354848,
			"target":34963
		},
		{
			"buffer":0,
			"byteLength":35712,
			"byteOffset":369556,
			"target":34962
		},
		{
			"buffer":0,
			"byteLength":35712,
			"byteOffset":405268,
			"target":34962
		},
		{
			"buffer":0,
			"byteLength":23808,
			"byteOffset":440980,
			"target":34962
		},
		{
			"buffer":0,
			"byteLength":8184,
			"byteOffset":464788,
			"target":34963
		},
		{
			"buffer":0,
			"byteLength":60516,
			"byteOffset":472972,
			"target":34962
		},
		{
			"buffer":0,
			"byteLength":60516,
			"byteOffset":533488,
			"target":34962
		},
		{
			"buffer":0,
			"byteLength":40344,
			"byteOffset":594004,
			"target":34962
		},
		{
			"buffer":0,
			"byteLength":20688,
			"byteOffset":634348,
			"target":34963
		},
		{
			"buffer":0,
			"byteLength":114252,
			"byteOffset":655036,
			"target":34962
		},
		{
			"buffer":0,
			"byteLength":114252,
			"byteOffset":769288,
			"target":34962
		},
		{
			"buffer":0,
			"byteLength":76168,
			"byteOffset":883540,
			"target":34962
		},
		{
			"buffer":0,
			"byteLength":48456,
			"byteOffset":959708,
			"target":34963
		},
		{
			"buffer":0,
			"byteLength":58584,
			"byteOffset":1008164,
			"target":34962
		},
		{
			"buffer":0,
			"byteLength":58584,
			"byteOffset":1066748,
			"target":34962
		},
		{
			"buffer":0,
			"byteLength":39056,
			"byteOffset":1125332,
			"target":34962
		},
		{
			"buffer":0,
			"byteLength":18948,
			"byteOffset":1164388,
			"target":34963
		},
		{
			"buffer":0,
			"byteLength":288,
			"byteOffset":1183336,
			"target":34962
		},
		{
			"buffer":0,
			"byteLength":288,
			"byteOffset":1183624,
			"target":34962
		},
		{
			"buffer":0,
			"byteLength":192,
			"byteOffset":1183912,
			"target":34962
		},
		{
			"buffer":0,
			"byteLength":192,
			"byteOffset":1184104,
			"target":34963
		}
	],
	"buffers":[
		{
			"byteLength":1184296,
			"uri":"Hexstaria_Map.bin"
		}
	]
}
