{
	"asset":{
		"generator":"Khronos glTF Blender I/O v4.3.47",
		"version":"2.0"
	},
	"scene":0,
	"scenes":[
		{
			"name":"Scene",
			"nodes":[
				21,
				22
			]
		}
	],
	"nodes":[
		{
			"name":"Head",
			"translation":[
				0,
				1.274259328842163,
				0
			]
		},
		{
			"name":"Middle_R",
			"translation":[
				0,
				1.1180546283721924,
				0
			]
		},
		{
			"name":"Pinky_R",
			"translation":[
				-0.01807691901922226,
				1.001213550567627,
				-0.38912299275398254
			]
		},
		{
			"name":"Index_R",
			"translation":[
				0.01812131144106388,
				1.001213550567627,
				0.3900785744190216
			]
		},
		{
			"name":"Thumb_R",
			"rotation":[
				0.5348745584487915,
				0.07596100866794586,
				0.03971333056688309,
				0.8405724167823792
			],
			"scale":[
				1,
				1,
				0.9999999403953552
			],
			"translation":[
				0.043949924409389496,
				0.5568463802337646,
				0.6140896081924438
			]
		},
		{
			"children":[
				1,
				2,
				3,
				4
			],
			"name":"Palm_R",
			"rotation":[
				0.01641123928129673,
				-0.01641123928129673,
				0.7069162726402283,
				0.706916332244873
			],
			"translation":[
				-1.6366299390792847,
				0.6716718673706055,
				0
			]
		},
		{
			"name":"Middle_L",
			"translation":[
				0,
				1.1180546283721924,
				0
			]
		},
		{
			"name":"Pinky_L",
			"translation":[
				0.01807691901922226,
				1.001213550567627,
				-0.38912299275398254
			]
		},
		{
			"name":"Index_L",
			"translation":[
				-0.01812131144106388,
				1.001213550567627,
				0.3900785744190216
			]
		},
		{
			"name":"Thumb_L",
			"rotation":[
				0.5348745584487915,
				-0.07596100866794586,
				-0.03971333056688309,
				0.8405724167823792
			],
			"scale":[
				1,
				1,
				0.9999999403953552
			],
			"translation":[
				-0.043949924409389496,
				0.5568463802337646,
				0.6140896081924438
			]
		},
		{
			"children":[
				6,
				7,
				8,
				9
			],
			"name":"Palm_L",
			"rotation":[
				0.01641123928129673,
				0.01641123928129673,
				-0.7069162726402283,
				0.706916332244873
			],
			"translation":[
				1.6366299390792847,
				0.6716718673706055,
				0
			]
		},
		{
			"name":"Wings_L",
			"rotation":[
				-0.019291535019874573,
				-0.065467968583107,
				-0.2023749053478241,
				0.9769269227981567
			],
			"scale":[
				1,
				0.9999999403953552,
				1
			],
			"translation":[
				1.4210854715202004e-14,
				0.2034081220626831,
				-5.960464477539063e-08
			]
		},
		{
			"name":"Wings_R",
			"rotation":[
				-0.019291570410132408,
				0.06546774506568909,
				0.2023749053478241,
				0.9769269824028015
			],
			"scale":[
				1,
				0.9999999403953552,
				0.9999999403953552
			],
			"translation":[
				1.4210854715202004e-14,
				0.2034081220626831,
				-5.960464477539063e-08
			]
		},
		{
			"children":[
				11,
				12
			],
			"name":"Wing_Core",
			"rotation":[
				-0.5779281854629517,
				9.728522343266377e-08,
				-6.889440840041061e-08,
				0.8160876035690308
			],
			"translation":[
				0,
				0.8489058017730713,
				-0.7154229879379272
			]
		},
		{
			"children":[
				0,
				5,
				10,
				13
			],
			"name":"Chest",
			"translation":[
				0,
				1.2000000476837158,
				0
			]
		},
		{
			"name":"Bone.002",
			"translation":[
				0,
				1.2000000476837158,
				0
			]
		},
		{
			"name":"Foot_R",
			"rotation":[
				4.21607770917376e-09,
				-5.760115939779098e-08,
				0.7071067690849304,
				0.7071067690849304
			],
			"translation":[
				0,
				0.6360995173454285,
				0
			]
		},
		{
			"children":[
				16
			],
			"name":"Leg_R",
			"rotation":[
				-2.6692537957728746e-08,
				2.6692537957728746e-08,
				0.7071067690849304,
				0.7071067690849304
			],
			"translation":[
				0,
				1.2000000476837158,
				0
			]
		},
		{
			"name":"Foot_L",
			"rotation":[
				4.21607770917376e-09,
				5.760115939779098e-08,
				-0.7071067690849304,
				0.7071067690849304
			],
			"translation":[
				0,
				0.6360995173454285,
				0
			]
		},
		{
			"children":[
				18
			],
			"name":"Leg_L",
			"rotation":[
				-2.6692537957728746e-08,
				-2.6692537957728746e-08,
				-0.7071067690849304,
				0.7071067690849304
			],
			"translation":[
				0,
				1.2000000476837158,
				0
			]
		},
		{
			"children":[
				14,
				15,
				17,
				19
			],
			"name":"Hips"
		},
		{
			"children":[
				20
			],
			"name":"Dragon_Wings_Armature"
		},
		{
			"mesh":0,
			"name":"Dragon_Wings",
			"skin":0
		}
	],
	"materials":[
		{
			"doubleSided":true,
			"emissiveFactor":[
				1,
				1,
				1
			],
			"emissiveTexture":{
				"index":0
			},
			"name":"Material",
			"pbrMetallicRoughness":{
				"baseColorTexture":{
					"index":1
				},
				"metallicFactor":0
			}
		}
	],
	"meshes":[
		{
			"name":"Plane.051",
			"primitives":[
				{
					"attributes":{
						"POSITION":0,
						"NORMAL":1,
						"TEXCOORD_0":2,
						"JOINTS_0":3,
						"WEIGHTS_0":4
					},
					"indices":5,
					"material":0
				}
			]
		}
	],
	"textures":[
		{
			"sampler":0,
			"source":0
		},
		{
			"sampler":0,
			"source":0
		}
	],
	"images":[
		{
			"mimeType":"image/png",
			"name":"Shader_TestStrip",
			"uri":"Shader_TestStrip.png"
		}
	],
	"skins":[
		{
			"inverseBindMatrices":6,
			"joints":[
				20,
				14,
				0,
				5,
				1,
				2,
				3,
				4,
				10,
				6,
				7,
				8,
				9,
				13,
				11,
				12,
				15,
				17,
				16,
				19,
				18
			],
			"name":"Dragon_Wings_Armature"
		}
	],
	"accessors":[
		{
			"bufferView":0,
			"componentType":5126,
			"count":1460,
			"max":[
				2.106616973876953,
				3.8576250076293945,
				-0.9248409271240234
			],
			"min":[
				-2.106616973876953,
				1.6014553308486938,
				-4.751361846923828
			],
			"type":"VEC3"
		},
		{
			"bufferView":1,
			"componentType":5126,
			"count":1460,
			"type":"VEC3"
		},
		{
			"bufferView":2,
			"componentType":5126,
			"count":1460,
			"type":"VEC2"
		},
		{
			"bufferView":3,
			"componentType":5121,
			"count":1460,
			"type":"VEC4"
		},
		{
			"bufferView":4,
			"componentType":5126,
			"count":1460,
			"type":"VEC4"
		},
		{
			"bufferView":5,
			"componentType":5123,
			"count":2676,
			"type":"SCALAR"
		},
		{
			"bufferView":6,
			"componentType":5126,
			"count":21,
			"type":"MAT4"
		}
	],
	"bufferViews":[
		{
			"buffer":0,
			"byteLength":17520,
			"byteOffset":0,
			"target":34962
		},
		{
			"buffer":0,
			"byteLength":17520,
			"byteOffset":17520,
			"target":34962
		},
		{
			"buffer":0,
			"byteLength":11680,
			"byteOffset":35040,
			"target":34962
		},
		{
			"buffer":0,
			"byteLength":5840,
			"byteOffset":46720,
			"target":34962
		},
		{
			"buffer":0,
			"byteLength":23360,
			"byteOffset":52560,
			"target":34962
		},
		{
			"buffer":0,
			"byteLength":5352,
			"byteOffset":75920,
			"target":34963
		},
		{
			"buffer":0,
			"byteLength":1344,
			"byteOffset":81272
		}
	],
	"samplers":[
		{
			"magFilter":9728,
			"minFilter":9984
		}
	],
	"buffers":[
		{
			"byteLength":82616,
			"uri":"Dragon_Wings.bin"
		}
	]
}
