{
	"asset":{
		"generator":"Khronos glTF Blender I/O v4.4.55",
		"version":"2.0"
	},
	"scene":0,
	"scenes":[
		{
			"name":"Scene",
			"nodes":[
				0,
				1,
				2
			]
		}
	],
	"nodes":[
		{
			"mesh":0,
			"name":"Board"
		},
		{
			"mesh":1,
			"name":"RedPuck"
		},
		{
			"mesh":2,
			"name":"YellowPuck",
			"translation":[
				-0.2860850989818573,
				0,
				0
			]
		}
	],
	"materials":[
		{
			"doubleSided":true,
			"name":"Material",
			"pbrMetallicRoughness":{
				"baseColorTexture":{
					"index":0
				},
				"metallicFactor":0,
				"roughnessFactor":0.5
			}
		}
	],
	"meshes":[
		{
			"name":"Cube",
			"primitives":[
				{
					"attributes":{
						"POSITION":0,
						"NORMAL":1,
						"TEXCOORD_0":2
					},
					"indices":3,
					"material":0
				}
			]
		},
		{
			"name":"Cube.001",
			"primitives":[
				{
					"attributes":{
						"POSITION":4,
						"NORMAL":5,
						"TEXCOORD_0":6
					},
					"indices":7,
					"material":0
				}
			]
		},
		{
			"name":"Cube.002",
			"primitives":[
				{
					"attributes":{
						"POSITION":8,
						"NORMAL":9,
						"TEXCOORD_0":10
					},
					"indices":7,
					"material":0
				}
			]
		}
	],
	"textures":[
		{
			"sampler":0,
			"source":0
		}
	],
	"images":[
		{
			"mimeType":"image/png",
			"name":"img",
			"uri":"img.png"
		}
	],
	"accessors":[
		{
			"bufferView":0,
			"componentType":5126,
			"count":1680,
			"max":[
				1.1076610088348389,
				2.0005130767822266,
				0.3138981759548187
			],
			"min":[
				-1.1076610088348389,
				0,
				-0.3138981759548187
			],
			"type":"VEC3"
		},
		{
			"bufferView":1,
			"componentType":5126,
			"count":1680,
			"type":"VEC3"
		},
		{
			"bufferView":2,
			"componentType":5126,
			"count":1680,
			"type":"VEC2"
		},
		{
			"bufferView":3,
			"componentType":5123,
			"count":5256,
			"type":"SCALAR"
		},
		{
			"bufferView":4,
			"componentType":5126,
			"count":96,
			"max":[
				0.8787582516670227,
				2.278521776199341,
				0.022678105160593987
			],
			"min":[
				0.6161652207374573,
				2.0159289836883545,
				-0.02267809584736824
			],
			"type":"VEC3"
		},
		{
			"bufferView":5,
			"componentType":5126,
			"count":96,
			"type":"VEC3"
		},
		{
			"bufferView":6,
			"componentType":5126,
			"count":96,
			"type":"VEC2"
		},
		{
			"bufferView":7,
			"componentType":5123,
			"count":180,
			"type":"SCALAR"
		},
		{
			"bufferView":8,
			"componentType":5126,
			"count":96,
			"max":[
				0.8787582516670227,
				2.278521776199341,
				0.022678105160593987
			],
			"min":[
				0.6161652207374573,
				2.0159289836883545,
				-0.02267809584736824
			],
			"type":"VEC3"
		},
		{
			"bufferView":9,
			"componentType":5126,
			"count":96,
			"type":"VEC3"
		},
		{
			"bufferView":10,
			"componentType":5126,
			"count":96,
			"type":"VEC2"
		}
	],
	"bufferViews":[
		{
			"buffer":0,
			"byteLength":20160,
			"byteOffset":0,
			"target":34962
		},
		{
			"buffer":0,
			"byteLength":20160,
			"byteOffset":20160,
			"target":34962
		},
		{
			"buffer":0,
			"byteLength":13440,
			"byteOffset":40320,
			"target":34962
		},
		{
			"buffer":0,
			"byteLength":10512,
			"byteOffset":53760,
			"target":34963
		},
		{
			"buffer":0,
			"byteLength":1152,
			"byteOffset":64272,
			"target":34962
		},
		{
			"buffer":0,
			"byteLength":1152,
			"byteOffset":65424,
			"target":34962
		},
		{
			"buffer":0,
			"byteLength":768,
			"byteOffset":66576,
			"target":34962
		},
		{
			"buffer":0,
			"byteLength":360,
			"byteOffset":67344,
			"target":34963
		},
		{
			"buffer":0,
			"byteLength":1152,
			"byteOffset":67704,
			"target":34962
		},
		{
			"buffer":0,
			"byteLength":1152,
			"byteOffset":68856,
			"target":34962
		},
		{
			"buffer":0,
			"byteLength":768,
			"byteOffset":70008,
			"target":34962
		}
	],
	"samplers":[
		{
			"magFilter":9729,
			"minFilter":9987
		}
	],
	"buffers":[
		{
			"byteLength":70776,
			"uri":"Line4_Objects.bin"
		}
	]
}
