{
	"asset":{
		"generator":"Khronos glTF Blender I/O v4.0.43",
		"version":"2.0"
	},
	"scene":0,
	"scenes":[
		{
			"name":"Scene",
			"nodes":[
				0
			]
		}
	],
	"nodes":[
		{
			"mesh":0,
			"name":"Cube"
		}
	],
	"materials":[
		{
			"doubleSided":true,
			"name":"Material",
			"pbrMetallicRoughness":{
				"baseColorFactor":[
					0.800000011920929,
					0.800000011920929,
					0.800000011920929,
					1
				],
				"metallicFactor":0,
				"roughnessFactor":0.5
			}
		},
		{
			"doubleSided":true,
			"name":"Material.001",
			"pbrMetallicRoughness":{
				"baseColorFactor":[
					0.26025575399398804,
					0.06662065535783768,
					0.8001648187637329,
					1
				],
				"metallicFactor":0,
				"roughnessFactor":0.5
			}
		}
	],
	"meshes":[
		{
			"name":"Cube",
			"primitives":[
				{
					"attributes":{
						"POSITION":0,
						"NORMAL":1,
						"TEXCOORD_0":2
					},
					"indices":3,
					"material":0
				},
				{
					"attributes":{
						"POSITION":4,
						"NORMAL":5,
						"TEXCOORD_0":6
					},
					"indices":7,
					"material":1
				}
			]
		}
	],
	"accessors":[
		{
			"bufferView":0,
			"componentType":5126,
			"count":163,
			"max":[
				1,
				1,
				0.5614643692970276
			],
			"min":[
				-1,
				-1,
				-0.5614643692970276
			],
			"type":"VEC3"
		},
		{
			"bufferView":1,
			"componentType":5126,
			"count":163,
			"type":"VEC3"
		},
		{
			"bufferView":2,
			"componentType":5126,
			"count":163,
			"type":"VEC2"
		},
		{
			"bufferView":3,
			"componentType":5123,
			"count":444,
			"type":"SCALAR"
		},
		{
			"bufferView":4,
			"componentType":5126,
			"count":10,
			"max":[
				0.7601970434188843,
				0.7601970434188843,
				0.47504541277885437
			],
			"min":[
				-0.7601970434188843,
				-0.7601970434188843,
				0.47504541277885437
			],
			"type":"VEC3"
		},
		{
			"bufferView":5,
			"componentType":5126,
			"count":10,
			"type":"VEC3"
		},
		{
			"bufferView":6,
			"componentType":5126,
			"count":10,
			"type":"VEC2"
		},
		{
			"bufferView":7,
			"componentType":5123,
			"count":24,
			"type":"SCALAR"
		}
	],
	"bufferViews":[
		{
			"buffer":0,
			"byteLength":1956,
			"byteOffset":0,
			"target":34962
		},
		{
			"buffer":0,
			"byteLength":1956,
			"byteOffset":1956,
			"target":34962
		},
		{
			"buffer":0,
			"byteLength":1304,
			"byteOffset":3912,
			"target":34962
		},
		{
			"buffer":0,
			"byteLength":888,
			"byteOffset":5216,
			"target":34963
		},
		{
			"buffer":0,
			"byteLength":120,
			"byteOffset":6104,
			"target":34962
		},
		{
			"buffer":0,
			"byteLength":120,
			"byteOffset":6224,
			"target":34962
		},
		{
			"buffer":0,
			"byteLength":80,
			"byteOffset":6344,
			"target":34962
		},
		{
			"buffer":0,
			"byteLength":48,
			"byteOffset":6424,
			"target":34963
		}
	],
	"buffers":[
		{
			"byteLength":6472,
			"uri":"Phone_Default_Icon.bin"
		}
	]
}
