{
	"asset":{
		"generator":"Khronos glTF Blender I/O v4.0.43",
		"version":"2.0"
	},
	"scene":0,
	"scenes":[
		{
			"name":"Scene",
			"nodes":[
				23,
				24
			]
		}
	],
	"nodes":[
		{
			"name":"Head",
			"translation":[
				0,
				1.274259328842163,
				0
			]
		},
		{
			"name":"Middle_R",
			"translation":[
				0,
				1.1180546283721924,
				0
			]
		},
		{
			"name":"Pinky_R",
			"translation":[
				-0.01807691901922226,
				1.001213550567627,
				-0.38912299275398254
			]
		},
		{
			"name":"Index_R",
			"translation":[
				0.01812131144106388,
				1.001213550567627,
				0.3900785744190216
			]
		},
		{
			"name":"Thumb_R",
			"rotation":[
				0.5348745584487915,
				0.07596100866794586,
				0.03971333056688309,
				0.8405724167823792
			],
			"scale":[
				1,
				1,
				0.9999999403953552
			],
			"translation":[
				0.043949924409389496,
				0.5568463802337646,
				0.6140896081924438
			]
		},
		{
			"children":[
				1,
				2,
				3,
				4
			],
			"name":"Palm_R",
			"rotation":[
				0.01641123928129673,
				-0.01641123928129673,
				0.7069162726402283,
				0.706916332244873
			],
			"translation":[
				-1.6366299390792847,
				0.6716718673706055,
				0
			]
		},
		{
			"name":"Middle_L",
			"translation":[
				0,
				1.1180546283721924,
				0
			]
		},
		{
			"name":"Pinky_L",
			"translation":[
				0.01807691901922226,
				1.001213550567627,
				-0.38912299275398254
			]
		},
		{
			"name":"Index_L",
			"translation":[
				-0.01812131144106388,
				1.001213550567627,
				0.3900785744190216
			]
		},
		{
			"name":"Thumb_L",
			"rotation":[
				0.5348745584487915,
				-0.07596100866794586,
				-0.03971333056688309,
				0.8405724167823792
			],
			"scale":[
				1,
				1,
				0.9999999403953552
			],
			"translation":[
				-0.043949924409389496,
				0.5568463802337646,
				0.6140896081924438
			]
		},
		{
			"children":[
				6,
				7,
				8,
				9
			],
			"name":"Palm_L",
			"rotation":[
				0.01641123928129673,
				0.01641123928129673,
				-0.7069162726402283,
				0.706916332244873
			],
			"translation":[
				1.6366299390792847,
				0.6716718673706055,
				0
			]
		},
		{
			"name":"Cape.004",
			"rotation":[
				0.1326577216386795,
				-1.0753178133083435e-14,
				3.1628051289089854e-08,
				0.9911619424819946
			],
			"scale":[
				1,
				0.9999999403953552,
				1
			],
			"translation":[
				8.651064280630442e-15,
				0.6614434123039246,
				7.450580596923828e-09
			]
		},
		{
			"children":[
				11
			],
			"name":"Cape.003",
			"rotation":[
				0.15147195756435394,
				-2.5833203848649178e-14,
				3.6113714685370724e-08,
				0.9884615540504456
			],
			"scale":[
				1,
				1,
				0.9999999403953552
			],
			"translation":[
				2.882022149142821e-14,
				0.4486842155456543,
				-1.043081283569336e-07
			]
		},
		{
			"children":[
				12
			],
			"name":"Cape.002",
			"rotation":[
				0.016251923516392708,
				1.1919353681832945e-07,
				1.9373789239551797e-09,
				0.9998679757118225
			],
			"scale":[
				1,
				0.9999999403953552,
				0.9999999403953552
			],
			"translation":[
				0,
				0.7819406986236572,
				1.1920928955078125e-07
			]
		},
		{
			"children":[
				13
			],
			"name":"Cape.001",
			"rotation":[
				-0.35998737812042236,
				0,
				0,
				0.9329571723937988
			],
			"scale":[
				1,
				0.9999998807907104,
				0.9999999403953552
			],
			"translation":[
				0,
				1.0411229133605957,
				-8.940696716308594e-08
			]
		},
		{
			"children":[
				14
			],
			"name":"Cape",
			"rotation":[
				-0.8849046230316162,
				0,
				0,
				0.46577227115631104
			],
			"scale":[
				1,
				0.9999999403953552,
				0.9999997615814209
			],
			"translation":[
				0,
				1.274259328842163,
				0
			]
		},
		{
			"children":[
				0,
				5,
				10,
				15
			],
			"name":"Chest",
			"translation":[
				0,
				1.2000000476837158,
				0
			]
		},
		{
			"name":"Bone.002",
			"translation":[
				0,
				1.2000000476837158,
				0
			]
		},
		{
			"name":"Foot_R",
			"rotation":[
				4.21607770917376e-09,
				-5.760115939779098e-08,
				0.7071067690849304,
				0.7071067690849304
			],
			"translation":[
				0,
				0.6360995173454285,
				0
			]
		},
		{
			"children":[
				18
			],
			"name":"Leg_R",
			"rotation":[
				-2.6692537957728746e-08,
				2.6692537957728746e-08,
				0.7071067690849304,
				0.7071067690849304
			],
			"translation":[
				0,
				1.2000000476837158,
				0
			]
		},
		{
			"name":"Foot_L",
			"rotation":[
				4.21607770917376e-09,
				5.760115939779098e-08,
				-0.7071067690849304,
				0.7071067690849304
			],
			"translation":[
				0,
				0.6360995173454285,
				0
			]
		},
		{
			"children":[
				20
			],
			"name":"Leg_L",
			"rotation":[
				-2.6692537957728746e-08,
				-2.6692537957728746e-08,
				-0.7071067690849304,
				0.7071067690849304
			],
			"translation":[
				0,
				1.2000000476837158,
				0
			]
		},
		{
			"children":[
				16,
				17,
				19,
				21
			],
			"name":"Hips"
		},
		{
			"mesh":0,
			"name":"Cape",
			"skin":0
		},
		{
			"children":[
				22
			],
			"name":"Cape_Armature"
		}
	],
	"materials":[
		{
			"doubleSided":true,
			"name":"MainHat",
			"pbrMetallicRoughness":{
				"baseColorFactor":[
					0.21589697897434235,
					0.004391137510538101,
					0.23453356325626373,
					1
				],
				"metallicFactor":0,
				"roughnessFactor":0
			}
		}
	],
	"meshes":[
		{
			"name":"Plane.048",
			"primitives":[
				{
					"attributes":{
						"POSITION":0,
						"NORMAL":1,
						"TEXCOORD_0":2,
						"JOINTS_0":3,
						"WEIGHTS_0":4
					},
					"indices":5,
					"material":0
				}
			]
		}
	],
	"skins":[
		{
			"inverseBindMatrices":6,
			"joints":[
				22,
				16,
				0,
				5,
				1,
				2,
				3,
				4,
				10,
				6,
				7,
				8,
				9,
				15,
				14,
				13,
				12,
				11,
				17,
				19,
				18,
				21,
				20
			],
			"name":"Cape_Armature"
		}
	],
	"accessors":[
		{
			"bufferView":0,
			"componentType":5126,
			"count":109,
			"max":[
				1.4134329557418823,
				2.4210078716278076,
				0.21892762184143066
			],
			"min":[
				-1.4253376722335815,
				0.003037959337234497,
				-1.6113053560256958
			],
			"type":"VEC3"
		},
		{
			"bufferView":1,
			"componentType":5126,
			"count":109,
			"type":"VEC3"
		},
		{
			"bufferView":2,
			"componentType":5126,
			"count":109,
			"type":"VEC2"
		},
		{
			"bufferView":3,
			"componentType":5121,
			"count":109,
			"type":"VEC4"
		},
		{
			"bufferView":4,
			"componentType":5126,
			"count":109,
			"type":"VEC4"
		},
		{
			"bufferView":5,
			"componentType":5123,
			"count":240,
			"type":"SCALAR"
		},
		{
			"bufferView":6,
			"componentType":5126,
			"count":23,
			"type":"MAT4"
		}
	],
	"bufferViews":[
		{
			"buffer":0,
			"byteLength":1308,
			"byteOffset":0,
			"target":34962
		},
		{
			"buffer":0,
			"byteLength":1308,
			"byteOffset":1308,
			"target":34962
		},
		{
			"buffer":0,
			"byteLength":872,
			"byteOffset":2616,
			"target":34962
		},
		{
			"buffer":0,
			"byteLength":436,
			"byteOffset":3488,
			"target":34962
		},
		{
			"buffer":0,
			"byteLength":1744,
			"byteOffset":3924,
			"target":34962
		},
		{
			"buffer":0,
			"byteLength":480,
			"byteOffset":5668,
			"target":34963
		},
		{
			"buffer":0,
			"byteLength":1472,
			"byteOffset":6148
		}
	],
	"buffers":[
		{
			"byteLength":7620,
			"uri":"Cape.bin"
		}
	]
}
