{
	"asset":{
		"generator":"Khronos glTF Blender I/O v4.0.43",
		"version":"2.0"
	},
	"scene":0,
	"scenes":[
		{
			"name":"Scene",
			"nodes":[
				0,
				1,
				2
			]
		}
	],
	"nodes":[
		{
			"mesh":0,
			"name":"Grass_Area_1",
			"translation":[
				-0.24604330956935883,
				-0.06048903614282608,
				-0.181494802236557
			]
		},
		{
			"mesh":1,
			"name":"Grass_Area_2",
			"translation":[
				-0.24604330956935883,
				-0.06048903614282608,
				-0.181494802236557
			]
		},
		{
			"mesh":2,
			"name":"Grass_Area_3",
			"translation":[
				-0.24604330956935883,
				-0.06048903614282608,
				-0.181494802236557
			]
		}
	],
	"materials":[
		{
			"doubleSided":true,
			"name":"Grass",
			"pbrMetallicRoughness":{}
		}
	],
	"meshes":[
		{
			"name":"Plane.004",
			"primitives":[
				{
					"attributes":{
						"POSITION":0,
						"NORMAL":1,
						"TEXCOORD_0":2
					},
					"indices":3,
					"material":0
				}
			]
		},
		{
			"name":"Plane.005",
			"primitives":[
				{
					"attributes":{
						"POSITION":4,
						"NORMAL":5,
						"TEXCOORD_0":6
					},
					"indices":7,
					"material":0
				}
			]
		},
		{
			"name":"Plane.006",
			"primitives":[
				{
					"attributes":{
						"POSITION":8,
						"NORMAL":9,
						"TEXCOORD_0":10
					},
					"indices":11,
					"material":0
				}
			]
		}
	],
	"accessors":[
		{
			"bufferView":0,
			"componentType":5126,
			"count":336,
			"max":[
				882.3715209960938,
				44.309452056884766,
				85.46623229980469
			],
			"min":[
				170.2972869873047,
				-4.500640869140625,
				-930.99658203125
			],
			"type":"VEC3"
		},
		{
			"bufferView":1,
			"componentType":5126,
			"count":336,
			"type":"VEC3"
		},
		{
			"bufferView":2,
			"componentType":5126,
			"count":336,
			"type":"VEC2"
		},
		{
			"bufferView":3,
			"componentType":5123,
			"count":1323,
			"type":"SCALAR"
		},
		{
			"bufferView":4,
			"componentType":5126,
			"count":216,
			"max":[
				810.38623046875,
				34.478759765625,
				905.2161865234375
			],
			"min":[
				102.04771423339844,
				4.301342010498047,
				484.861328125
			],
			"type":"VEC3"
		},
		{
			"bufferView":5,
			"componentType":5126,
			"count":216,
			"type":"VEC3"
		},
		{
			"bufferView":6,
			"componentType":5126,
			"count":216,
			"type":"VEC2"
		},
		{
			"bufferView":7,
			"componentType":5123,
			"count":900,
			"type":"SCALAR"
		},
		{
			"bufferView":8,
			"componentType":5126,
			"count":264,
			"max":[
				-350.45440673828125,
				123.8618392944336,
				5.663079738616943
			],
			"min":[
				-1122.1290283203125,
				1.2051734924316406,
				-1072.5234375
			],
			"type":"VEC3"
		},
		{
			"bufferView":9,
			"componentType":5126,
			"count":264,
			"type":"VEC3"
		},
		{
			"bufferView":10,
			"componentType":5126,
			"count":264,
			"type":"VEC2"
		},
		{
			"bufferView":11,
			"componentType":5123,
			"count":1080,
			"type":"SCALAR"
		}
	],
	"bufferViews":[
		{
			"buffer":0,
			"byteLength":4032,
			"byteOffset":0,
			"target":34962
		},
		{
			"buffer":0,
			"byteLength":4032,
			"byteOffset":4032,
			"target":34962
		},
		{
			"buffer":0,
			"byteLength":2688,
			"byteOffset":8064,
			"target":34962
		},
		{
			"buffer":0,
			"byteLength":2646,
			"byteOffset":10752,
			"target":34963
		},
		{
			"buffer":0,
			"byteLength":2592,
			"byteOffset":13400,
			"target":34962
		},
		{
			"buffer":0,
			"byteLength":2592,
			"byteOffset":15992,
			"target":34962
		},
		{
			"buffer":0,
			"byteLength":1728,
			"byteOffset":18584,
			"target":34962
		},
		{
			"buffer":0,
			"byteLength":1800,
			"byteOffset":20312,
			"target":34963
		},
		{
			"buffer":0,
			"byteLength":3168,
			"byteOffset":22112,
			"target":34962
		},
		{
			"buffer":0,
			"byteLength":3168,
			"byteOffset":25280,
			"target":34962
		},
		{
			"buffer":0,
			"byteLength":2112,
			"byteOffset":28448,
			"target":34962
		},
		{
			"buffer":0,
			"byteLength":2160,
			"byteOffset":30560,
			"target":34963
		}
	],
	"buffers":[
		{
			"byteLength":32720,
			"uri":"Grass_Zone_1.bin"
		}
	]
}
