{
	"asset":{
		"generator":"Khronos glTF Blender I/O v4.2.57",
		"version":"2.0"
	},
	"scene":0,
	"scenes":[
		{
			"name":"Scene",
			"nodes":[
				0,
				1
			]
		}
	],
	"nodes":[
		{
			"mesh":0,
			"name":"Tree_Area_1",
			"translation":[
				-0.24604330956935883,
				-0.06048903614282608,
				-0.181494802236557
			]
		},
		{
			"mesh":1,
			"name":"Tree_Area_2",
			"translation":[
				-0.24604330956935883,
				-0.06048903614282608,
				-0.181494802236557
			]
		}
	],
	"materials":[
		{
			"doubleSided":true,
			"name":"Grass"
		}
	],
	"meshes":[
		{
			"name":"Plane.007",
			"primitives":[
				{
					"attributes":{
						"POSITION":0,
						"NORMAL":1,
						"TEXCOORD_0":2
					},
					"indices":3,
					"material":0
				}
			]
		},
		{
			"name":"Plane.008",
			"primitives":[
				{
					"attributes":{
						"POSITION":4,
						"NORMAL":5,
						"TEXCOORD_0":6
					},
					"indices":7,
					"material":0
				}
			]
		}
	],
	"accessors":[
		{
			"bufferView":0,
			"componentType":5126,
			"count":178,
			"max":[
				882.3715209960938,
				43.80454635620117,
				85.46623229980469
			],
			"min":[
				170.2972869873047,
				4.994524002075195,
				-930.99658203125
			],
			"type":"VEC3"
		},
		{
			"bufferView":1,
			"componentType":5126,
			"count":178,
			"type":"VEC3"
		},
		{
			"bufferView":2,
			"componentType":5126,
			"count":178,
			"type":"VEC2"
		},
		{
			"bufferView":3,
			"componentType":5123,
			"count":570,
			"type":"SCALAR"
		},
		{
			"bufferView":4,
			"componentType":5126,
			"count":195,
			"max":[
				-369.3384094238281,
				124.29192352294922,
				-23.112459182739258
			],
			"min":[
				-1122.1290283203125,
				2.1425981521606445,
				-1053.639404296875
			],
			"type":"VEC3"
		},
		{
			"bufferView":5,
			"componentType":5126,
			"count":195,
			"type":"VEC3"
		},
		{
			"bufferView":6,
			"componentType":5126,
			"count":195,
			"type":"VEC2"
		},
		{
			"bufferView":7,
			"componentType":5123,
			"count":678,
			"type":"SCALAR"
		}
	],
	"bufferViews":[
		{
			"buffer":0,
			"byteLength":2136,
			"byteOffset":0,
			"target":34962
		},
		{
			"buffer":0,
			"byteLength":2136,
			"byteOffset":2136,
			"target":34962
		},
		{
			"buffer":0,
			"byteLength":1424,
			"byteOffset":4272,
			"target":34962
		},
		{
			"buffer":0,
			"byteLength":1140,
			"byteOffset":5696,
			"target":34963
		},
		{
			"buffer":0,
			"byteLength":2340,
			"byteOffset":6836,
			"target":34962
		},
		{
			"buffer":0,
			"byteLength":2340,
			"byteOffset":9176,
			"target":34962
		},
		{
			"buffer":0,
			"byteLength":1560,
			"byteOffset":11516,
			"target":34962
		},
		{
			"buffer":0,
			"byteLength":1356,
			"byteOffset":13076,
			"target":34963
		}
	],
	"buffers":[
		{
			"byteLength":14432,
			"uri":"Tree_Zone_1.bin"
		}
	]
}
