{
	"asset":{
		"generator":"Khronos glTF Blender I/O v4.2.57",
		"version":"2.0"
	},
	"scene":0,
	"scenes":[
		{
			"name":"Scene",
			"nodes":[
				0
			]
		}
	],
	"nodes":[
		{
			"mesh":0,
			"name":"Tree"
		}
	],
	"materials":[
		{
			"doubleSided":true,
			"name":"Wood",
			"pbrMetallicRoughness":{
				"baseColorFactor":[
					0.19859579205513,
					0.055992841720581055,
					0.03795592859387398,
					1
				],
				"metallicFactor":0,
				"roughnessFactor":0.5
			}
		},
		{
			"doubleSided":true,
			"name":"Leaf",
			"pbrMetallicRoughness":{
				"baseColorFactor":[
					0.15965911746025085,
					0.8001194596290588,
					0.4208647608757019,
					1
				],
				"metallicFactor":0,
				"roughnessFactor":0.5
			}
		}
	],
	"meshes":[
		{
			"name":"Plane.003",
			"primitives":[
				{
					"attributes":{
						"POSITION":0,
						"NORMAL":1,
						"TEXCOORD_0":2
					},
					"indices":3,
					"material":0
				},
				{
					"attributes":{
						"POSITION":4,
						"NORMAL":5,
						"TEXCOORD_0":6
					},
					"indices":7,
					"material":1
				}
			]
		}
	],
	"accessors":[
		{
			"bufferView":0,
			"componentType":5126,
			"count":72,
			"max":[
				3.5034313201904297,
				5.132233619689941,
				3.6849257946014404
			],
			"min":[
				-3.5034313201904297,
				0.06048903614282608,
				-3.3219363689422607
			],
			"type":"VEC3"
		},
		{
			"bufferView":1,
			"componentType":5126,
			"count":72,
			"type":"VEC3"
		},
		{
			"bufferView":2,
			"componentType":5126,
			"count":72,
			"type":"VEC2"
		},
		{
			"bufferView":3,
			"componentType":5123,
			"count":114,
			"type":"SCALAR"
		},
		{
			"bufferView":4,
			"componentType":5126,
			"count":120,
			"max":[
				4.676929473876953,
				18.789714813232422,
				4.858423709869385
			],
			"min":[
				-4.676928997039795,
				2.9536893367767334,
				-4.495434284210205
			],
			"type":"VEC3"
		},
		{
			"bufferView":5,
			"componentType":5126,
			"count":120,
			"type":"VEC3"
		},
		{
			"bufferView":6,
			"componentType":5126,
			"count":120,
			"type":"VEC2"
		},
		{
			"bufferView":7,
			"componentType":5123,
			"count":168,
			"type":"SCALAR"
		}
	],
	"bufferViews":[
		{
			"buffer":0,
			"byteLength":864,
			"byteOffset":0,
			"target":34962
		},
		{
			"buffer":0,
			"byteLength":864,
			"byteOffset":864,
			"target":34962
		},
		{
			"buffer":0,
			"byteLength":576,
			"byteOffset":1728,
			"target":34962
		},
		{
			"buffer":0,
			"byteLength":228,
			"byteOffset":2304,
			"target":34963
		},
		{
			"buffer":0,
			"byteLength":1440,
			"byteOffset":2532,
			"target":34962
		},
		{
			"buffer":0,
			"byteLength":1440,
			"byteOffset":3972,
			"target":34962
		},
		{
			"buffer":0,
			"byteLength":960,
			"byteOffset":5412,
			"target":34962
		},
		{
			"buffer":0,
			"byteLength":336,
			"byteOffset":6372,
			"target":34963
		}
	],
	"buffers":[
		{
			"byteLength":6708,
			"uri":"Tree.bin"
		}
	]
}
