{
	"asset":{
		"generator":"Khronos glTF Blender I/O v4.0.43",
		"version":"2.0"
	},
	"scene":0,
	"scenes":[
		{
			"name":"Scene",
			"nodes":[
				28,
				29
			]
		}
	],
	"nodes":[
		{
			"name":"Head",
			"translation":[
				0,
				1.274259328842163,
				0
			]
		},
		{
			"name":"Middle_R",
			"translation":[
				0,
				1.1180546283721924,
				0
			]
		},
		{
			"name":"Pinky_R",
			"translation":[
				-0.01807691901922226,
				1.001213550567627,
				-0.38912299275398254
			]
		},
		{
			"name":"Index_R",
			"translation":[
				0.01812131144106388,
				1.001213550567627,
				0.3900785744190216
			]
		},
		{
			"name":"Thumb_R",
			"rotation":[
				0.5348745584487915,
				0.07596100866794586,
				0.03971333056688309,
				0.8405724167823792
			],
			"scale":[
				1,
				1,
				0.9999999403953552
			],
			"translation":[
				0.043949924409389496,
				0.5568463802337646,
				0.6140896081924438
			]
		},
		{
			"children":[
				1,
				2,
				3,
				4
			],
			"name":"Palm_R",
			"rotation":[
				0.01641123928129673,
				-0.01641123928129673,
				0.7069162726402283,
				0.706916332244873
			],
			"translation":[
				-1.6366299390792847,
				0.6716718673706055,
				0
			]
		},
		{
			"name":"Middle_L",
			"translation":[
				0,
				1.1180546283721924,
				0
			]
		},
		{
			"name":"Pinky_L",
			"translation":[
				0.01807691901922226,
				1.001213550567627,
				-0.38912299275398254
			]
		},
		{
			"name":"Index_L",
			"translation":[
				-0.01812131144106388,
				1.001213550567627,
				0.3900785744190216
			]
		},
		{
			"name":"Thumb_L",
			"rotation":[
				0.5348745584487915,
				-0.07596100866794586,
				-0.03971333056688309,
				0.8405724167823792
			],
			"scale":[
				1,
				1,
				0.9999999403953552
			],
			"translation":[
				-0.043949924409389496,
				0.5568463802337646,
				0.6140896081924438
			]
		},
		{
			"children":[
				6,
				7,
				8,
				9
			],
			"name":"Palm_L",
			"rotation":[
				0.01641123928129673,
				0.01641123928129673,
				-0.7069162726402283,
				0.706916332244873
			],
			"translation":[
				1.6366299390792847,
				0.6716718673706055,
				0
			]
		},
		{
			"name":"Scarf_Back_4",
			"rotation":[
				0.06603089720010757,
				-0.006142470519989729,
				0.023495636880397797,
				0.9975219964981079
			],
			"translation":[
				7.078051567077637e-08,
				0.37739744782447815,
				-2.7830537874251604e-08
			]
		},
		{
			"children":[
				11
			],
			"name":"Scarf_Back_3",
			"rotation":[
				-0.10790525376796722,
				0.03855567052960396,
				-0.011257819831371307,
				0.9933494925498962
			],
			"scale":[
				0.9999999403953552,
				0.9999999403953552,
				1
			],
			"translation":[
				2.9336661100387573e-08,
				0.3216732144355774,
				-3.841705620288849e-08
			]
		},
		{
			"children":[
				12
			],
			"name":"Scarf_Back_2",
			"rotation":[
				-0.06859555840492249,
				0.015603984706103802,
				-0.043183133006095886,
				0.9965873956680298
			],
			"scale":[
				0.9999999403953552,
				0.9999998807907104,
				0.9999998807907104
			],
			"translation":[
				-4.0978193283081055e-08,
				0.3512144088745117,
				7.264316082000732e-08
			]
		},
		{
			"children":[
				13
			],
			"name":"Scarf_Back_1",
			"rotation":[
				-0.5337162017822266,
				0.11226733028888702,
				-0.20785237848758698,
				0.8119978308677673
			],
			"scale":[
				0.9999999403953552,
				1,
				0.9999999403953552
			],
			"translation":[
				2.9802322387695312e-08,
				0.7143532037734985,
				-2.123415470123291e-07
			]
		},
		{
			"children":[
				14
			],
			"name":"Scarf_Back_0",
			"rotation":[
				-0.6879367232322693,
				0.2437441498041153,
				0.12919102609157562,
				0.6712983846664429
			],
			"translation":[
				0,
				1.274259328842163,
				0
			]
		},
		{
			"name":"Scarf_Front_4",
			"rotation":[
				0.022313714027404785,
				-0.002425390062853694,
				-0.030997315421700478,
				0.9992673993110657
			],
			"scale":[
				1,
				0.9999999403953552,
				0.9999998211860657
			],
			"translation":[
				7.450580596923828e-09,
				0.3930481970310211,
				-1.862645149230957e-08
			]
		},
		{
			"children":[
				16
			],
			"name":"Scarf_Front_3",
			"rotation":[
				0.047210484743118286,
				-9.408933010490728e-08,
				-0.013150975108146667,
				0.9987984299659729
			],
			"scale":[
				0.9999999403953552,
				1,
				1
			],
			"translation":[
				0,
				0.32065054774284363,
				4.470348358154297e-08
			]
		},
		{
			"children":[
				17
			],
			"name":"Scarf_Front_2",
			"rotation":[
				0.005196334794163704,
				3.957727034986647e-09,
				0.0019323406741023064,
				0.9999846816062927
			],
			"scale":[
				0.9999999403953552,
				1,
				1
			],
			"translation":[
				1.4901161193847656e-08,
				0.28922876715660095,
				-2.9802322387695312e-08
			]
		},
		{
			"children":[
				18
			],
			"name":"Scarf_Front_1",
			"rotation":[
				0.558485209941864,
				-1.9320456345894854e-08,
				-0.3053637444972992,
				0.7712634205818176
			],
			"translation":[
				0,
				0.7018216252326965,
				-4.470348358154297e-08
			]
		},
		{
			"children":[
				19
			],
			"name":"Scarf_Front_0",
			"rotation":[
				0.6207697987556458,
				0.018322600051760674,
				-0.3595287501811981,
				0.6964540481567383
			],
			"translation":[
				0,
				1.274259328842163,
				0
			]
		},
		{
			"children":[
				0,
				5,
				10,
				15,
				20
			],
			"name":"Chest",
			"translation":[
				0,
				1.2000000476837158,
				0
			]
		},
		{
			"name":"Bone.002",
			"translation":[
				0,
				1.2000000476837158,
				0
			]
		},
		{
			"name":"Foot_R",
			"rotation":[
				4.21607770917376e-09,
				-5.760115939779098e-08,
				0.7071067690849304,
				0.7071067690849304
			],
			"translation":[
				0,
				0.6360995173454285,
				0
			]
		},
		{
			"children":[
				23
			],
			"name":"Leg_R",
			"rotation":[
				-2.6692537957728746e-08,
				2.6692537957728746e-08,
				0.7071067690849304,
				0.7071067690849304
			],
			"translation":[
				0,
				1.2000000476837158,
				0
			]
		},
		{
			"name":"Foot_L",
			"rotation":[
				4.21607770917376e-09,
				5.760115939779098e-08,
				-0.7071067690849304,
				0.7071067690849304
			],
			"translation":[
				0,
				0.6360995173454285,
				0
			]
		},
		{
			"children":[
				25
			],
			"name":"Leg_L",
			"rotation":[
				-2.6692537957728746e-08,
				-2.6692537957728746e-08,
				-0.7071067690849304,
				0.7071067690849304
			],
			"translation":[
				0,
				1.2000000476837158,
				0
			]
		},
		{
			"children":[
				21,
				22,
				24,
				26
			],
			"name":"Hips"
		},
		{
			"mesh":0,
			"name":"Scarf",
			"skin":0
		},
		{
			"children":[
				27
			],
			"name":"Scarf_Armature"
		}
	],
	"materials":[
		{
			"doubleSided":true,
			"name":"MainHat",
			"pbrMetallicRoughness":{
				"baseColorTexture":{
					"index":0
				},
				"metallicFactor":0,
				"roughnessFactor":0
			}
		}
	],
	"meshes":[
		{
			"name":"Cube.001",
			"primitives":[
				{
					"attributes":{
						"POSITION":0,
						"NORMAL":1,
						"TEXCOORD_0":2,
						"JOINTS_0":3,
						"WEIGHTS_0":4
					},
					"indices":5,
					"material":0
				}
			]
		}
	],
	"textures":[
		{
			"sampler":0,
			"source":0
		}
	],
	"images":[
		{
			"mimeType":"image/png",
			"name":"Shader_TestStrip",
			"uri":"Shader_TestStrip.png"
		}
	],
	"skins":[
		{
			"inverseBindMatrices":6,
			"joints":[
				27,
				21,
				0,
				5,
				1,
				2,
				3,
				4,
				10,
				6,
				7,
				8,
				9,
				15,
				14,
				13,
				12,
				11,
				20,
				19,
				18,
				17,
				16,
				22,
				24,
				23,
				26,
				25
			],
			"name":"Scarf_Armature"
		}
	],
	"accessors":[
		{
			"bufferView":0,
			"componentType":5126,
			"count":233,
			"max":[
				0.8776353597640991,
				2.488621711730957,
				0.7822128534317017
			],
			"min":[
				-0.8467197418212891,
				0.7917999625205994,
				-0.9237350225448608
			],
			"type":"VEC3"
		},
		{
			"bufferView":1,
			"componentType":5126,
			"count":233,
			"type":"VEC3"
		},
		{
			"bufferView":2,
			"componentType":5126,
			"count":233,
			"type":"VEC2"
		},
		{
			"bufferView":3,
			"componentType":5121,
			"count":233,
			"type":"VEC4"
		},
		{
			"bufferView":4,
			"componentType":5126,
			"count":233,
			"type":"VEC4"
		},
		{
			"bufferView":5,
			"componentType":5123,
			"count":570,
			"type":"SCALAR"
		},
		{
			"bufferView":6,
			"componentType":5126,
			"count":28,
			"type":"MAT4"
		}
	],
	"bufferViews":[
		{
			"buffer":0,
			"byteLength":2796,
			"byteOffset":0,
			"target":34962
		},
		{
			"buffer":0,
			"byteLength":2796,
			"byteOffset":2796,
			"target":34962
		},
		{
			"buffer":0,
			"byteLength":1864,
			"byteOffset":5592,
			"target":34962
		},
		{
			"buffer":0,
			"byteLength":932,
			"byteOffset":7456,
			"target":34962
		},
		{
			"buffer":0,
			"byteLength":3728,
			"byteOffset":8388,
			"target":34962
		},
		{
			"buffer":0,
			"byteLength":1140,
			"byteOffset":12116,
			"target":34963
		},
		{
			"buffer":0,
			"byteLength":1792,
			"byteOffset":13256
		}
	],
	"samplers":[
		{
			"magFilter":9728,
			"minFilter":9984
		}
	],
	"buffers":[
		{
			"byteLength":15048,
			"uri":"Scarf.bin"
		}
	]
}
