{
	"asset":{
		"generator":"Khronos glTF Blender I/O v4.0.43",
		"version":"2.0"
	},
	"scene":0,
	"scenes":[
		{
			"name":"Scene",
			"nodes":[
				0
			]
		}
	],
	"nodes":[
		{
			"mesh":0,
			"name":"Cube"
		}
	],
	"materials":[
		{
			"doubleSided":true,
			"name":"Material",
			"pbrMetallicRoughness":{
				"baseColorTexture":{
					"index":0
				},
				"metallicFactor":0,
				"roughnessFactor":0.5
			}
		}
	],
	"meshes":[
		{
			"name":"Cube",
			"primitives":[
				{
					"attributes":{
						"POSITION":0,
						"NORMAL":1,
						"TEXCOORD_0":2
					},
					"indices":3,
					"material":0
				}
			]
		}
	],
	"textures":[
		{
			"sampler":0,
			"source":0
		}
	],
	"images":[
		{
			"mimeType":"image/png",
			"name":"Color_Palette",
			"uri":"Color_Palette.png"
		}
	],
	"accessors":[
		{
			"bufferView":0,
			"componentType":5126,
			"count":879,
			"max":[
				0.8607919812202454,
				0.1822395920753479,
				2.0051889419555664
			],
			"min":[
				-0.8607919812202454,
				-0.1822395920753479,
				-7.144557476043701
			],
			"type":"VEC3"
		},
		{
			"bufferView":1,
			"componentType":5126,
			"count":879,
			"type":"VEC3"
		},
		{
			"bufferView":2,
			"componentType":5126,
			"count":879,
			"type":"VEC2"
		},
		{
			"bufferView":3,
			"componentType":5123,
			"count":1656,
			"type":"SCALAR"
		}
	],
	"bufferViews":[
		{
			"buffer":0,
			"byteLength":10548,
			"byteOffset":0,
			"target":34962
		},
		{
			"buffer":0,
			"byteLength":10548,
			"byteOffset":10548,
			"target":34962
		},
		{
			"buffer":0,
			"byteLength":7032,
			"byteOffset":21096,
			"target":34962
		},
		{
			"buffer":0,
			"byteLength":3312,
			"byteOffset":28128,
			"target":34963
		}
	],
	"samplers":[
		{
			"magFilter":9728,
			"minFilter":9984
		}
	],
	"buffers":[
		{
			"byteLength":31440,
			"uri":"TechSword.bin"
		}
	]
}
