{
	"asset":{
		"generator":"Khronos glTF Blender I/O v4.0.43",
		"version":"2.0"
	},
	"extensionsUsed":[
		"KHR_materials_transmission",
		"KHR_materials_ior",
		"KHR_materials_emissive_strength"
	],
	"scene":0,
	"scenes":[
		{
			"name":"Scene",
			"nodes":[
				0,
				9,
				10
			]
		}
	],
	"nodes":[
		{
			"mesh":0,
			"name":"Plane"
		},
		{
			"name":"Bone.003",
			"rotation":[
				0,
				3.552713678800501e-15,
				0,
				1
			],
			"translation":[
				-4.937344977307134e-11,
				0.05019676685333252,
				1.1064894833712202e-10
			]
		},
		{
			"name":"Bone.006",
			"translation":[
				-0.2746867537498474,
				0.1426849365234375,
				0.3650628626346588
			]
		},
		{
			"name":"Bone.007",
			"translation":[
				0.3288695514202118,
				-0.05101370811462402,
				-0.36683472990989685
			]
		},
		{
			"children":[
				1,
				2,
				3
			],
			"name":"Bone.002",
			"rotation":[
				0,
				-3.552713678800501e-15,
				0,
				1
			],
			"translation":[
				-4.9373505284222574e-11,
				0.10224556922912598,
				1.1064896221490983e-10
			]
		},
		{
			"name":"Bone.004",
			"rotation":[
				0,
				-3.552713678800501e-15,
				0,
				1
			],
			"translation":[
				0.200411856174469,
				-0.06694221496582031,
				0.6750103831291199
			]
		},
		{
			"name":"Bone.005",
			"rotation":[
				0,
				-3.552713678800501e-15,
				0,
				1
			],
			"translation":[
				-0.2823718190193176,
				0.3228020668029785,
				-0.9222273826599121
			]
		},
		{
			"children":[
				4,
				5,
				6
			],
			"name":"Bone.001",
			"rotation":[
				0,
				3.552713678800501e-15,
				0,
				1
			],
			"scale":[
				1,
				0.9999999403953552,
				1
			],
			"translation":[
				-4.937344977307134e-11,
				0.4891829490661621,
				1.1064894833712202e-10
			]
		},
		{
			"children":[
				7
			],
			"name":"Bone",
			"rotation":[
				0.7071068286895752,
				0,
				-0.7071067094802856,
				0
			]
		},
		{
			"mesh":1,
			"name":"Cylinder",
			"skin":0
		},
		{
			"children":[
				8
			],
			"name":"Armature",
			"translation":[
				-0.00990577694028616,
				2.0092878341674805,
				-0.001465589739382267
			]
		}
	],
	"materials":[
		{
			"doubleSided":true,
			"emissiveFactor":[
				0.5,
				0.5,
				0.5
			],
			"emissiveTexture":{
				"index":0
			},
			"extensions":{
				"KHR_materials_transmission":{
					"transmissionFactor":0.459090918302536
				},
				"KHR_materials_ior":{
					"ior":1.4500000476837158
				}
			},
			"name":"Material",
			"pbrMetallicRoughness":{
				"baseColorTexture":{
					"index":1
				},
				"metallicFactor":0
			}
		},
		{
			"doubleSided":true,
			"name":"Material.004",
			"pbrMetallicRoughness":{
				"baseColorFactor":[
					0.06299863010644913,
					0.06299863010644913,
					0.06299863010644913,
					1
				],
				"metallicFactor":0.4330708384513855,
				"roughnessFactor":0.8031495809555054
			}
		},
		{
			"doubleSided":true,
			"emissiveFactor":[
				0,
				0.6374157071113586,
				1
			],
			"extensions":{
				"KHR_materials_emissive_strength":{
					"emissiveStrength":3.1999998092651367
				}
			},
			"name":"Material.003",
			"pbrMetallicRoughness":{
				"baseColorFactor":[
					0.025561027228832245,
					0.8002356290817261,
					0.723852276802063,
					1
				],
				"metallicFactor":0,
				"roughnessFactor":0.05118110775947571
			}
		},
		{
			"doubleSided":true,
			"name":"Material.002",
			"pbrMetallicRoughness":{
				"baseColorFactor":[
					0.800536572933197,
					0.24674248695373535,
					0.09044159203767776,
					1
				],
				"metallicFactor":0
			}
		},
		{
			"doubleSided":true,
			"name":"Material.001",
			"pbrMetallicRoughness":{
				"baseColorFactor":[
					0.800000011920929,
					0.800000011920929,
					0.800000011920929,
					1
				],
				"roughnessFactor":0
			}
		},
		{
			"doubleSided":true,
			"name":"Material.005",
			"pbrMetallicRoughness":{
				"baseColorFactor":[
					0.12942834198474884,
					0.3349628746509552,
					0.8002911806106567,
					1
				],
				"metallicFactor":0,
				"roughnessFactor":0.10629922151565552
			}
		},
		{
			"doubleSided":true,
			"name":"Material.006",
			"pbrMetallicRoughness":{
				"baseColorFactor":[
					0.8003851175308228,
					0.23232510685920715,
					0.012831076979637146,
					1
				],
				"metallicFactor":0,
				"roughnessFactor":0.11417323350906372
			}
		},
		{
			"doubleSided":true,
			"name":"Material.007",
			"pbrMetallicRoughness":{
				"baseColorFactor":[
					0.11870506405830383,
					0.5994947552680969,
					0.8003232479095459,
					1
				],
				"metallicFactor":0,
				"roughnessFactor":0.09842520952224731
			}
		},
		{
			"doubleSided":true,
			"name":"Material.008",
			"pbrMetallicRoughness":{
				"baseColorFactor":[
					0.227532297372818,
					0.1338375210762024,
					0.8005756139755249,
					1
				],
				"metallicFactor":0,
				"roughnessFactor":0.07480314373970032
			}
		}
	],
	"meshes":[
		{
			"extras":{
				"targetNames":[
					"Open"
				]
			},
			"name":"Plane",
			"primitives":[
				{
					"attributes":{
						"POSITION":0,
						"NORMAL":1,
						"TEXCOORD_0":2
					},
					"indices":3,
					"material":0,
					"targets":[
						{
							"POSITION":4,
							"NORMAL":5
						}
					]
				}
			],
			"weights":[
				0
			]
		},
		{
			"name":"Cylinder",
			"primitives":[
				{
					"attributes":{
						"POSITION":6,
						"NORMAL":7,
						"TEXCOORD_0":8,
						"JOINTS_0":9,
						"WEIGHTS_0":10
					},
					"indices":11,
					"material":1
				},
				{
					"attributes":{
						"POSITION":12,
						"NORMAL":13,
						"TEXCOORD_0":14,
						"JOINTS_0":15,
						"WEIGHTS_0":16
					},
					"indices":17,
					"material":2
				},
				{
					"attributes":{
						"POSITION":18,
						"NORMAL":19,
						"TEXCOORD_0":20,
						"JOINTS_0":21,
						"WEIGHTS_0":22
					},
					"indices":23,
					"material":3
				},
				{
					"attributes":{
						"POSITION":24,
						"NORMAL":25,
						"TEXCOORD_0":26,
						"JOINTS_0":27,
						"WEIGHTS_0":28
					},
					"indices":29,
					"material":4
				},
				{
					"attributes":{
						"POSITION":30,
						"NORMAL":31,
						"TEXCOORD_0":32,
						"JOINTS_0":33,
						"WEIGHTS_0":34
					},
					"indices":35,
					"material":5
				},
				{
					"attributes":{
						"POSITION":36,
						"NORMAL":37,
						"TEXCOORD_0":38,
						"JOINTS_0":39,
						"WEIGHTS_0":40
					},
					"indices":35,
					"material":6
				},
				{
					"attributes":{
						"POSITION":41,
						"NORMAL":42,
						"TEXCOORD_0":43,
						"JOINTS_0":44,
						"WEIGHTS_0":45
					},
					"indices":35,
					"material":7
				},
				{
					"attributes":{
						"POSITION":46,
						"NORMAL":47,
						"TEXCOORD_0":48,
						"JOINTS_0":49,
						"WEIGHTS_0":50
					},
					"indices":51,
					"material":8
				}
			]
		}
	],
	"textures":[
		{
			"sampler":0,
			"source":0
		},
		{
			"sampler":0,
			"source":0
		}
	],
	"images":[
		{
			"mimeType":"image/png",
			"name":"Untitled",
			"uri":"Untitled.png"
		}
	],
	"skins":[
		{
			"inverseBindMatrices":52,
			"joints":[
				8,
				7,
				4,
				1,
				2,
				3,
				5,
				6
			],
			"name":"Armature"
		}
	],
	"accessors":[
		{
			"bufferView":0,
			"componentType":5126,
			"count":64,
			"max":[
				10,
				2,
				1
			],
			"min":[
				-10,
				0,
				-1.0463429689407349
			],
			"type":"VEC3"
		},
		{
			"bufferView":1,
			"componentType":5126,
			"count":64,
			"type":"VEC3"
		},
		{
			"bufferView":2,
			"componentType":5126,
			"count":64,
			"type":"VEC2"
		},
		{
			"bufferView":3,
			"componentType":5123,
			"count":144,
			"type":"SCALAR"
		},
		{
			"componentType":5126,
			"count":64,
			"max":[
				1.676714539527893,
				0,
				0
			],
			"min":[
				-1.6657835245132446,
				0,
				0
			],
			"sparse":{
				"count":8,
				"indices":{
					"bufferView":4,
					"componentType":5121
				},
				"values":{
					"bufferView":5
				}
			},
			"type":"VEC3"
		},
		{
			"bufferView":6,
			"componentType":5126,
			"count":64,
			"type":"VEC3"
		},
		{
			"bufferView":7,
			"componentType":5126,
			"count":1800,
			"max":[
				0.27849680185317993,
				1.3521795272827148,
				0.2929031550884247
			],
			"min":[
				-0.29830843210220337,
				0.764224112033844,
				-0.29583442211151123
			],
			"type":"VEC3"
		},
		{
			"bufferView":8,
			"componentType":5126,
			"count":1800,
			"type":"VEC3"
		},
		{
			"bufferView":9,
			"componentType":5126,
			"count":1800,
			"type":"VEC2"
		},
		{
			"bufferView":10,
			"componentType":5121,
			"count":1800,
			"type":"VEC4"
		},
		{
			"bufferView":11,
			"componentType":5126,
			"count":1800,
			"type":"VEC4"
		},
		{
			"bufferView":12,
			"componentType":5123,
			"count":6336,
			"type":"SCALAR"
		},
		{
			"bufferView":13,
			"componentType":5126,
			"count":313,
			"max":[
				0.25582170486450195,
				1.340562105178833,
				0.2865140736103058
			],
			"min":[
				-0.27563390135765076,
				0.7758415937423706,
				-0.2894449532032013
			],
			"type":"VEC3"
		},
		{
			"bufferView":14,
			"componentType":5126,
			"count":313,
			"type":"VEC3"
		},
		{
			"bufferView":15,
			"componentType":5126,
			"count":313,
			"type":"VEC2"
		},
		{
			"bufferView":16,
			"componentType":5121,
			"count":313,
			"type":"VEC4"
		},
		{
			"bufferView":17,
			"componentType":5126,
			"count":313,
			"type":"VEC4"
		},
		{
			"bufferView":18,
			"componentType":5123,
			"count":1248,
			"type":"SCALAR"
		},
		{
			"bufferView":19,
			"componentType":5126,
			"count":216,
			"max":[
				0.9963139891624451,
				1.5852246284484863,
				0.5396806001663208
			],
			"min":[
				-0.6924344301223755,
				0.80878084897995,
				-0.34753021597862244
			],
			"type":"VEC3"
		},
		{
			"bufferView":20,
			"componentType":5126,
			"count":216,
			"type":"VEC3"
		},
		{
			"bufferView":21,
			"componentType":5126,
			"count":216,
			"type":"VEC2"
		},
		{
			"bufferView":22,
			"componentType":5121,
			"count":216,
			"type":"VEC4"
		},
		{
			"bufferView":23,
			"componentType":5126,
			"count":216,
			"type":"VEC4"
		},
		{
			"bufferView":24,
			"componentType":5123,
			"count":324,
			"type":"SCALAR"
		},
		{
			"bufferView":25,
			"componentType":5126,
			"count":120,
			"max":[
				0.9136583805084229,
				2.3679752349853516,
				0.2820572555065155
			],
			"min":[
				-0.6861039996147156,
				0.8321735262870789,
				-0.33139845728874207
			],
			"type":"VEC3"
		},
		{
			"bufferView":26,
			"componentType":5126,
			"count":120,
			"type":"VEC3"
		},
		{
			"bufferView":27,
			"componentType":5126,
			"count":120,
			"type":"VEC2"
		},
		{
			"bufferView":28,
			"componentType":5121,
			"count":120,
			"type":"VEC4"
		},
		{
			"bufferView":29,
			"componentType":5126,
			"count":120,
			"type":"VEC4"
		},
		{
			"bufferView":30,
			"componentType":5123,
			"count":180,
			"type":"SCALAR"
		},
		{
			"bufferView":31,
			"componentType":5126,
			"count":205,
			"max":[
				-0.34555327892303467,
				0.928213894367218,
				0.30222785472869873
			],
			"min":[
				-0.40337318181991577,
				0.8703939318656921,
				0.24440793693065643
			],
			"type":"VEC3"
		},
		{
			"bufferView":32,
			"componentType":5126,
			"count":205,
			"type":"VEC3"
		},
		{
			"bufferView":33,
			"componentType":5126,
			"count":205,
			"type":"VEC2"
		},
		{
			"bufferView":34,
			"componentType":5121,
			"count":205,
			"type":"VEC4"
		},
		{
			"bufferView":35,
			"componentType":5126,
			"count":205,
			"type":"VEC4"
		},
		{
			"bufferView":36,
			"componentType":5123,
			"count":960,
			"type":"SCALAR"
		},
		{
			"bufferView":37,
			"componentType":5126,
			"count":205,
			"max":[
				0.4190555214881897,
				1.2918791770935059,
				-0.26314592361450195
			],
			"min":[
				0.29144522547721863,
				1.1642688512802124,
				-0.390756219625473
			],
			"type":"VEC3"
		},
		{
			"bufferView":38,
			"componentType":5126,
			"count":205,
			"type":"VEC3"
		},
		{
			"bufferView":39,
			"componentType":5126,
			"count":205,
			"type":"VEC2"
		},
		{
			"bufferView":40,
			"componentType":5121,
			"count":205,
			"type":"VEC4"
		},
		{
			"bufferView":41,
			"componentType":5126,
			"count":205,
			"type":"VEC4"
		},
		{
			"bufferView":42,
			"componentType":5126,
			"count":205,
			"max":[
				-0.6659964323043823,
				1.2283930778503418,
				-0.1831628382205963
			],
			"min":[
				-0.7034508585929871,
				1.1909387111663818,
				-0.22061726450920105
			],
			"type":"VEC3"
		},
		{
			"bufferView":43,
			"componentType":5126,
			"count":205,
			"type":"VEC3"
		},
		{
			"bufferView":44,
			"componentType":5126,
			"count":205,
			"type":"VEC2"
		},
		{
			"bufferView":45,
			"componentType":5121,
			"count":205,
			"type":"VEC4"
		},
		{
			"bufferView":46,
			"componentType":5126,
			"count":205,
			"type":"VEC4"
		},
		{
			"bufferView":47,
			"componentType":5126,
			"count":365,
			"max":[
				1.0591431856155396,
				1.0391424894332886,
				0.5180914402008057
			],
			"min":[
				0.7564380764961243,
				0.6159945726394653,
				0.05327525734901428
			],
			"type":"VEC3"
		},
		{
			"bufferView":48,
			"componentType":5126,
			"count":365,
			"type":"VEC3"
		},
		{
			"bufferView":49,
			"componentType":5126,
			"count":365,
			"type":"VEC2"
		},
		{
			"bufferView":50,
			"componentType":5121,
			"count":365,
			"type":"VEC4"
		},
		{
			"bufferView":51,
			"componentType":5126,
			"count":365,
			"type":"VEC4"
		},
		{
			"bufferView":52,
			"componentType":5123,
			"count":1440,
			"type":"SCALAR"
		},
		{
			"bufferView":53,
			"componentType":5126,
			"count":8,
			"type":"MAT4"
		}
	],
	"bufferViews":[
		{
			"buffer":0,
			"byteLength":768,
			"byteOffset":0,
			"target":34962
		},
		{
			"buffer":0,
			"byteLength":768,
			"byteOffset":768,
			"target":34962
		},
		{
			"buffer":0,
			"byteLength":512,
			"byteOffset":1536,
			"target":34962
		},
		{
			"buffer":0,
			"byteLength":288,
			"byteOffset":2048,
			"target":34963
		},
		{
			"buffer":0,
			"byteLength":8,
			"byteOffset":2336
		},
		{
			"buffer":0,
			"byteLength":96,
			"byteOffset":2344
		},
		{
			"buffer":0,
			"byteLength":768,
			"byteOffset":2440,
			"target":34962
		},
		{
			"buffer":0,
			"byteLength":21600,
			"byteOffset":3208,
			"target":34962
		},
		{
			"buffer":0,
			"byteLength":21600,
			"byteOffset":24808,
			"target":34962
		},
		{
			"buffer":0,
			"byteLength":14400,
			"byteOffset":46408,
			"target":34962
		},
		{
			"buffer":0,
			"byteLength":7200,
			"byteOffset":60808,
			"target":34962
		},
		{
			"buffer":0,
			"byteLength":28800,
			"byteOffset":68008,
			"target":34962
		},
		{
			"buffer":0,
			"byteLength":12672,
			"byteOffset":96808,
			"target":34963
		},
		{
			"buffer":0,
			"byteLength":3756,
			"byteOffset":109480,
			"target":34962
		},
		{
			"buffer":0,
			"byteLength":3756,
			"byteOffset":113236,
			"target":34962
		},
		{
			"buffer":0,
			"byteLength":2504,
			"byteOffset":116992,
			"target":34962
		},
		{
			"buffer":0,
			"byteLength":1252,
			"byteOffset":119496,
			"target":34962
		},
		{
			"buffer":0,
			"byteLength":5008,
			"byteOffset":120748,
			"target":34962
		},
		{
			"buffer":0,
			"byteLength":2496,
			"byteOffset":125756,
			"target":34963
		},
		{
			"buffer":0,
			"byteLength":2592,
			"byteOffset":128252,
			"target":34962
		},
		{
			"buffer":0,
			"byteLength":2592,
			"byteOffset":130844,
			"target":34962
		},
		{
			"buffer":0,
			"byteLength":1728,
			"byteOffset":133436,
			"target":34962
		},
		{
			"buffer":0,
			"byteLength":864,
			"byteOffset":135164,
			"target":34962
		},
		{
			"buffer":0,
			"byteLength":3456,
			"byteOffset":136028,
			"target":34962
		},
		{
			"buffer":0,
			"byteLength":648,
			"byteOffset":139484,
			"target":34963
		},
		{
			"buffer":0,
			"byteLength":1440,
			"byteOffset":140132,
			"target":34962
		},
		{
			"buffer":0,
			"byteLength":1440,
			"byteOffset":141572,
			"target":34962
		},
		{
			"buffer":0,
			"byteLength":960,
			"byteOffset":143012,
			"target":34962
		},
		{
			"buffer":0,
			"byteLength":480,
			"byteOffset":143972,
			"target":34962
		},
		{
			"buffer":0,
			"byteLength":1920,
			"byteOffset":144452,
			"target":34962
		},
		{
			"buffer":0,
			"byteLength":360,
			"byteOffset":146372,
			"target":34963
		},
		{
			"buffer":0,
			"byteLength":2460,
			"byteOffset":146732,
			"target":34962
		},
		{
			"buffer":0,
			"byteLength":2460,
			"byteOffset":149192,
			"target":34962
		},
		{
			"buffer":0,
			"byteLength":1640,
			"byteOffset":151652,
			"target":34962
		},
		{
			"buffer":0,
			"byteLength":820,
			"byteOffset":153292,
			"target":34962
		},
		{
			"buffer":0,
			"byteLength":3280,
			"byteOffset":154112,
			"target":34962
		},
		{
			"buffer":0,
			"byteLength":1920,
			"byteOffset":157392,
			"target":34963
		},
		{
			"buffer":0,
			"byteLength":2460,
			"byteOffset":159312,
			"target":34962
		},
		{
			"buffer":0,
			"byteLength":2460,
			"byteOffset":161772,
			"target":34962
		},
		{
			"buffer":0,
			"byteLength":1640,
			"byteOffset":164232,
			"target":34962
		},
		{
			"buffer":0,
			"byteLength":820,
			"byteOffset":165872,
			"target":34962
		},
		{
			"buffer":0,
			"byteLength":3280,
			"byteOffset":166692,
			"target":34962
		},
		{
			"buffer":0,
			"byteLength":2460,
			"byteOffset":169972,
			"target":34962
		},
		{
			"buffer":0,
			"byteLength":2460,
			"byteOffset":172432,
			"target":34962
		},
		{
			"buffer":0,
			"byteLength":1640,
			"byteOffset":174892,
			"target":34962
		},
		{
			"buffer":0,
			"byteLength":820,
			"byteOffset":176532,
			"target":34962
		},
		{
			"buffer":0,
			"byteLength":3280,
			"byteOffset":177352,
			"target":34962
		},
		{
			"buffer":0,
			"byteLength":4380,
			"byteOffset":180632,
			"target":34962
		},
		{
			"buffer":0,
			"byteLength":4380,
			"byteOffset":185012,
			"target":34962
		},
		{
			"buffer":0,
			"byteLength":2920,
			"byteOffset":189392,
			"target":34962
		},
		{
			"buffer":0,
			"byteLength":1460,
			"byteOffset":192312,
			"target":34962
		},
		{
			"buffer":0,
			"byteLength":5840,
			"byteOffset":193772,
			"target":34962
		},
		{
			"buffer":0,
			"byteLength":2880,
			"byteOffset":199612,
			"target":34963
		},
		{
			"buffer":0,
			"byteLength":512,
			"byteOffset":202492
		}
	],
	"samplers":[
		{
			"magFilter":9729,
			"minFilter":9987
		}
	],
	"buffers":[
		{
			"byteLength":203004,
			"uri":"Mobile_Scene.bin"
		}
	]
}
