{
	"asset":{
		"generator":"Khronos glTF Blender I/O v4.0.43",
		"version":"2.0"
	},
	"extensionsUsed":[
		"KHR_materials_transmission",
		"KHR_materials_ior"
	],
	"scene":0,
	"scenes":[
		{
			"name":"Scene",
			"nodes":[
				0
			]
		}
	],
	"nodes":[
		{
			"mesh":0,
			"name":"Plane"
		}
	],
	"materials":[
		{
			"doubleSided":true,
			"emissiveFactor":[
				0.5,
				0.5,
				0.5
			],
			"emissiveTexture":{
				"index":0
			},
			"extensions":{
				"KHR_materials_transmission":{
					"transmissionFactor":0.459090918302536
				},
				"KHR_materials_ior":{
					"ior":1.4500000476837158
				}
			},
			"name":"Material",
			"pbrMetallicRoughness":{
				"baseColorTexture":{
					"index":1
				},
				"metallicFactor":0
			}
		}
	],
	"meshes":[
		{
			"extras":{
				"targetNames":[
					"Open"
				]
			},
			"name":"Plane",
			"primitives":[
				{
					"attributes":{
						"POSITION":0,
						"NORMAL":1,
						"TEXCOORD_0":2
					},
					"indices":3,
					"material":0,
					"targets":[
						{
							"POSITION":4,
							"NORMAL":5
						}
					]
				}
			],
			"weights":[
				0
			]
		}
	],
	"textures":[
		{
			"sampler":0,
			"source":0
		},
		{
			"sampler":0,
			"source":0
		}
	],
	"images":[
		{
			"mimeType":"image/png",
			"name":"Untitled",
			"uri":"Untitled.png"
		}
	],
	"accessors":[
		{
			"bufferView":0,
			"componentType":5126,
			"count":64,
			"max":[
				10,
				2,
				1
			],
			"min":[
				-10,
				0,
				-1.0463429689407349
			],
			"type":"VEC3"
		},
		{
			"bufferView":1,
			"componentType":5126,
			"count":64,
			"type":"VEC3"
		},
		{
			"bufferView":2,
			"componentType":5126,
			"count":64,
			"type":"VEC2"
		},
		{
			"bufferView":3,
			"componentType":5123,
			"count":144,
			"type":"SCALAR"
		},
		{
			"componentType":5126,
			"count":64,
			"max":[
				1.676714539527893,
				0,
				0
			],
			"min":[
				-1.6657835245132446,
				0,
				0
			],
			"sparse":{
				"count":8,
				"indices":{
					"bufferView":4,
					"componentType":5121
				},
				"values":{
					"bufferView":5
				}
			},
			"type":"VEC3"
		},
		{
			"bufferView":6,
			"componentType":5126,
			"count":64,
			"type":"VEC3"
		}
	],
	"bufferViews":[
		{
			"buffer":0,
			"byteLength":768,
			"byteOffset":0,
			"target":34962
		},
		{
			"buffer":0,
			"byteLength":768,
			"byteOffset":768,
			"target":34962
		},
		{
			"buffer":0,
			"byteLength":512,
			"byteOffset":1536,
			"target":34962
		},
		{
			"buffer":0,
			"byteLength":288,
			"byteOffset":2048,
			"target":34963
		},
		{
			"buffer":0,
			"byteLength":8,
			"byteOffset":2336
		},
		{
			"buffer":0,
			"byteLength":96,
			"byteOffset":2344
		},
		{
			"buffer":0,
			"byteLength":768,
			"byteOffset":2440,
			"target":34962
		}
	],
	"samplers":[
		{
			"magFilter":9729,
			"minFilter":9987
		}
	],
	"buffers":[
		{
			"byteLength":3208,
			"uri":"Mobile_Scene_2.bin"
		}
	]
}
