{
	"asset":{
		"generator":"Khronos glTF Blender I/O v4.0.43",
		"version":"2.0"
	},
	"scene":0,
	"scenes":[
		{
			"name":"Scene",
			"nodes":[
				0
			]
		}
	],
	"nodes":[
		{
			"mesh":0,
			"name":"Cube.001",
			"translation":[
				0,
				0.39496105909347534,
				0
			]
		}
	],
	"materials":[
		{
			"doubleSided":true,
			"name":"Converted",
			"pbrMetallicRoughness":{}
		}
	],
	"meshes":[
		{
			"extras":{
				"targetNames":[
					"Slide"
				]
			},
			"name":"Cube.001",
			"primitives":[
				{
					"attributes":{
						"POSITION":0,
						"NORMAL":1,
						"TEXCOORD_0":2
					},
					"indices":3,
					"material":0,
					"targets":[
						{
							"POSITION":4,
							"NORMAL":5
						}
					]
				}
			],
			"weights":[
				0
			]
		}
	],
	"accessors":[
		{
			"bufferView":0,
			"componentType":5126,
			"count":2623,
			"max":[
				0.6264020800590515,
				1.1179440021514893,
				0.16456899046897888
			],
			"min":[
				-0.7407152652740479,
				-1.0036311149597168,
				-0.15408600866794586
			],
			"type":"VEC3"
		},
		{
			"bufferView":1,
			"componentType":5126,
			"count":2623,
			"type":"VEC3"
		},
		{
			"bufferView":2,
			"componentType":5126,
			"count":2623,
			"type":"VEC2"
		},
		{
			"bufferView":3,
			"componentType":5123,
			"count":7212,
			"type":"SCALAR"
		},
		{
			"componentType":5126,
			"count":2623,
			"max":[
				0,
				0,
				0
			],
			"min":[
				0,
				-0.8984843492507935,
				0
			],
			"sparse":{
				"count":1080,
				"indices":{
					"bufferView":4,
					"componentType":5123
				},
				"values":{
					"bufferView":5
				}
			},
			"type":"VEC3"
		},
		{
			"componentType":5126,
			"count":2623,
			"sparse":{
				"count":1439,
				"indices":{
					"bufferView":6,
					"componentType":5123
				},
				"values":{
					"bufferView":7
				}
			},
			"type":"VEC3"
		}
	],
	"bufferViews":[
		{
			"buffer":0,
			"byteLength":31476,
			"byteOffset":0,
			"target":34962
		},
		{
			"buffer":0,
			"byteLength":31476,
			"byteOffset":31476,
			"target":34962
		},
		{
			"buffer":0,
			"byteLength":20984,
			"byteOffset":62952,
			"target":34962
		},
		{
			"buffer":0,
			"byteLength":14424,
			"byteOffset":83936,
			"target":34963
		},
		{
			"buffer":0,
			"byteLength":2160,
			"byteOffset":98360
		},
		{
			"buffer":0,
			"byteLength":12960,
			"byteOffset":100520
		},
		{
			"buffer":0,
			"byteLength":2878,
			"byteOffset":113480
		},
		{
			"buffer":0,
			"byteLength":17268,
			"byteOffset":116360
		}
	],
	"buffers":[
		{
			"byteLength":133628,
			"uri":"Hexii_Phone.bin"
		}
	]
}
